<svg xmlns="http://www.w3.org/2000/svg" width="200" height="38" viewBox="0 0 200 38">
    <g fill="#1890FF" fill-rule="nonzero">
        <path d="M128 19.05V30h-5.207V19.294l-.039-1.495c0-2.15-1.302-3.773-3.287-3.932a3.649 3.649 0 0 0-1.294.128c-.68.162-1.29.535-1.747 1.065a2.856 2.856 0 0 0-.386.628 4.895 4.895 0 0 0-.41 1.75c0 .17-.022.337-.026.508v12.008h-5.212V18.63v-.7c0-.167 0-.338-.027-.504a4.993 4.993 0 0 0-.405-1.755 3.023 3.023 0 0 0-.386-.627 3.32 3.32 0 0 0-1.743-1.066 3.583 3.583 0 0 0-1.298-.128c-1.981.16-3.283 1.782-3.287 3.932l-.039 1.495v10.68L98 29.984V19.05c0-.523 0-1.05.035-1.573 0-.116 0-.228.02-.345.192-2.866 1.324-5.314 3.831-6.81a9.43 9.43 0 0 1 7.44-.948c1.545.484 2.57 1.417 3.624 2.614l.058.066.054-.066c1.058-1.197 2.074-2.13 3.627-2.614a9.438 9.438 0 0 1 7.448.949c2.5 1.499 3.639 3.943 3.832 6.81v.344c0 .527.031 1.042.031 1.573zM195.535 14.67v8.39c0 2.18 1.541 2.218 4.465 2.057v4.714c-6.99.806-9.565-1.243-9.565-6.774V14.67H187V9.684h3.439v-2.47L195.535 2v7.672H200v4.987l-4.465.012zM144.425 10l-4.484 13.437L134.694 10H129l8.277 19.346c-.971 2.72-2.498 3.876-5.293 3.838v4.796c5.174.274 8.563-2.243 10.66-8.012L150 10h-5.575zM178 10h5v20h-5zM172.046 12.684a9.359 9.359 0 0 0-7.078-3.12c-2.87 0-5.098.973-6.666 2.962V2h-.15L153 7.092v23.345h5.298V28.04c1.568 1.988 3.78 2.96 6.666 2.96a9.367 9.367 0 0 0 7.079-3.1 11.283 11.283 0 0 0 0-15.23l.003.015zm-3.98 11.731a6.009 6.009 0 0 1-8.133 0 5.683 5.683 0 0 1-1.604-4.139 5.522 5.522 0 0 1 1.604-4.104 5.933 5.933 0 0 1 8.133 0 5.392 5.392 0 0 1 1.632 4.104 5.545 5.545 0 0 1-1.632 4.14zM176.964 3.496l3.54-3.532 3.532 3.54-3.54 3.532zM1.873 26.923V31H0V20.006h4.103a4.052 4.052 0 0 1 2.838.958 3.276 3.276 0 0 1 1.055 2.524c.05.958-.33 1.885-1.032 2.516-.687.602-1.65.903-2.885.903l-2.206.016zm0-1.542h2.23a2.144 2.144 0 0 0 1.508-.479c.363-.36.554-.867.52-1.386a1.916 1.916 0 0 0-.528-1.421 1.986 1.986 0 0 0-1.45-.548h-2.28v3.834zM17.999 24.78c.02.948-.168 1.89-.552 2.76a4.143 4.143 0 0 1-1.576 1.822c-1.45.85-3.256.85-4.707 0a4.172 4.172 0 0 1-1.595-1.811A6.283 6.283 0 0 1 9 24.831v-.603c-.02-.95.172-1.894.56-2.764.332-.749.88-1.386 1.575-1.83a4.674 4.674 0 0 1 4.7 0 4.12 4.12 0 0 1 1.576 1.807c.386.864.58 1.8.567 2.744l.02.595zm-1.88-.56c0-1.166-.224-2.091-.681-2.72a2.414 2.414 0 0 0-1.92-.947c-.756 0-1.467.35-1.92.946a4.513 4.513 0 0 0-.706 2.67v.618a4.616 4.616 0 0 0 .697 2.721 2.247 2.247 0 0 0 1.93.96 2.22 2.22 0 0 0 1.927-.94c.449-.625.674-1.54.674-2.748v-.56zM28.402 28.279l1.7-8.279H32l-2.544 11h-1.83l-2.1-8.031L23.383 31h-1.84L19 20h1.903l1.707 8.279 2.103-8.263h1.602zM39.257 26.087h-4.394v3.387H40V31h-7V20h6.95v1.542h-5.087v3.035h4.394zM45.896 26.769h-2.054V31H42V20h3.73c1.222 0 2.17.284 2.833.855a3.063 3.063 0 0 1 .998 2.47 3.172 3.172 0 0 1-.513 1.85 3.305 3.305 0 0 1-1.433 1.146L50 30.901V31h-1.977l-2.127-4.231zm-2.054-1.543h1.896a2.048 2.048 0 0 0 1.457-.487c.357-.34.549-.828.524-1.33a1.853 1.853 0 0 0-.486-1.371 2.015 2.015 0 0 0-1.445-.496h-1.946v3.684zM57.257 26.087H52.86v3.387H58V31h-7V20h6.95v1.542h-5.091v3.035h4.398zM59 31V20h3.168a4.874 4.874 0 0 1 2.52.648 4.39 4.39 0 0 1 1.707 1.846c.414.847.62 1.785.604 2.732v.552c.02.954-.19 1.9-.608 2.752a4.346 4.346 0 0 1-1.73 1.826c-.79.438-1.677.66-2.575.643H59zm1.862-9.457v7.934h1.216a2.77 2.77 0 0 0 2.252-.943c.522-.623.78-1.526.78-2.7v-.612c0-1.198-.254-2.105-.76-2.732a2.653 2.653 0 0 0-2.202-.943l-1.286-.004zM73 30.992V20h3.836c1.27 0 2.233.249 2.892.747a2.61 2.61 0 0 1 .993 2.228 2.34 2.34 0 0 1-.407 1.357c-.304.424-.728.75-1.22.938a2.469 2.469 0 0 1 1.403.907c.337.465.512 1.026.497 1.597a2.908 2.908 0 0 1-1.01 2.396c-.675.55-1.626.83-2.896.83L73 30.992zm1.944-6.364h1.92c.506.03 1.007-.111 1.42-.4.347-.28.537-.705.513-1.146a1.388 1.388 0 0 0-.476-1.197 2.431 2.431 0 0 0-1.473-.36h-1.891l-.013 3.103zm0 1.405v3.438h2.16a2.105 2.105 0 0 0 1.433-.447c.354-.315.544-.77.516-1.238 0-1.142-.595-1.725-1.786-1.749l-2.323-.004zM85.504 25.203l2.447-5.187H90l-3.568 6.938V31h-1.856v-4.062L81 20h2.053z"/>
    </g>
</svg>
