<svg width="111" height="111" viewBox="0 0 111 111" fill="none" xmlns="http://www.w3.org/2000/svg">
<path d="M29.7481 91.575V98.2661C29.7456 99.4906 30.1945 100.673 31.009 101.587C33.713 104.593 41.0168 110.778 55.3935 110.778C66.6977 110.778 73.7795 106.955 77.6645 103.86C78.8551 102.909 79.8158 101.702 80.4754 100.328C81.1349 98.9547 81.4763 97.45 81.4741 95.9262V91.575H29.7481Z" fill="#0083FF"/>
<path d="M81.4741 91.575C81.4741 99.3406 69.7391 105.339 55.5444 105.339C41.3498 105.339 29.748 99.3406 29.748 91.575C29.748 83.8094 41.3498 77.1938 55.5444 77.1938C69.7391 77.1938 81.4741 83.8094 81.4741 91.575Z" fill="#1990F2"/>
<path d="M31.6883 23.683C31.6883 23.683 35.2403 41.5096 48.618 52.614C48.618 52.614 31.3953 71.7993 31.3953 88.7379C31.3953 105.676 58.8433 103.861 58.8433 103.861C58.8433 103.861 79.3473 103.776 79.5337 88.3427C79.7202 72.9093 62.382 52.614 62.382 52.614C62.382 52.614 76.2615 40.5639 80.142 23.754L31.6883 23.683Z" fill="#91CFDE"/>
<path d="M32.7761 91.9346C32.3421 90.8551 32.1636 89.6898 32.2545 88.5299C32.3454 87.37 32.7032 86.2467 33.3 85.248C36.1549 80.364 43.6052 69.9877 55.238 70.2763C66.9996 70.5649 74.2634 80.8568 76.9407 85.4922C77.9129 87.162 78.1949 89.1453 77.7266 91.02C76.59 95.5354 72.1322 103.008 55.0293 102.342C39.6181 101.729 34.4721 96.0416 32.7761 91.9346Z" fill="#FFE54A"/>
<path d="M35.5689 25.6232C37.154 29.0775 43.29 45.9539 53.1513 51.5173C53.2798 51.5912 53.3878 51.6962 53.4654 51.8226C53.5429 51.949 53.5876 52.0929 53.5953 52.241L54.612 71.5417C54.612 71.9857 56.0595 71.3063 56.5168 71.3063H54.39C54.8607 71.3063 56.3126 71.9679 56.3126 71.5017L56.7566 52.1744C56.7566 51.8991 56.8542 51.5661 57.1162 51.4817C61.9425 49.9366 75.6576 32.0745 75.6576 24.3178C75.6576 17.7156 56.4191 22.7283 56.4191 22.7283C56.4191 22.7283 47.6102 25.2458 43.4232 31.2487C41.665 33.7795 34.2857 22.8393 35.5689 25.6232Z" fill="#FFE54A"/>
<path d="M81.474 13.32V19.8068C81.474 27.5724 69.7391 33.7129 55.5444 33.7129C41.3497 33.7129 30.3962 26.9241 30.3962 19.1586V11.3975" fill="#0083FF"/>
<path d="M81.474 13.3201C81.474 21.0901 69.8057 26.2538 55.611 26.2538C41.4163 26.2538 30.3962 19.7936 30.3962 12.0458C30.3962 4.29797 41.3497 0.102173 55.5444 0.102173C69.7391 0.102173 81.474 5.57225 81.474 13.3201Z" fill="#1990F2"/>
</svg>
