<svg width="87" height="104" viewBox="0 0 87 104" fill="none" xmlns="http://www.w3.org/2000/svg">
<path fill-rule="evenodd" clip-rule="evenodd" d="M27.3262 90.7428L27.4292 90.8378C27.7102 91.0378 27.9062 91.3318 28.1962 91.5228C28.4212 91.7158 28.6452 91.9098 28.8702 92.1018C28.9212 92.1508 28.9842 92.1648 29.0472 92.1418C29.3902 92.0158 29.5712 92.1538 29.6192 92.4958C29.6532 92.7388 29.7672 92.9148 29.9982 93.0088C30.4782 92.9688 30.7992 93.1588 30.9592 93.6308C31.0682 93.9548 31.2602 94.1468 31.6492 93.9538C31.7772 93.8908 31.9592 93.8798 32.1192 93.9078C32.1812 94.0328 32.1022 94.1328 32.0722 94.2358C31.9742 94.5598 32.0552 94.7718 32.4122 94.8378C32.6612 94.8838 32.8732 95.0138 33.0082 95.2218C33.2152 95.5408 33.5102 95.7588 33.8052 95.9798L33.8082 95.9818C34.1132 96.0478 34.4292 96.0978 34.5532 96.4508C34.9422 96.6578 35.0262 96.1638 35.3102 96.1228C35.2962 96.3828 34.9002 96.5168 35.0732 96.8378C35.9392 97.4678 36.8592 98.0158 37.7832 98.5538C39.2432 99.4048 40.7392 100.188 42.2842 100.874C45.4522 102.281 48.7322 103.307 52.1882 103.68C56.8692 104.184 61.3052 103.442 65.3732 100.951C66.0452 100.54 66.7262 100.146 67.4032 99.7438C67.5362 99.4438 67.1982 99.5058 67.1132 99.3708C67.5672 99.2638 67.9632 99.0688 68.1492 98.6148C68.3042 98.2398 68.6762 98.2998 68.9522 98.1688C69.4982 97.7978 69.8002 97.2068 70.2292 96.7318C71.1902 95.6688 71.7642 94.3468 72.4922 93.1288C73.5372 91.3818 74.0642 89.4378 74.6552 87.5158C75.1602 85.8758 75.4282 84.2008 75.6112 82.4938C75.7452 81.2458 75.8752 79.9978 76.0082 78.7498C76.0932 77.9588 76.1162 77.1628 76.0442 76.3828C75.9362 75.2068 76.0292 74.0298 75.9292 72.8568C75.7752 71.6288 75.6462 70.3968 75.4902 69.1688C75.4002 68.4658 75.1962 67.7688 75.1552 67.0778C75.0842 65.8708 74.7072 64.7428 74.4872 63.5758C74.1842 61.9768 73.7122 60.4168 73.2802 58.8488C72.7022 56.7538 72.0042 54.6978 71.2212 52.6678C70.4432 50.6548 69.6372 48.6568 68.6992 46.7128C68.5742 46.4528 68.5572 46.1478 68.3712 45.9128C68.0462 45.4498 67.9182 44.8948 67.6552 44.3968C66.4152 42.0458 65.1722 39.6968 63.7752 37.4328C62.4562 35.2938 61.0622 33.2008 59.5862 31.1628C58.5642 29.7508 57.5102 28.3638 56.3992 27.0258C55.2582 25.6498 54.1162 24.2708 52.8512 23.0008C52.3412 22.4878 51.8792 21.9268 51.3622 21.4158C49.2632 19.3408 47.0712 17.3728 44.7642 15.5288C43.2002 14.2768 41.5572 13.1388 39.8712 12.0698C37.2692 10.4198 34.5482 8.98881 31.6582 7.89381C29.4822 7.06881 27.2662 6.37081 24.9602 6.05681C22.9372 5.78181 20.9072 5.57681 18.8492 5.86081C17.2642 6.07881 15.6932 6.29881 14.1902 6.86981C14.0232 6.93381 13.8372 6.90281 13.6782 6.99181C11.6792 8.06181 9.6702 9.11381 7.9852 10.6768C6.2332 12.3018 4.7962 14.1598 3.6822 16.2718C3.5552 16.4958 3.5582 16.6308 3.8672 16.7018C4.7122 16.8968 4.9232 17.5998 4.3332 18.2378C4.1182 18.4688 3.9642 18.7598 3.6332 18.9828C3.6702 18.6758 3.9372 18.3668 3.5942 18.1868C3.3692 18.0708 3.2572 17.7278 2.9192 17.8368C1.9082 19.9248 1.2742 22.1368 0.814201 24.3988C-0.0837994 28.8268 -0.169799 33.2988 0.222201 37.7818C0.666201 42.8398 1.7342 47.7758 3.2652 52.6158C4.8452 57.6068 6.8732 62.4078 9.3032 67.0428C11.6042 71.4328 14.2382 75.6138 17.2092 79.5788C19.9292 83.2098 22.9152 86.6068 26.1962 89.7428C26.3132 89.8538 26.4382 89.9558 26.5592 90.0618C26.8382 90.2638 27.0312 90.5608 27.3262 90.7428Z" fill="#2971C4"/>
<path fill-rule="evenodd" clip-rule="evenodd" d="M13.6777 6.99133C14.0317 7.14933 14.3387 6.95633 14.6437 6.84333C15.8407 6.39933 17.0897 6.17933 18.3467 6.04333C19.3337 5.93633 20.3257 5.77933 21.3247 5.84533C22.6997 5.93633 24.0717 6.05333 25.4367 6.27333C26.9947 6.52433 28.5117 6.92333 29.9947 7.43333C31.4337 7.92833 32.8587 8.46633 34.2377 9.12833C35.6977 9.83033 37.1427 10.5583 38.5287 11.3973C39.7337 12.1273 40.8987 12.9223 42.0717 13.7043C43.7327 14.8123 45.2377 16.1093 46.7957 17.3423C47.4117 17.8303 47.9947 18.3653 48.5647 18.9083C49.7317 20.0193 50.9207 21.1103 52.0257 22.2823C54.0077 24.3863 55.9227 26.5523 57.6857 28.8513C59.0657 30.6513 60.3947 32.4813 61.6467 34.3703C62.8327 36.1593 63.9417 37.9913 65.0327 39.8403C66.0347 41.5353 66.8377 43.3343 67.8587 45.0153C68.0017 45.2533 68.0277 45.5623 68.1207 45.8323C68.1367 45.8763 68.2237 45.8943 68.2777 45.9253C68.7297 46.0653 68.8777 45.9993 68.9847 45.5783C69.0667 45.2513 69.1567 44.9143 68.9667 44.5913C68.8237 44.3463 68.5847 44.2693 68.3177 44.2283C68.1197 44.1983 67.8667 44.2103 67.8317 43.9273C67.7977 43.6543 67.8847 43.4183 68.1257 43.2573C68.2607 43.1663 68.4077 43.1043 68.5677 43.0683C68.7977 43.0143 69.0907 43.0173 69.1157 42.6993C69.1417 42.3723 68.8457 42.3493 68.5047 42.2583C68.9837 42.1303 69.1867 41.8243 69.4487 41.5793C69.8347 41.2193 70.2947 40.9743 70.4837 40.4233C70.5327 40.2793 70.8087 40.3373 70.9837 40.3373C71.5147 40.3343 72.0387 40.3063 72.5577 40.1593C73.1537 39.9913 73.2257 39.4803 73.2827 39.0193C73.3717 38.3233 73.5787 38.4033 74.0787 38.3993C74.2557 38.3983 74.4317 38.4113 74.6087 38.4373C75.4587 38.5593 75.9697 38.0793 75.8907 37.2393C75.8857 37.1913 75.8867 37.1433 75.9147 37.0803C76.4337 37.2533 76.6907 37.6623 76.8657 38.1383C76.9517 38.3723 76.7207 38.3863 76.5977 38.4593C76.3947 38.5803 76.1077 38.4693 75.9317 38.6843C76.3407 39.0803 77.0057 39.2213 77.4627 38.9903C77.4737 39.3223 77.4967 39.6473 77.8367 39.8133C77.8457 39.8183 77.8607 39.8373 77.8587 39.8553C77.7957 40.6543 78.5077 41.0803 78.7507 41.7183C79.0457 42.4903 79.4957 43.1783 79.7997 43.9383C79.8357 44.0283 79.8807 44.1143 79.9537 44.1813C80.0237 44.2273 80.0927 44.2313 80.1607 44.1783C79.7837 43.0623 79.2687 42.0033 78.7747 40.9403C77.7137 38.6633 76.5867 36.4173 75.3267 34.2423C74.4077 32.6573 73.5227 31.0493 72.4567 29.5533C72.1117 29.2483 71.9287 28.8253 71.6787 28.4533C70.8727 27.2523 70.0387 26.0683 69.1707 24.9133C68.6607 24.2343 68.2027 23.5173 67.6757 22.8573C67.2487 22.3233 66.7687 21.8233 66.3307 21.2933C65.0717 19.7683 63.8187 18.2333 62.4367 16.8213C60.9627 15.3153 59.5107 13.7813 57.8437 12.4753C57.2997 12.0483 56.8687 11.4953 56.3257 11.0613C55.2227 10.1793 54.1097 9.31033 52.9707 8.47733C51.6677 7.52433 50.3327 6.61133 48.9437 5.78733C47.4947 4.92933 46.0117 4.13733 44.4897 3.40933C43.5347 2.95433 42.5397 2.61333 41.5827 2.17033C40.6417 1.73433 39.6207 1.47333 38.6167 1.18633C37.4257 0.846328 36.1977 0.691328 35.0027 0.379328C34.6867 0.296328 34.3657 0.303328 34.0487 0.269328C32.7047 0.123328 31.3537 -0.0256716 30.0047 0.0903284C28.4247 0.226328 26.8577 0.450328 25.3277 0.921328C24.3897 1.20933 23.4407 1.47833 22.5907 1.95633C21.6017 2.51233 20.5977 3.04733 19.6127 3.61133C18.7967 4.07733 18.0217 4.61933 17.1587 5.00933C16.7537 5.19233 16.4307 5.54233 15.9727 5.63233C15.1917 6.05733 14.4027 6.47033 13.6777 6.99133Z" fill="#24ACFD"/>
<mask id="mask0" mask-type="alpha" maskUnits="userSpaceOnUse" x="66" y="44" width="21" height="56">
<path fill-rule="evenodd" clip-rule="evenodd" d="M66.8452 44.1772H86.023V99.7443H66.8452V44.1772Z" fill="white"/>
</mask>
<g mask="url(#mask0)">
<path fill-rule="evenodd" clip-rule="evenodd" d="M80.1611 44.1782C80.1041 44.1782 80.0481 44.1772 79.9921 44.1772C79.8551 44.5192 80.0491 44.8112 80.1741 45.0902C80.7141 46.2912 81.0121 47.5852 81.5411 48.7822C82.0131 49.8482 82.1421 51.0112 82.6491 52.0692C82.8941 52.5812 83.0101 53.1972 83.1271 53.7772C83.3601 54.9292 83.8581 56.0142 83.9841 57.1942C84.0151 57.4812 84.0901 57.7632 84.0511 58.0562C84.0331 58.1862 84.0521 58.3152 84.1051 58.4352C84.6181 59.5652 84.8401 60.7602 84.9011 61.9902C84.9231 62.4102 85.0991 62.8052 85.0941 63.2292C85.0991 63.3092 85.1131 63.3882 85.1321 63.4662C85.2311 63.8552 85.3151 64.2472 85.2781 64.6542C85.6911 67.5322 85.7641 70.4312 85.6291 73.3242C85.5531 74.9552 85.3511 76.5902 85.0911 78.2132C84.7421 80.3862 84.0141 82.4472 83.3491 84.5282C83.1071 85.0582 82.9101 85.6092 82.6391 86.1272C82.4001 86.5822 82.1811 87.0462 81.9921 87.5252C81.8311 87.9362 81.4921 88.2412 81.3041 88.6242C80.8651 89.5152 80.2021 90.2482 79.6121 91.0182C78.9521 91.8792 78.1541 92.6392 77.3021 93.3362C75.8111 94.5532 74.1131 95.4312 72.4811 96.4232C71.4231 97.0672 70.3321 97.6522 69.2711 98.2902C69.1231 98.3802 68.9831 98.5012 68.7771 98.4972C68.7081 98.3462 68.9391 98.2542 68.8611 98.1082C68.4571 98.1442 68.1401 98.2212 67.9561 98.6992C67.8661 98.9322 67.5601 99.3092 67.1121 99.1872C67.0071 99.1582 66.8721 99.1512 66.8481 99.3062C66.8281 99.4362 66.9151 99.5092 67.0341 99.5442C67.1721 99.5842 67.3781 99.4962 67.4031 99.7442C67.5411 99.7452 67.6321 99.6712 67.7021 99.5622C67.7491 99.4132 67.8811 99.4132 68.0001 99.3902C68.9671 98.9432 69.8571 98.3612 70.7801 97.8342C72.3201 96.9552 73.8721 96.0952 75.3821 95.1652C78.8701 93.0172 81.3001 89.9412 83.0121 86.2642C84.5231 83.0182 85.3361 79.5872 85.7331 76.0382C86.1081 72.6882 86.1081 69.3372 85.7991 65.9922C85.2171 59.7002 83.7331 53.6082 81.5421 47.6842C81.1051 46.5062 80.6691 45.3282 80.1611 44.1782Z" fill="#2781D6"/>
</g>
<path fill-rule="evenodd" clip-rule="evenodd" d="M15.9727 5.63189C16.2447 5.69389 16.4707 5.59689 16.6927 5.44189C17.2337 5.06489 17.8637 4.82589 18.3947 4.45289C19.1717 3.90589 20.0757 3.58589 20.8267 3.00489C21.0137 2.86089 21.2127 2.74089 21.4757 2.72089C21.9727 2.68189 22.2257 2.20689 22.6527 2.00689C24.2087 1.27689 25.8747 0.91089 27.5177 0.46789C27.7787 0.39889 28.0557 0.37289 28.3267 0.35889C29.6347 0.28589 30.9417 -0.0581097 32.2467 0.14989C33.6477 0.37289 35.0647 0.44489 36.4587 0.79089C37.8037 1.12389 39.1647 1.40089 40.4727 1.86089C41.3767 2.17989 42.2207 2.68189 43.1357 2.95789C44.0087 3.21989 44.7957 3.66289 45.5907 4.05289C46.2637 4.38289 46.9757 4.67789 47.6147 5.12289C48.3327 5.62489 49.1407 6.01089 49.8737 6.50389C50.3177 6.80189 50.8267 7.00489 51.2027 7.39989C51.3287 7.53189 51.4847 7.61089 51.6527 7.67389C51.7867 7.72389 51.9427 7.76889 52.0367 7.86489C52.8617 8.70989 53.9497 9.20689 54.8247 9.97689C55.5767 10.6399 56.4677 11.1379 57.1117 11.9369C57.5147 12.4379 58.0427 12.8199 58.5587 13.2049C58.7007 13.3109 58.8497 13.4089 58.9757 13.5309C60.0817 14.5999 61.2157 15.6429 62.2777 16.7559C63.1827 17.7039 63.9657 18.7699 64.8737 19.7149C65.5947 20.4649 66.1567 21.3369 66.8887 22.0819C67.5437 22.7479 68.1047 23.5309 68.5507 24.3759C68.7537 24.7599 69.1067 25.0359 69.3887 25.3589C69.8467 25.8829 70.1007 26.5329 70.5567 27.0519C71.1717 27.7539 71.6377 28.5629 72.1437 29.3419C72.2187 29.4579 72.3317 29.5139 72.4567 29.5529C72.0287 28.6849 71.4517 27.9089 70.8957 27.1239C69.9587 25.7979 69.0157 24.4769 68.0157 23.1949C66.9767 21.8629 65.9077 20.5559 64.8047 19.2779C63.1307 17.3349 61.3347 15.5049 59.4707 13.7439C57.3147 11.7079 55.0267 9.82889 52.6157 8.09889C49.5847 5.92389 46.3797 4.05089 42.9487 2.59489C40.7097 1.64589 38.3907 0.92589 35.9897 0.47189C33.9667 0.0898903 31.9347 -0.0781097 29.8867 0.0348903C26.7897 0.20689 23.8607 0.97089 21.1777 2.59389C19.5947 3.55089 17.9687 4.43889 16.3647 5.35889C16.2257 5.43789 16.0657 5.48789 15.9727 5.63189Z" fill="#24ACFD"/>
<path fill-rule="evenodd" clip-rule="evenodd" d="M2.91895 17.8365C3.18495 17.9425 3.32495 18.2175 3.60695 18.3235C3.76795 18.3835 3.68795 18.5715 3.57695 18.6905C3.45195 18.8245 3.30595 18.9825 3.52295 19.1295C3.71095 19.2575 3.83395 19.0455 3.89895 18.9315C4.17795 18.4455 4.82895 18.1985 4.77495 17.4955C4.73595 16.9805 4.44995 16.6035 3.92795 16.5945C3.63595 16.5895 3.67195 16.4485 3.68295 16.2715C3.35295 16.7565 3.13995 17.2985 2.91895 17.8365Z" fill="#2971C4"/>
<path fill-rule="evenodd" clip-rule="evenodd" d="M33.8048 95.9801C33.5218 95.6831 33.2498 95.3771 33.0168 95.0381C32.9058 94.8761 32.7298 94.7391 32.5378 94.7391C31.9558 94.7381 32.1198 94.4131 32.2518 94.1131C32.3038 93.9931 32.3958 93.8911 32.2978 93.7631C32.1828 93.6121 32.0768 93.7071 31.9708 93.7861C31.7848 93.9241 31.5268 93.6751 31.3168 93.9461C31.2418 94.0411 31.1068 93.6941 31.0438 93.5271C30.8478 93.0011 30.5268 92.8161 30.0318 92.9621C29.9808 93.0021 29.9788 93.0441 30.0258 93.0891C30.6688 93.7841 31.4718 94.2861 32.2138 94.8581C32.7258 95.2521 33.2018 95.7091 33.8048 95.9801Z" fill="#2971C4"/>
<path fill-rule="evenodd" clip-rule="evenodd" d="M30.0254 93.0895L30.0314 92.9625C29.8564 92.8845 29.7634 92.7635 29.7374 92.5615C29.6534 91.9155 29.4364 91.8065 28.8704 92.1025C29.1674 92.5345 29.5904 92.8185 30.0254 93.0895Z" fill="#2971C4"/>
<path fill-rule="evenodd" clip-rule="evenodd" d="M35.0732 96.8375C35.0992 96.6165 35.2652 96.4735 35.3802 96.3025C35.4562 96.1885 35.6402 96.0745 35.4942 95.9405C35.3242 95.7845 35.2192 95.9995 35.1002 96.0905C34.9402 96.2145 34.8552 96.4435 34.6082 96.4455C34.5692 96.4045 34.5372 96.4105 34.5112 96.4585C34.6632 96.6375 34.8512 96.7605 35.0732 96.8375Z" fill="#2971C4"/>
<path fill-rule="evenodd" clip-rule="evenodd" d="M34.5108 96.4586C34.5428 96.4546 34.5748 96.4506 34.6078 96.4456C34.5538 95.9256 34.1788 95.9566 33.8088 95.9816C34.0418 96.1406 34.2768 96.2996 34.5108 96.4586Z" fill="#2971C4"/>
<path fill-rule="evenodd" clip-rule="evenodd" d="M27.3261 90.7428C27.1031 90.4788 26.9031 90.1898 26.5591 90.0618C26.7751 90.3338 26.9741 90.6238 27.3261 90.7428Z" fill="#2971C4"/>
<path fill-rule="evenodd" clip-rule="evenodd" d="M28.1962 91.5226C27.9782 91.2516 27.7702 90.9696 27.4282 90.8376C27.6162 91.1436 27.8542 91.3916 28.1962 91.5226Z" fill="#2971C4"/>
<path fill-rule="evenodd" clip-rule="evenodd" d="M68 99.3907C67.877 99.2507 67.715 99.3417 67.628 99.3917C67.443 99.4997 67.603 99.5347 67.702 99.5617C67.827 99.5487 67.925 99.4897 68 99.3907Z" fill="#2971C4"/>
<path fill-rule="evenodd" clip-rule="evenodd" d="M65.3595 90.7213C68.0565 87.2653 69.1875 83.2283 69.7305 78.9713C69.7495 78.8273 69.7895 78.6873 69.8185 78.5463C69.9415 78.1593 69.9155 77.7503 69.9355 77.3593C69.9875 76.4003 70.1285 75.4423 70.1325 74.4883C70.1375 73.2093 69.9835 71.9293 69.8945 70.6503C69.8785 70.4123 69.9265 70.1663 69.8365 69.9343C69.5365 67.3233 69.1305 64.7303 68.5125 62.1733C67.6605 58.6393 66.5235 55.2013 65.1385 51.8403C62.9295 46.4803 60.1425 41.4413 56.8065 36.7033C53.2985 31.7233 49.2755 27.2113 44.5605 23.3363C41.2955 20.6513 37.7845 18.3523 33.8915 16.6723C30.2065 15.0803 26.3855 14.1053 22.3355 14.3733C17.8225 14.6733 14.0485 16.5083 11.1025 19.9683C10.7505 20.3813 10.4915 20.8743 10.1885 21.3313C9.51147 22.0863 9.23847 23.0503 8.83247 23.9463C7.78047 26.5373 7.22647 29.2413 6.94247 32.0163C6.75247 33.8673 6.70947 35.7203 6.78347 37.5693C6.86047 39.5313 7.06647 41.4853 7.36647 43.4313C7.86847 46.6923 8.65347 49.8813 9.66447 53.0143C10.5555 55.7793 11.6325 58.4733 12.8435 61.1143C14.1905 64.0493 15.7145 66.8903 17.4155 69.6343C19.2935 72.6663 21.3745 75.5563 23.6515 78.3063C25.4555 80.4833 27.3845 82.5443 29.4505 84.4653C32.6365 87.4283 36.0885 90.0533 39.9305 92.1213C42.6675 93.5953 45.5265 94.7743 48.5815 95.4143C52.4325 96.2213 56.2375 96.1813 59.9335 94.6473C61.9605 93.8063 63.7135 92.5713 65.2035 90.9623C65.2695 90.8913 65.3325 90.8173 65.3595 90.7213Z" fill="#FEFEFE"/>
<path fill-rule="evenodd" clip-rule="evenodd" d="M85.2208 63.2501C85.0358 61.8131 85.0158 60.3271 84.4838 58.9781C84.1408 58.1051 84.2378 57.2051 83.9828 56.3431C83.8738 55.9791 83.7548 55.6131 83.6618 55.2411C83.4098 54.2231 83.1038 53.2201 82.8718 52.1951C82.7558 51.6791 82.3308 51.2321 82.2888 50.6851C82.2198 49.7721 81.6908 49.0171 81.4848 48.1461C81.3848 47.7211 81.0568 47.2631 80.9748 46.8331C80.7898 45.8801 80.1698 45.1141 79.9918 44.1771C79.8718 43.7431 79.7158 43.3331 79.4498 42.9561C79.2898 42.7311 79.1638 42.4771 79.0918 42.1811C78.9918 41.7731 78.8388 41.3511 78.4778 41.0601C78.2038 40.8391 78.0528 40.5641 78.0378 40.1881C78.0298 39.9781 78.1188 39.6521 77.7208 39.5861C77.5598 39.5601 77.5648 39.3731 77.6268 39.2191C77.6928 39.0581 77.6998 38.8871 77.5208 38.7981C77.3448 38.7101 77.2118 38.7561 77.1788 38.9811C77.1578 39.1191 77.0768 39.0431 77.0028 39.0201C76.6748 38.9161 76.3438 38.8201 76.0148 38.6901C76.4088 38.7231 76.7388 38.5921 77.0458 38.3681C77.1618 38.2841 77.2358 38.1691 77.1018 38.1221C76.7968 38.0131 76.7858 37.7961 76.7958 37.5441C76.8008 37.4181 76.7578 37.3271 76.6148 37.3071C76.3578 37.2711 76.1628 37.1501 76.0598 36.8991C76.0308 36.8291 75.9888 36.7431 75.8868 36.7681C75.8008 36.7891 75.7528 36.8631 75.7458 36.9451C75.7368 37.0571 75.7308 37.1721 75.7478 37.2821C75.8588 37.9741 75.3438 38.4701 74.6608 38.3151C74.2928 38.2311 73.9228 38.2881 73.5538 38.2741C73.3408 38.2661 73.2268 38.3731 73.2168 38.5931C73.2108 38.7371 73.2018 38.8821 73.1738 39.0231C72.9378 40.1711 72.7068 40.0221 71.5718 40.2041C71.4138 40.2291 71.2478 40.2231 71.0888 40.2051C70.5808 40.1471 70.1808 40.1861 70.1288 40.8511C70.0898 41.3401 69.4798 41.1121 69.3208 41.3591C69.1538 41.6201 69.2188 42.0351 68.7488 42.0461C68.6848 42.0471 68.6158 42.0441 68.5578 42.0671C68.4448 42.1141 68.2818 42.1401 68.3068 42.3101C68.3298 42.4611 68.4758 42.4251 68.5838 42.4331C68.6478 42.4381 68.7128 42.4331 68.7778 42.4381C68.9208 42.4521 69.0328 42.5191 69.0348 42.6721C69.0378 42.8271 68.9288 42.9171 68.7848 42.9101C68.4938 42.8941 68.2558 43.0191 68.0148 43.1521C67.6048 43.3791 67.6538 43.7961 67.6908 44.1371C67.7138 44.3521 68.0698 44.3411 68.2738 44.3541C68.5818 44.3731 68.8358 44.4611 68.9248 44.7501C69.0358 45.1141 68.9178 45.4861 68.7718 45.8201C68.6938 45.9981 68.4488 45.9001 68.2778 45.9251C69.0338 47.7021 69.8068 49.4731 70.5428 51.2591C71.1348 52.6921 71.6458 54.1571 72.1518 55.6241C72.4328 56.4391 72.6628 57.2701 72.9588 58.0821C73.1868 58.7041 73.3238 59.3751 73.4768 60.0301C73.8088 61.4491 74.2078 62.8501 74.5208 64.2751C74.9328 66.1521 75.2058 68.0481 75.4438 69.9511C75.5568 70.8561 75.7098 71.7571 75.7438 72.6711C75.7458 72.7271 75.8018 72.7801 75.8328 72.8331C76.1548 72.7231 76.0458 72.4491 76.0498 72.2301C76.0738 70.9591 75.9228 69.6991 75.7848 68.4381C75.7538 68.1441 75.8178 67.8631 75.9258 67.5891C76.0028 67.3951 76.1118 67.2651 76.3318 67.2251C76.7148 67.1551 76.9418 66.9421 76.8868 66.5201C76.8438 66.1831 77.0378 66.1031 77.3208 66.1011C77.7068 66.0991 78.0938 66.0991 78.4808 66.0981C78.8478 66.0971 79.1108 65.9751 79.1608 65.5701C79.1928 65.3151 79.3248 65.1491 79.5948 65.1381C79.9728 65.1211 80.1918 64.9421 80.2388 64.5571C80.2718 64.2861 80.4508 64.1771 80.7088 64.1681C80.8698 64.1631 81.0318 64.1641 81.1928 64.1631C81.9558 64.1591 81.9618 64.1611 82.1858 63.4401C82.2538 63.2211 82.3978 63.1261 82.6038 63.0981C82.9188 63.0551 83.0908 62.8761 83.1318 62.5631C83.1688 62.2781 83.3368 62.1211 83.6208 62.1401C83.9508 62.1621 84.3398 61.9821 84.5688 62.4111C84.7358 62.7251 84.8258 63.1081 85.2208 63.2501Z" fill="#24ACFD"/>
<path fill-rule="evenodd" clip-rule="evenodd" d="M85.2208 63.2501C85.0378 62.8811 84.8038 62.5391 84.6058 62.1791C84.3758 61.7601 83.8528 62.0621 83.4638 61.9991C83.2298 61.9611 83.0078 62.0941 83.0158 62.3311C83.0318 62.7991 82.8858 63.0031 82.3838 62.9791C82.0898 62.9661 82.0008 63.2381 82.0298 63.5071C82.0738 63.9151 81.8928 64.0611 81.4968 64.0301C81.1928 64.0061 80.8838 64.0261 80.5768 64.0251C80.2648 64.0241 80.0758 64.1721 80.0958 64.4911C80.1188 64.8681 79.9768 65.0321 79.5938 64.9961C79.1788 64.9561 78.9958 65.1631 79.0248 65.5721C79.0448 65.8691 78.8878 65.9691 78.6098 65.9641C78.1258 65.9551 77.6418 65.9731 77.1578 65.9581C76.7488 65.9451 76.6498 66.1321 76.7318 66.5011C76.8228 66.9101 76.6218 67.1621 76.2058 67.0911C75.9628 67.0501 75.9458 67.1561 75.8788 67.3091C75.6568 67.8231 75.6738 68.3391 75.6888 68.8981C75.7108 69.8071 76.1088 70.6961 75.8388 71.6201C75.8068 71.7311 75.8748 71.8701 75.8888 71.9971C75.9188 72.2781 76.0098 72.5651 75.8328 72.8331C75.7768 74.2991 75.8908 75.7611 75.9268 77.2251C75.9618 78.6901 75.7758 80.1431 75.6148 81.5901C75.4368 83.1931 75.2598 84.8051 74.8588 86.3741C74.5848 87.4451 74.2598 88.5071 73.9178 89.5551C73.6168 90.4751 73.2998 91.4171 72.8468 92.2711C72.5688 92.7951 72.3518 93.3871 71.9208 93.8281C71.6828 94.0731 71.6718 94.4191 71.4888 94.6841C70.8918 95.5381 70.4228 96.4841 69.6308 97.1981C69.3368 97.4631 69.2438 97.9101 68.8618 98.1081C68.8508 98.3291 68.3278 98.2991 68.5728 98.5981C68.7838 98.8571 69.0048 98.5621 69.2058 98.4641C70.1418 98.0121 71.0188 97.4451 71.9108 96.9231C72.6998 96.4611 73.4868 95.9601 74.2788 95.5071C75.0988 95.0391 75.8258 94.4271 76.6848 94.0291C77.0548 93.8571 77.2938 93.5141 77.5868 93.2551C78.1588 92.7501 78.7058 92.2061 79.2358 91.6471C79.7838 91.0691 80.0988 90.3151 80.7418 89.8171C80.9768 89.6341 80.9808 89.2701 81.1758 89.0241C81.4208 88.7151 81.6308 88.3771 81.8428 88.0431C82.2078 87.4651 82.4198 86.8141 82.7008 86.1961C82.3728 85.5661 82.5528 85.0451 83.2148 84.8151C83.2958 84.7881 83.3328 84.7111 83.3828 84.6491C83.5408 84.5851 83.5778 84.4411 83.6048 84.2991C83.7958 83.2721 84.1988 82.3041 84.5148 81.3191C84.9388 80.0001 85.1358 78.6501 85.3698 77.3061C85.5038 76.5401 85.5308 75.7431 85.6298 74.9691C85.8228 73.4791 85.7798 71.9891 85.8058 70.4981C85.8408 68.5211 85.6548 66.5611 85.4108 64.6031C85.3378 64.2181 85.2948 63.8281 85.2228 63.4421C85.2218 63.3781 85.2218 63.3141 85.2208 63.2501Z" fill="#24ACFD"/>
<path fill-rule="evenodd" clip-rule="evenodd" d="M65.3595 90.7213C64.4175 91.5983 63.4855 92.4853 62.3965 93.1893C60.6435 94.3253 58.7515 95.1003 56.6965 95.4823C52.7655 96.2123 48.9685 95.6263 45.2415 94.3323C41.7285 93.1123 38.5185 91.3203 35.4835 89.1913C32.2385 86.9133 29.2915 84.2953 26.5785 81.4103C23.8255 78.4833 21.3425 75.3383 19.1025 72.0003C16.3755 67.9343 14.0365 63.6563 12.1125 59.1543C10.0925 54.4293 8.55549 49.5543 7.66849 44.4833C7.08049 41.1243 6.78049 37.7413 6.90949 34.3313C7.03849 30.9473 7.54849 27.6303 8.77049 24.4493C8.83449 24.2843 8.87849 24.1123 8.93049 23.9443C9.01349 23.6803 8.91349 23.5543 8.64049 23.5543C8.28249 24.6503 7.70949 25.6623 7.35449 26.7563C7.04949 27.6983 6.83449 28.6713 6.60949 29.6373C6.30449 30.9493 6.16449 32.2853 6.00549 33.6213C5.86349 34.8243 5.85649 36.0373 5.87249 37.2293C5.89549 39.0663 5.92049 40.9103 6.18149 42.7513C6.48549 44.8783 6.80649 46.9983 7.29049 49.0873C7.83849 51.4583 8.53949 53.7853 9.34249 56.0873C10.1365 58.3593 11.0665 60.5733 12.0565 62.7593C12.6435 64.0533 13.3075 65.3163 13.9895 66.5693C14.9305 68.3013 15.9165 70.0003 16.9685 71.6673C17.8105 72.9983 18.6645 74.3203 19.5905 75.5893C20.6395 77.0273 21.7305 78.4353 22.8835 79.7973C23.6495 80.7003 24.4325 81.5893 25.2205 82.4713C26.0345 83.3823 26.9505 84.2023 27.8075 85.0763C29.1035 86.3963 30.5385 87.5603 31.9635 88.7313C33.0365 89.6133 34.1825 90.4093 35.3385 91.1893C38.1915 93.1163 41.2195 94.6953 44.4705 95.8213C46.3045 96.4563 48.1965 96.8713 50.1395 97.0603C50.9385 97.1383 51.7335 97.2863 52.5365 97.2273C54.1655 97.1073 55.7915 96.9653 57.3655 96.4693C59.7735 95.7093 61.9035 94.4883 63.6845 92.6893C64.2315 92.1383 64.7455 91.5553 65.2745 90.9873C65.3455 90.9113 65.3745 90.8243 65.3595 90.7213Z" fill="#3C91C3"/>
<path fill-rule="evenodd" clip-rule="evenodd" d="M83.383 84.6495C82.591 84.9155 82.333 85.2215 82.417 85.8085C82.443 85.9845 82.476 86.1635 82.701 86.1955C83.053 85.7345 83.19 85.1795 83.383 84.6495Z" fill="#1195FC"/>
<mask id="mask1" mask-type="alpha" maskUnits="userSpaceOnUse" x="85" y="63" width="2" height="2">
<path fill-rule="evenodd" clip-rule="evenodd" d="M85.2197 63.4425H86.0231V64.6035H85.2197V63.4425Z" fill="white"/>
</mask>
<g mask="url(#mask1)">
<path fill-rule="evenodd" clip-rule="evenodd" d="M85.2227 63.4425C85.2097 63.8415 85.2337 64.2345 85.4107 64.6035C85.4277 64.2035 85.3937 63.8115 85.2227 63.4425Z" fill="#1195FC"/>
</g>
<path fill-rule="evenodd" clip-rule="evenodd" d="M3.90142 16.9664C3.53342 16.9574 3.35142 17.1964 3.33742 17.5014C3.31942 17.8664 3.63042 17.9684 3.93042 17.9924C4.24842 18.0184 4.43642 17.7574 4.43542 17.5224C4.43542 17.2464 4.26642 16.9704 3.90142 16.9664Z" fill="#3070BE"/>
<path fill-rule="evenodd" clip-rule="evenodd" d="M50.4551 34.7809C49.5911 35.1029 48.9011 35.6859 48.2471 36.3059C46.2171 38.2279 44.4351 40.3759 42.6591 42.5269C41.7391 43.6419 40.8421 44.7759 39.8321 46.0279V45.0909C39.8331 43.1709 39.8351 41.2519 39.8341 39.3319C39.8331 39.0769 39.8681 38.8139 39.7231 38.5779C39.5151 38.7879 39.5691 39.0579 39.5691 39.3079C39.5621 41.3789 39.5611 43.4489 39.5691 45.5199C39.5711 46.0379 39.4511 46.4709 38.9751 46.7429C38.8511 46.9369 39.0201 46.9659 39.1351 46.9899C39.5811 47.0879 39.8441 47.3429 39.8961 47.8049C39.9321 48.1259 40.1701 48.1529 40.4261 48.1739C41.1521 48.2339 41.4781 48.8589 41.0831 49.4729C40.8721 49.7999 40.6411 50.1279 40.2431 50.3349C40.4821 49.9299 40.4021 49.6519 40.0141 49.4219C39.8171 49.3059 39.7651 49.0569 39.7371 48.8259C39.7151 48.6419 39.6671 48.4879 39.4351 48.4549C38.5051 48.3249 38.5061 48.3209 38.3261 47.4749C38.2491 47.3419 38.1491 47.2419 37.9811 47.2499C37.8371 47.3449 37.6971 47.4779 37.5131 47.3269C37.3941 47.2289 37.3281 47.1039 37.3711 46.9479C37.4231 46.7549 37.5701 46.6699 37.7561 46.6369C37.8501 46.6199 37.9461 46.6239 38.0401 46.6049C38.2381 46.5649 38.4081 46.4669 38.2511 46.2549C38.1051 46.0579 38.2761 45.9739 38.3281 45.8439C38.5301 44.1399 38.3341 42.4319 38.3981 40.7279C38.4111 40.3909 38.4691 40.0459 38.3941 39.7139C38.1691 38.7189 37.6101 37.9479 36.7241 37.4479C36.0431 37.0639 35.4171 37.3979 35.3531 38.1739C35.2611 39.2999 35.3381 40.4309 35.3141 41.5599C35.3101 41.7639 35.3601 41.9859 35.1781 42.1509C35.1731 42.5679 35.1681 42.9849 35.1631 43.4019C35.2371 43.4649 35.3091 43.5279 35.3931 43.5769C36.1801 44.0479 36.3021 44.4839 35.7011 45.1629C35.2851 45.6339 35.1871 46.1199 35.2071 46.7059C35.2371 47.6079 35.2131 48.5109 35.2171 49.4139C35.2191 49.6249 35.2041 49.8319 35.1471 50.0349C35.1051 51.2519 34.8891 51.0029 36.0091 51.4209C37.3501 51.9219 38.2381 52.9709 39.0141 54.1179C39.4201 54.7179 39.7611 55.3589 39.9761 56.0589C40.0081 56.1649 40.0401 56.2799 40.1791 56.3009C41.0621 55.1539 41.7261 53.8669 42.4841 52.6409C42.6101 52.4369 42.7271 52.2249 42.8411 52.0129C42.6921 51.6999 42.4481 51.4319 42.4271 51.0569C42.4131 50.8149 42.2141 50.8149 42.0271 50.8239C41.6411 50.8429 41.3391 50.7099 41.1511 50.3229C41.6551 50.6089 41.7551 50.5519 41.7731 49.9939C41.7751 49.9299 41.7651 49.8639 41.7761 49.8019C41.8081 49.6279 41.6741 49.3629 41.9381 49.3119C42.1551 49.2699 42.3201 49.4489 42.4391 49.6329C42.5011 49.7279 42.5341 49.8359 42.5701 49.9429C42.7301 50.4159 42.8381 50.4409 43.1601 50.0789C43.2571 49.9699 43.3561 49.8639 43.4371 49.7429C43.6061 49.4929 43.7811 49.4859 43.9731 49.7149C44.2261 49.6989 44.3171 49.4899 44.4181 49.3169C45.4761 47.4909 46.5431 45.6709 47.4981 43.7869C48.2561 42.2929 49.0881 40.8369 49.7471 39.2949C50.2151 38.1989 50.7391 37.1239 50.9361 35.9309C51.0171 35.4369 50.9321 35.0319 50.4551 34.7809Z" fill="#186BBC"/>
<path fill-rule="evenodd" clip-rule="evenodd" d="M40.2043 56.2706C39.8293 55.2416 39.3613 54.2586 38.6653 53.4056C37.8223 52.3726 36.8913 51.4436 35.5263 51.1276C35.2413 51.0616 35.1113 50.9296 35.1683 50.6236C35.2003 50.4506 35.1803 50.2696 35.1833 50.0916C35.2113 49.9836 35.2543 49.8746 35.1423 49.7856C35.1273 49.8626 35.1003 49.9406 35.0963 50.0186C35.0543 50.8716 35.0563 50.8716 34.2573 51.1166C33.4163 51.3736 32.8253 52.2416 32.7533 53.3256C32.6233 55.2726 33.3363 56.9506 34.4423 58.4866C35.0563 59.3386 35.8013 60.0506 36.7383 60.5776C37.9193 61.2406 39.0033 61.1326 40.0863 60.3986C40.3373 60.2276 40.6113 60.0886 40.8793 59.9436C41.9423 59.3676 42.2673 58.2886 42.1883 56.9986C42.1563 56.4726 42.0343 55.9526 41.9533 55.4296C41.5423 55.5946 41.4323 56.0126 41.2243 56.3366C41.0193 56.6556 40.8193 56.9786 40.5883 57.3786C40.4753 57.0876 40.4593 56.8566 40.4163 56.6316C40.3893 56.4916 40.4443 56.2906 40.2043 56.2706Z" fill="#4BB7E0"/>
<path fill-rule="evenodd" clip-rule="evenodd" d="M19.7774 46.3209C19.7774 44.9879 19.7764 43.7529 19.7784 42.5179C19.7794 42.3339 19.6374 42.2779 19.5164 42.2069C17.0224 40.7659 14.5254 39.3289 12.0344 37.8829C11.7564 37.7209 11.7034 37.8149 11.7044 38.0809C11.7074 39.1759 11.7094 40.2719 11.7024 41.3669C11.7014 41.5669 11.7604 41.6959 11.9374 41.7979C14.5174 43.2829 17.0934 44.7719 19.7774 46.3209Z" fill="#151515"/>
<path fill-rule="evenodd" clip-rule="evenodd" d="M36.6299 23.3185V24.4345C36.6299 27.0145 36.6379 29.5945 36.6219 32.1745C36.6189 32.5315 36.7399 32.7195 37.0469 32.8875C38.0299 33.4265 38.9949 33.9985 39.9689 34.5575C40.0919 34.3755 40.0459 34.2095 40.0459 34.0545C40.0489 31.2815 40.0419 28.5075 40.0559 25.7345C40.0569 25.3995 39.9489 25.2175 39.6569 25.0565C38.6719 24.5135 37.7039 23.9385 36.6299 23.3185Z" fill="#151515"/>
<path fill-rule="evenodd" clip-rule="evenodd" d="M40.0468 86.6554C40.0468 83.6824 40.0448 80.7184 40.0518 77.7544C40.0518 77.5264 39.9508 77.4094 39.7658 77.3044C38.8408 76.7804 37.9188 76.2524 37.0028 75.7134C36.7328 75.5544 36.6228 75.5394 36.6248 75.9184C36.6368 78.7704 36.6318 81.6234 36.6298 84.4764C36.6298 84.6734 36.6338 84.8344 36.8508 84.9554C37.8488 85.5134 38.8348 86.0924 39.8248 86.6634C39.8808 86.6964 39.9368 86.7304 40.0468 86.6554Z" fill="#151515"/>
<path fill-rule="evenodd" clip-rule="evenodd" d="M61.0118 66.1705C60.9218 66.1295 60.8318 66.0875 60.7428 66.0465C60.6858 66.0145 60.6148 66.0245 60.5598 65.9965C60.4188 65.9225 60.2768 65.8945 60.1718 66.0335C60.0588 66.1845 60.1768 66.2995 60.2688 66.4105C60.2958 66.4435 60.3338 66.4755 60.2908 66.5535C60.0028 66.4685 59.9648 66.2555 59.9928 65.9995C60.0078 65.8575 60.1698 65.6985 59.9498 65.5795C59.0518 65.0525 58.1508 64.5305 57.2568 63.9965C56.9978 63.8415 56.8838 63.8555 56.8868 64.1915C56.8948 65.2725 56.8928 66.3525 56.8858 67.4315C56.8848 67.6485 56.9518 67.7905 57.1468 67.9015C59.6898 69.3565 62.2288 70.8165 64.7698 72.2755C65.0328 72.2865 64.9278 72.0795 64.9308 71.9675C64.9438 71.4695 64.9188 70.9695 64.9428 70.4715C64.9598 70.0925 64.8948 69.8545 64.3808 70.0435C64.5108 69.7625 64.7848 69.7265 64.8748 69.5215C64.9418 69.3725 65.0098 69.1855 64.8688 69.0765C64.7538 68.9865 64.6498 69.1495 64.5538 69.2295C64.1938 69.5315 63.8398 69.5885 63.5508 69.3935C63.1538 69.1245 63.1148 68.6085 63.4588 68.2725C63.5988 68.1355 63.8508 68.0805 63.8208 67.8095C63.7648 67.7695 63.7088 67.7295 63.6538 67.6885C63.2548 67.5425 63.0778 67.8555 62.8658 68.0795C62.6828 68.2745 62.5038 68.4395 62.1478 68.2145C62.5778 68.1545 62.8828 67.9995 63.0418 67.6425C63.1038 67.5065 63.0748 67.3975 62.9608 67.3065L62.9628 67.3075C62.7008 67.1215 62.4818 67.1195 62.2608 67.3995C62.0158 67.7085 61.6798 67.7425 61.3498 67.5405C61.0298 67.3445 60.8968 67.0505 61.0078 66.6705C61.0568 66.5055 61.1588 66.3375 61.0118 66.1705Z" fill="#151515"/>
<path fill-rule="evenodd" clip-rule="evenodd" d="M50.455 34.7809C50.447 34.8119 50.425 34.8649 50.434 34.8719C51.254 35.4679 50.787 36.2459 50.589 36.8589C50.076 38.4499 49.389 39.9909 48.59 41.4579C47.748 43.0049 46.988 44.5939 46.099 46.1159C45.496 47.1479 44.893 48.1849 44.334 49.2439C44.245 49.4109 44.101 49.5489 43.984 49.6999C43.444 49.9829 43.373 50.2289 43.743 50.6429C43.934 50.8569 44.062 51.0709 44.041 51.3669C44.03 51.5069 44.077 51.6319 44.268 51.5489C45.061 50.1919 45.867 48.8419 46.648 47.4769C48.449 44.3309 50.226 41.1709 51.705 37.8559C52.086 37.0029 52.445 36.1389 52.663 35.2259C52.704 35.0539 52.742 34.8799 52.764 34.7039C52.862 33.9029 52.679 33.7639 51.925 34.0619C51.416 34.2629 50.921 34.4909 50.455 34.7809Z" fill="#174AA5"/>
<path fill-rule="evenodd" clip-rule="evenodd" d="M38.9454 46.8844C39.5624 46.6314 39.7174 46.3934 39.7174 45.6774C39.7204 43.3114 39.7214 40.9444 39.7224 38.5784C39.4574 37.5404 38.7414 36.9104 37.8024 36.5004C37.4644 36.3524 37.1224 36.3614 36.7974 36.5964C36.5034 36.8104 36.2014 37.0344 35.8694 37.1724C35.3024 37.4064 35.1644 37.8684 35.1594 38.3864C35.1464 39.6414 35.1694 40.8954 35.1774 42.1504C35.5134 42.1564 35.4554 41.9114 35.4554 41.7094C35.4574 40.5964 35.4554 39.4834 35.4574 38.3704C35.4574 38.0514 35.4154 37.6764 35.7614 37.5244C36.1624 37.3484 36.5354 37.4404 36.9164 37.7224C37.5484 38.1924 37.9464 38.7924 38.2164 39.5124C38.3134 39.7724 38.2594 40.0174 38.2654 40.2704C38.2954 41.5404 38.2534 42.8114 38.2704 44.0824C38.2764 44.5354 38.5204 45.0404 38.1854 45.4994C38.1304 45.5754 38.2354 45.7714 38.2664 45.9114C38.2674 45.9434 38.2704 45.9764 38.2854 46.0044C38.5934 46.5854 38.5564 46.6774 37.9294 46.8714C37.8094 46.9084 37.6464 46.9164 37.6554 47.0844C37.6654 47.2764 37.8254 47.2854 37.9774 47.2754C38.0734 47.3414 38.1684 47.4064 38.2624 47.4724C38.5544 47.3504 38.7584 47.1274 38.9454 46.8844Z" fill="#1949A4"/>
<path fill-rule="evenodd" clip-rule="evenodd" d="M57.8917 44.8062C57.8367 44.1642 57.5257 43.6062 56.9417 43.2132C56.6657 43.0282 56.3747 43.0222 56.0767 43.1972C54.9937 43.8322 53.9067 44.4592 52.8217 45.0902C52.7657 45.1222 52.7067 45.1522 52.6587 45.1932C52.2967 45.4972 52.3477 46.2362 52.7717 46.8832C53.1817 47.5092 53.7107 47.7702 54.1597 47.5182C55.2957 46.8792 56.4167 46.2132 57.5477 45.5652C57.8277 45.4052 57.8807 45.1512 57.8917 44.8062Z" fill="#151515"/>
<path fill-rule="evenodd" clip-rule="evenodd" d="M52.9738 81.6168C52.9598 81.8938 53.0788 82.1908 53.2428 82.4738C54.2308 84.1928 55.2198 85.9108 56.2108 87.6278C56.4088 87.9698 56.6658 88.2578 57.0348 88.4198C57.4668 88.6088 57.8108 88.4128 57.8748 87.9438C57.9308 87.5428 57.8128 87.1758 57.6158 86.8338C56.6338 85.1298 55.6488 83.4278 54.6668 81.7238C54.5038 81.4398 54.3078 81.1888 54.0338 81.0048C53.7938 80.8458 53.5338 80.7568 53.2588 80.8878C52.9798 81.0218 52.9798 81.2958 52.9738 81.6168Z" fill="#151515"/>
<path fill-rule="evenodd" clip-rule="evenodd" d="M18.7881 65.2457C18.8301 65.9317 19.1451 66.4727 19.6921 66.8727C19.9721 67.0777 20.2801 67.0957 20.5981 66.9087C21.4981 66.3787 22.4101 65.8657 23.3091 65.3317C23.8051 65.0377 23.8431 64.3687 23.4271 63.6587C22.9921 62.9147 22.4421 62.6387 21.9271 62.9297C21.0161 63.4427 20.1191 63.9787 19.2091 64.4937C18.9041 64.6647 18.7741 64.9067 18.7881 65.2457Z" fill="#151515"/>
<path fill-rule="evenodd" clip-rule="evenodd" d="M23.5488 28.3307C23.5578 27.8797 23.3908 27.5477 23.2058 27.2267C22.3088 25.6637 21.4078 24.1017 20.5048 22.5427C20.2928 22.1757 20.0378 21.8467 19.6218 21.6847C19.1908 21.5177 18.8448 21.7207 18.7958 22.1827C18.7528 22.5817 18.8678 22.9497 19.0648 23.2907C19.9908 24.9027 20.9228 26.5117 21.8518 28.1227C22.0158 28.4057 22.2258 28.6437 22.4948 28.8317C22.7358 28.9997 23.0008 29.0747 23.2668 28.9377C23.5278 28.8037 23.5688 28.5387 23.5488 28.3307Z" fill="#151515"/>
<path fill-rule="evenodd" clip-rule="evenodd" d="M40.2041 56.2706C40.3821 56.6886 40.3011 57.1696 40.5311 57.6586C41.0271 56.8806 41.4901 56.1546 41.9531 55.4296C42.5961 54.3546 43.2391 53.2796 43.8831 52.2056C43.9831 51.9756 43.8131 51.9456 43.6711 51.9606C43.3851 51.9916 43.0941 51.9196 42.8131 52.0146C42.6101 52.0326 42.5881 52.2146 42.5081 52.3466C41.8501 53.4396 41.1871 54.5296 40.5371 55.6266C40.4151 55.8336 40.1121 55.9526 40.2041 56.2706Z" fill="#164BA2"/>
<path fill-rule="evenodd" clip-rule="evenodd" d="M42.8136 52.0147C43.0836 52.1607 43.3696 52.1507 43.6486 52.0737C43.7986 52.0317 43.8536 52.0737 43.8826 52.2047C44.0486 52.0087 44.2016 51.8047 44.2676 51.5487C44.0926 51.5187 44.1486 51.4027 44.1636 51.2917C44.1916 51.0777 44.1536 50.8907 43.9916 50.7167C43.5406 50.2327 43.5476 50.2257 43.9836 49.6997C43.9756 49.5367 43.9766 49.3597 43.7646 49.3257C43.5946 49.2977 43.5116 49.4357 43.4236 49.5507C43.3956 49.5887 43.3796 49.6377 43.3486 49.6737C43.1956 49.8567 43.0506 50.1747 42.8796 50.1897C42.5666 50.2167 42.7876 49.7977 42.6026 49.6437C42.5076 49.5657 42.4726 49.4077 42.3736 49.3467C42.1886 49.2337 41.9906 49.0387 41.7596 49.1557C41.5516 49.2617 41.6746 49.5027 41.6526 49.6837C41.6406 49.7787 41.6616 49.8777 41.6496 49.9727C41.6296 50.1217 41.7426 50.3387 41.5636 50.4067C41.3876 50.4737 41.3666 50.2437 41.2896 50.1357C41.2266 50.0477 41.1656 49.9737 41.0636 50.0667C40.9546 50.1647 40.9366 50.3087 41.0126 50.4187C41.2186 50.7147 41.4666 50.9987 41.8686 50.9437C42.2346 50.8947 42.3666 50.9977 42.3666 51.3727C42.3666 51.6607 42.5776 51.8607 42.8136 52.0147Z" fill="#4788CB"/>
<path fill-rule="evenodd" clip-rule="evenodd" d="M63.8205 67.8092C63.7705 67.9212 63.6655 67.9632 63.5675 68.0212C63.2265 68.2222 62.9965 68.4912 63.0885 68.9222C63.1595 69.2562 63.3405 69.5432 63.6755 69.6212C64.0895 69.7182 64.4825 69.6452 64.7175 69.2202C64.7385 69.1832 64.7825 69.1582 64.8335 69.1102C64.9365 69.3492 64.8365 69.4912 64.6635 69.6012C64.5685 69.6622 64.4575 69.6982 64.3665 69.7622C64.2555 69.8422 64.0815 69.9142 64.1665 70.0932C64.2475 70.2612 64.4065 70.2352 64.5405 70.1512C64.8345 69.9692 64.9105 70.1012 64.8825 70.3812C64.8175 71.0112 65.0265 71.6572 64.7695 72.2752C64.9535 72.4302 64.9815 72.3092 64.9825 72.1522C64.9825 70.9762 64.9815 69.8002 64.9835 68.6232C64.9835 68.4992 64.9455 68.4072 64.8315 68.3472C64.4935 68.1692 64.1575 67.9892 63.8205 67.8092Z" fill="#4B4B4B"/>
<path fill-rule="evenodd" clip-rule="evenodd" d="M35.1426 49.7853C35.1566 49.8873 35.1686 49.9893 35.1826 50.0923C35.3256 49.8863 35.2566 49.6543 35.2576 49.4343C35.2656 48.3883 35.2706 47.3413 35.2546 46.2953C35.2496 45.9963 35.3296 45.7713 35.5526 45.5733C35.6946 45.4473 35.8046 45.2833 35.9136 45.1253C36.4966 44.2853 36.1876 43.5793 35.1636 43.4023C35.1566 45.5303 35.1496 47.6583 35.1426 49.7853Z" fill="#4177C5"/>
<path fill-rule="evenodd" clip-rule="evenodd" d="M61.0117 66.1705C60.9807 66.2935 60.9597 66.4195 60.9157 66.5365C60.7507 66.9845 60.8637 67.4025 61.2197 67.6435C61.5857 67.8915 62.1237 67.8655 62.3747 67.4745C62.5667 67.1775 62.7427 67.2735 62.9627 67.3075C62.7847 67.0855 62.5177 67.0325 62.2717 66.9365C62.2117 66.9615 62.1527 66.9865 62.1097 67.0365C61.9197 67.2575 61.7067 67.3835 61.4637 67.1255C61.2117 66.8585 61.4727 66.7035 61.6187 66.5275C61.4157 66.4085 61.2137 66.2895 61.0117 66.1705Z" fill="#4B4B4B"/>
<path fill-rule="evenodd" clip-rule="evenodd" d="M62.961 67.3062C62.972 67.7652 62.721 68.0212 62.269 68.0092C62.154 68.0052 62.033 67.9862 62.001 68.1392C61.975 68.2682 62.033 68.3622 62.151 68.4082C62.419 68.5112 62.662 68.5542 62.876 68.2662C63.071 68.0042 63.259 67.6972 63.653 67.6882C63.423 67.5612 63.191 67.4332 62.961 67.3062Z" fill="#4B4B4B"/>
<path fill-rule="evenodd" clip-rule="evenodd" d="M61.6191 66.5279C61.4171 66.5419 61.2321 66.5689 61.2151 66.8359C61.1971 67.1029 61.3431 67.2709 61.5511 67.3709C61.7311 67.4569 61.9351 67.4459 62.0761 67.2669C62.1541 67.1669 62.2071 67.0479 62.2711 66.9369C62.0251 66.8459 61.8861 66.5859 61.6191 66.5279Z" fill="#181818"/>
<path fill-rule="evenodd" clip-rule="evenodd" d="M59.9502 65.5792C60.0032 65.8162 59.7932 66.0012 59.8402 66.2532C59.8942 66.5462 60.0752 66.6482 60.3182 66.7132C60.4022 66.7352 60.4772 66.7232 60.5212 66.6372C60.5572 66.5662 60.6082 66.4912 60.5322 66.4192C60.4222 66.3152 60.1122 66.3352 60.2492 66.0832C60.3492 65.8982 60.5782 66.1202 60.7432 66.0472C60.5002 65.8542 60.2492 65.6762 59.9502 65.5792Z" fill="#4F4F4F"/>
<path fill-rule="evenodd" clip-rule="evenodd" d="M70.6523 75.0123C70.9343 74.9593 71.1973 74.8703 71.1753 74.5143C71.1583 74.2233 71.0563 73.9823 70.6923 73.9963C70.3533 74.0103 70.1543 74.1843 70.1303 74.5173C70.1033 74.8753 70.3723 74.9593 70.6523 75.0123Z" fill="#2F72BB"/>
<path fill-rule="evenodd" clip-rule="evenodd" d="M75.3486 78.0401C75.3446 77.6281 75.1666 77.4911 74.8326 77.4771C74.4826 77.4621 74.3016 77.6371 74.2986 77.9511C74.2956 78.2371 74.4266 78.5241 74.7566 78.5281C75.0866 78.5311 75.3436 78.3601 75.3486 78.0401Z" fill="#3171BB"/>
<path fill-rule="evenodd" clip-rule="evenodd" d="M38.9455 46.8844C38.6545 47.0064 38.4155 47.1884 38.2625 47.4714C38.2675 48.3814 38.4705 48.5814 39.3955 48.5554C39.6245 48.5494 39.6185 48.6864 39.6175 48.8354C39.6175 49.2464 39.8005 49.5434 40.1795 49.7014C40.4665 49.8224 40.2925 49.9334 40.1865 50.0484C40.0645 50.1814 39.9095 50.3234 40.1055 50.4934C40.2985 50.6614 40.4545 50.4974 40.5435 50.3554C40.8495 49.8714 41.4635 49.5644 41.3735 48.8474C41.3115 48.3524 41.0375 48.0354 40.5415 48.0544C40.1785 48.0684 39.9845 48.0234 39.9885 47.5774C39.9925 47.1604 39.5215 46.8894 38.9455 46.8844Z" fill="#468CCF"/>
<path fill-rule="evenodd" clip-rule="evenodd" d="M37.9775 47.2755C37.8915 47.2145 37.8045 47.1545 37.6595 47.0525C38.0835 46.9575 38.5505 46.9965 38.6365 46.4785C38.6845 46.1865 38.4595 46.0545 38.2665 45.9115C38.1525 45.9445 37.9825 45.8515 37.9295 46.0115C37.8825 46.1495 38.0435 46.1765 38.1225 46.2485C38.1645 46.2885 38.2175 46.3525 38.2125 46.4005C38.2035 46.5015 38.1045 46.4975 38.0265 46.5005C37.8975 46.5045 37.7635 46.4805 37.6425 46.5115C37.3905 46.5755 37.2225 46.7365 37.2025 47.0125C37.1825 47.2785 37.3515 47.4425 37.5605 47.5295C37.7735 47.6185 37.9855 47.5985 37.9775 47.2755Z" fill="#457DCF"/>
<path fill-rule="evenodd" clip-rule="evenodd" d="M36.1006 46.1113C36.2796 46.1293 36.3856 46.0033 36.5056 45.8943C36.7396 45.6813 36.9276 45.4313 37.2376 45.2853C37.4736 45.1743 37.4546 44.8483 37.4686 44.5963C37.4736 44.5023 37.3536 44.4483 37.2936 44.4943C37.1096 44.6343 36.9166 44.6013 36.7106 44.5913C36.5956 44.5863 36.5356 44.6903 36.5696 44.8373C36.6546 45.2083 36.3616 45.6533 36.0086 45.7263C35.8936 45.7503 35.6636 45.6373 35.7096 45.8893C35.7416 46.0563 35.9156 46.1233 36.1006 46.1113Z" fill="#427FD2"/>
<path fill-rule="evenodd" clip-rule="evenodd" d="M36.7901 46.8897C36.8491 46.8517 36.9271 46.8227 36.9771 46.7667C37.2581 46.4597 37.5331 46.1477 37.8051 45.8327C37.9041 45.7177 37.8921 45.5917 37.7731 45.4947C37.6711 45.4107 37.5541 45.4267 37.4701 45.5197C37.1831 45.8407 36.8941 46.1617 36.6261 46.4987C36.4861 46.6747 36.5271 46.8267 36.7901 46.8897Z" fill="#467FD0"/>
<path fill-rule="evenodd" clip-rule="evenodd" d="M42.8116 51.2374C42.8206 51.5434 42.9576 51.7984 43.2746 51.7974C43.5716 51.7974 43.8336 51.6604 43.7926 51.2594C43.7666 50.9984 43.7876 50.6934 43.4246 50.7174C43.1316 50.7374 42.7886 50.7934 42.8116 51.2374Z" fill="#1F59A4"/>
<path fill-rule="evenodd" clip-rule="evenodd" d="M63.4455 68.7394C63.4325 69.1904 63.7205 69.2664 64.0165 69.2954C64.3415 69.3274 64.4765 69.1004 64.4905 68.8244C64.5075 68.4554 64.2245 68.3144 63.9285 68.3004C63.6365 68.2854 63.4885 68.5124 63.4455 68.7394Z" fill="#171717"/>
<path fill-rule="evenodd" clip-rule="evenodd" d="M40.0039 48.8722C40.0069 49.2452 40.1709 49.4132 40.5069 49.4062C40.8259 49.3992 41.0469 49.2292 41.0509 48.9242C41.0549 48.6282 40.8159 48.3912 40.5469 48.3742C40.2479 48.3552 40.0089 48.5532 40.0039 48.8722Z" fill="#1F6CB4"/>
<path fill-rule="evenodd" clip-rule="evenodd" d="M39.0087 47.2716C38.7717 47.2956 38.5507 47.3476 38.6087 47.6666C38.6587 47.9526 38.7067 48.2736 39.1077 48.2356C39.4337 48.2056 39.6397 48.0056 39.6117 47.6606C39.5807 47.2976 39.3077 47.2546 39.0087 47.2716Z" fill="#236AB2"/>
</svg>
