<svg width="20" height="20" viewBox="0 0 20 20" fill="none" xmlns="http://www.w3.org/2000/svg">
<path d="M10 20C15.5228 20 20 15.5228 20 10C20 4.47715 15.5228 0 10 0C4.47715 0 0 4.47715 0 10C0 15.5228 4.47715 20 10 20Z" fill="#1890FF"/>
<path fill-rule="evenodd" clip-rule="evenodd" d="M5.77294 5.91857C6.77256 4.47568 8.04579 3.66663 10.0116 3.66663C12.102 3.66663 14.3333 5.30577 14.3333 7.46663C14.3333 9.25116 13.14 9.94292 12.2377 10.466C11.6892 10.784 11.2482 11.0396 11.2482 11.4405V11.5833C11.2482 11.9112 10.9836 12.177 10.6571 12.177H8.87235C8.54591 12.177 8.28128 11.9112 8.28128 11.5833V11.3411C8.28128 9.84812 9.38114 9.22985 10.245 8.74422C10.2662 8.73231 10.2872 8.72049 10.3081 8.70873C11.0562 8.28741 11.5147 8.00088 11.5147 7.44295C11.5147 6.70492 10.5776 6.2151 9.81993 6.2151C8.85631 6.2151 8.39871 6.66209 7.7818 7.43845C7.5818 7.69015 7.21832 7.73564 6.96286 7.54107L5.90046 6.73186C5.64751 6.53919 5.5916 6.18032 5.77294 5.91857ZM8.05875 14.6196C8.05875 13.6746 8.82406 12.9058 9.76474 12.9058C10.7054 12.9058 11.4707 13.6746 11.4707 14.6196C11.4707 15.5645 10.7054 16.3333 9.76474 16.3333C8.82406 16.3333 8.05875 15.5645 8.05875 14.6196Z" fill="white"/>
<mask id="mask0" mask-type="alpha" maskUnits="userSpaceOnUse" x="5" y="3" width="10" height="14">
<path fill-rule="evenodd" clip-rule="evenodd" d="M5.77294 5.91857C6.77256 4.47568 8.04579 3.66663 10.0116 3.66663C12.102 3.66663 14.3333 5.30577 14.3333 7.46663C14.3333 9.25116 13.14 9.94292 12.2377 10.466C11.6892 10.784 11.2482 11.0396 11.2482 11.4405V11.5833C11.2482 11.9112 10.9836 12.177 10.6571 12.177H8.87235C8.54591 12.177 8.28128 11.9112 8.28128 11.5833V11.3411C8.28128 9.84812 9.38114 9.22985 10.245 8.74422C10.2662 8.73231 10.2872 8.72049 10.3081 8.70873C11.0562 8.28741 11.5147 8.00088 11.5147 7.44295C11.5147 6.70492 10.5776 6.2151 9.81993 6.2151C8.85631 6.2151 8.39871 6.66209 7.7818 7.43845C7.5818 7.69015 7.21832 7.73564 6.96286 7.54107L5.90046 6.73186C5.64751 6.53919 5.5916 6.18032 5.77294 5.91857ZM8.05875 14.6196C8.05875 13.6746 8.82406 12.9058 9.76474 12.9058C10.7054 12.9058 11.4707 13.6746 11.4707 14.6196C11.4707 15.5645 10.7054 16.3333 9.76474 16.3333C8.82406 16.3333 8.05875 15.5645 8.05875 14.6196Z" fill="white"/>
</mask>
<g mask="url(#mask0)">
</g>
</svg>
