<svg width="130" height="130" viewBox="0 0 130 130" fill="none" xmlns="http://www.w3.org/2000/svg">
<path d="M9.87998 100.36C10.062 100.469 10.2544 100.573 10.4416 100.677L10.6288 100.781L11.0136 100.989L11.2476 101.109L11.6012 101.286L11.8508 101.41L12.194 101.572L12.4592 101.696L12.7972 101.847L13.0728 101.967L13.4108 102.118L13.6916 102.232L14.0348 102.372L14.3208 102.487L14.664 102.617L14.9604 102.726L15.3088 102.851L15.6 102.955L15.9588 103.08L16.2552 103.178L16.614 103.293L16.9104 103.386L17.2848 103.496L17.5812 103.584L17.9608 103.693L18.252 103.771L18.6472 103.88L18.928 103.953L19.3596 104.057L19.6144 104.12L20.1344 104.234L20.3216 104.276L20.722 104.359L20.9976 104.421L21.4344 104.504L21.684 104.551L22.2508 104.655H22.3704L23.062 104.77L23.6912 104.863H23.8888L24.336 104.926L24.5596 104.952L25.0016 105.004L25.2096 105.03H25.4488L26.1456 105.097H26.3848C26.6812 105.097 26.9724 105.149 27.2688 105.165H27.352L28.0904 105.206H28.3504H28.938H29.2136H29.77H31.85H32.37H32.6768H33.1136H33.436H33.8624H34.19L34.6008 105.175L34.9284 105.149L35.3392 105.118L35.6616 105.087L36.0568 105.045L36.3844 105.014L36.7796 104.967L37.102 104.931L37.4972 104.879L37.8144 104.832L38.22 104.775L38.5268 104.728L38.9428 104.66L39.2288 104.614L39.676 104.536L39.9308 104.489L40.638 104.354H40.6952L41.3348 104.218L41.5428 104.172L42.0628 104.057L42.3332 103.99L42.77 103.88L43.0404 103.813L43.4876 103.693L43.7684 103.615L44.2 103.49L44.4704 103.412L44.9904 103.246L45.188 103.184L45.916 102.939L46.02 102.903C46.2592 102.825 46.4932 102.736 46.7272 102.653L46.9404 102.57L47.6736 102.289L47.736 102.263L47.84 102.222L48.3028 102.029L48.4952 101.946L48.8644 101.79L49.0776 101.691L49.4208 101.535L49.634 101.431L49.9616 101.275L50.1904 101.161L50.5232 100.994L50.7312 100.885L51.09 100.693L51.2668 100.599L51.7868 100.303L52.2756 100.017L52.416 99.9336L52.754 99.7204L52.9048 99.6216L53.3 99.3668L53.3624 99.3252L53.8044 99.0184L53.924 98.93L54.236 98.7064L54.3764 98.6024C54.4804 98.5244 54.5844 98.4464 54.6832 98.3632L54.7872 98.2852L55.1824 97.968L55.2604 97.9004L55.562 97.6404L55.6868 97.5364L55.9468 97.3024L56.056 97.1984C56.1704 97.0944 56.2848 96.9852 56.3992 96.8708L56.732 96.5328L56.8308 96.434L57.0544 96.1896L57.1584 96.0752C57.2364 95.9868 57.3196 95.8984 57.3976 95.8048L57.46 95.732C57.5588 95.6176 57.6524 95.5032 57.746 95.3836C57.7646 95.3657 57.782 95.3466 57.798 95.3264L58.0268 95.0248L58.0788 94.9624L58.3232 94.6244L58.3752 94.5464L58.5884 94.2344L58.6144 94.1928C58.6924 94.0784 58.76 93.964 58.8328 93.8444L58.8796 93.7664L59.0876 93.4128C59.15 93.2932 59.2176 93.1736 59.2748 93.0592L59.3372 92.9292L59.462 92.6796C59.462 92.6276 59.5088 92.5808 59.5296 92.5288C59.5504 92.4768 59.6024 92.3728 59.6336 92.2948C59.6648 92.2168 59.6752 92.1908 59.7012 92.1388L59.8 91.8892C59.8116 91.852 59.8255 91.8155 59.8416 91.78C59.8832 91.6604 59.93 91.5408 59.9716 91.416C60.0132 91.2964 60.0496 91.1768 60.086 91.052L60.1172 90.948L60.1952 90.6516V90.5788C60.2264 90.4592 60.2524 90.3396 60.2784 90.22V90.142C60.2784 90.0328 60.32 89.9288 60.3356 89.8248C60.3381 89.8041 60.3381 89.7831 60.3356 89.7624C60.3356 89.6428 60.372 89.5232 60.3876 89.4036C60.3876 89.3776 60.3876 89.3516 60.3876 89.3256C60.3876 89.2008 60.3876 89.0812 60.424 88.9616V88.9304C60.424 88.8212 60.424 88.7068 60.424 88.5976C60.4267 88.563 60.4267 88.5282 60.424 88.4936C60.424 88.3688 60.424 88.2492 60.424 88.1244V96.3716C60.424 96.4964 60.424 96.6212 60.424 96.7408C60.4215 96.7754 60.4215 96.8102 60.424 96.8448C60.4214 96.8864 60.4214 96.928 60.424 96.9696V97.1776V97.24C60.424 97.3596 60.424 97.4844 60.3824 97.604C60.3824 97.604 60.3824 97.656 60.3824 97.682L60.3356 98.0096V98.0408C60.3331 98.0615 60.3331 98.0825 60.3356 98.1032C60.3356 98.2072 60.2992 98.3112 60.2784 98.4204C60.2807 98.4463 60.2807 98.4724 60.2784 98.4984C60.2784 98.618 60.2264 98.7376 60.2004 98.8572C60.2004 98.8572 60.2004 98.904 60.2004 98.93C60.2004 98.956 60.2004 99.0392 60.1588 99.0912C60.1172 99.1432 60.1588 99.1796 60.1224 99.2264L60.0912 99.3356L59.982 99.6944C59.9404 99.8192 59.8988 99.9388 59.852 100.064C59.852 100.095 59.852 100.131 59.8104 100.168C59.7953 100.214 59.778 100.259 59.7584 100.303L59.7116 100.417L59.6492 100.573C59.6128 100.651 59.5764 100.729 59.5452 100.807C59.514 100.885 59.4984 100.906 59.4776 100.958L59.3528 101.213L59.2904 101.338C59.228 101.457 59.1656 101.577 59.098 101.691L58.8952 102.04L58.8432 102.123C58.7756 102.237 58.7028 102.352 58.63 102.466L58.5988 102.508L58.3856 102.825L58.3336 102.898C58.2556 103.012 58.1724 103.121 58.0892 103.236L58.0424 103.298L57.8084 103.6L57.7616 103.662V103.693L57.5016 104.005L57.434 104.078L57.1948 104.354L57.096 104.463C57.0232 104.546 56.9452 104.624 56.8672 104.707L56.7684 104.806C56.6592 104.92 56.55 105.035 56.4356 105.144L56.0924 105.472L55.9832 105.57L55.7232 105.804L55.6036 105.908L55.302 106.168L55.2188 106.236L54.8288 106.553C54.7919 106.578 54.7571 106.606 54.7248 106.636L54.4128 106.87L54.2776 106.974L53.9656 107.198L53.8408 107.286L53.404 107.593L53.3364 107.635L52.9412 107.895L52.7956 107.988L52.6292 108.092L52.4524 108.202L52.312 108.285L51.8284 108.571C51.6568 108.675 51.48 108.768 51.3084 108.867L51.1316 108.961C51.0172 109.028 50.8976 109.091 50.778 109.153L50.5648 109.262L50.2372 109.429L50.0084 109.543L49.8108 109.637L49.6808 109.699L49.4624 109.803L49.1192 109.959L48.906 110.058L48.542 110.214L48.3444 110.302L47.8868 110.49L47.7776 110.536H47.7308L47.0028 110.822L46.7844 110.9L46.0824 111.15L45.9992 111.181L45.2764 111.42L45.0736 111.483L44.5536 111.649L44.4444 111.686L44.2832 111.727L43.8516 111.852L43.5656 111.93L43.1236 112.05L42.9364 112.096H42.848L42.4112 112.2L42.146 112.268L41.626 112.382L41.444 112.424L40.7992 112.559H40.742L40.04 112.694L39.806 112.736C39.6552 112.762 39.5096 112.793 39.3588 112.814L39.0676 112.866L38.6516 112.928H38.5996L38.3448 112.965L37.9444 113.027L37.6272 113.069L37.2268 113.121H37.1436L36.9044 113.147L36.5092 113.194L36.1816 113.225L35.7916 113.266H35.672H35.464L35.0532 113.298H34.7256L34.3148 113.329H34.1484H33.9924H33.5608H33.2436H32.8068H32.5884H32.344H31.824H29.744H29.1928H29.12H28.964H28.3764H28.1164H27.5H27.3135H26.7109H26.2469H25.9194H25.5H25.3131H25H24.6912L24.3724 113.308L23.9252 113.246L23.7276 113.22L23.0984 113.126L22.4068 113.012H22.2872L21.7204 112.908L21.4708 112.861L21.0392 112.778L21.3753 112.842L20.9014 112.749L20.5 112.632L20 112.5L19.396 112.32L18.9696 112.216L18.6888 112.143L18.2884 112.039L17.9972 111.956L17.6176 111.847L17.3212 111.758L16.952 111.649L16.6556 111.556L16.2916 111.441L15.9952 111.342L15.6416 111.218L15.3452 111.114L14.9968 110.989L14.7056 110.88L14.3624 110.75L14.0712 110.635L13.7332 110.495L13.4524 110.38L13.1092 110.235L12.8388 110.11L12.4956 109.959L12.2304 109.834L11.8872 109.673L11.6376 109.548L11.284 109.372L11.0552 109.252C10.9252 109.184 10.7952 109.117 10.6704 109.044L10.478 108.945L9.91638 108.623C4.19638 105.3 1.33118 100.948 1.31558 96.59V88.3376C1.30518 92.6744 4.15998 97.0268 9.87998 100.36Z" fill="#B5942F"/>
<path d="M10.0308 76.1072C-1.55997 82.8048 -1.62757 93.6572 9.88003 100.36C21.3876 107.063 40.1336 107.058 51.7296 100.36C63.3256 93.6624 63.388 82.8152 51.87 76.1176C40.352 69.42 21.6268 69.4148 10.0308 76.1072Z" fill="#EFCD3F"/>
<path d="M6.62476 88.2285C6.62476 91.9829 9.10516 95.5084 13.676 98.1656C18.2468 100.823 24.3256 102.284 30.836 102.284C37.3464 102.284 43.42 100.823 47.996 98.1656C52.572 95.5084 55.1356 91.9829 55.1564 88.2285C55.1772 84.4741 52.676 80.9485 48.1052 78.2913C43.5344 75.6341 37.44 74.1729 30.966 74.1729C24.492 74.1729 18.3872 75.6393 13.806 78.2913C9.22476 80.9433 6.64556 84.4741 6.62476 88.2285ZM14.8928 78.9361C23.7692 73.8089 38.168 73.8089 46.9872 78.9361C55.8064 84.0633 55.7596 92.3989 46.8832 97.5261C38.0068 102.653 23.608 102.648 14.7888 97.5261C5.96956 92.4041 6.01636 84.0581 14.8928 78.9361Z" fill="#F8EECF"/>
<path d="M14.6848 87.88L19.162 88.8108C19.7946 87.3925 20.7552 86.1448 21.9648 85.1708L27.3728 88.2908C25.2928 90.5528 23.0932 93.0956 27.1284 95.4044C30.368 97.292 35.0324 97.0684 39.2028 95.1652L43.3212 97.5624L45.9212 96.07L41.8288 93.6884C44.4288 91.9256 45.8068 89.7 45.9888 87.6148L41.5064 86.7464C41.3925 87.7436 41.0736 88.7064 40.5698 89.5744C40.066 90.4424 39.3881 91.1969 38.5788 91.7904L32.7028 88.4C34.7828 86.1952 36.8628 83.72 32.9784 81.4736C29.8584 79.6588 25.3656 79.8408 21.2524 81.744L17.3992 79.5028L14.7992 80.9952L18.6368 83.2C16.6088 84.63 15.2204 86.32 14.6848 87.88ZM30.9036 90.3552L35.932 93.2776C34.0808 93.9744 32.3804 94.0056 31.1532 93.2776C29.7804 92.4924 30.0508 91.4888 30.9036 90.35V90.3552ZM24.4972 83.6316C26.1092 82.966 27.664 82.8828 28.7768 83.5276C30.0612 84.2764 29.8792 85.2228 29.0836 86.294L24.4972 83.6316Z" fill="#F8EECF"/>
<path d="M119.6 46.7428L119.012 47.0496L118.815 47.1484L118.414 47.3408L118.17 47.4552L117.801 47.6268L117.536 47.7412L117.182 47.8972L116.901 48.0168L116.548 48.1624L116.262 48.2716L115.908 48.412L115.617 48.5212L115.258 48.6512L114.962 48.7552L114.603 48.88L114.296 48.9788L113.932 49.0932L113.625 49.192L113.261 49.3012L112.949 49.3896L112.575 49.4988L112.268 49.582L111.883 49.6808L111.576 49.7588L111.181 49.8576L110.874 49.9304L110.464 50.0188L110.172 50.0864L109.73 50.1748L109.465 50.232L108.945 50.3308L108.753 50.3672L108.337 50.44L108.051 50.4868L107.604 50.5596L107.344 50.6012L106.761 50.6844H106.636L105.919 50.7728L105.269 50.8456H105.066L104.603 50.8924H104.369L103.917 50.9288H103.704H103.459L102.742 50.9756H102.492L101.587 51.0172H101.494C101.244 51.0172 100.974 51.0172 100.734 51.0172H98.7636H97.9472H97.838L97.1672 50.986H96.902L96.382 50.9548H96.07L95.628 50.96L95.3004 50.934L94.8636 50.8924L94.5308 50.8612L94.1096 50.8144L93.7768 50.778L93.3556 50.726L93.0228 50.6844L92.6172 50.6272L92.2844 50.5804L91.8788 50.518L91.5512 50.466L91.1456 50.3984L90.8232 50.3412L90.4072 50.2632L90.0952 50.206L89.674 50.1228L89.3776 50.0604L88.92 49.972L88.66 49.9148C88.4208 49.8576 88.1816 49.8056 87.9424 49.7432H87.8852L87.23 49.5768L87.0168 49.5196L86.4968 49.3844L86.2264 49.3064L85.7844 49.1816L85.5036 49.0984L85.0512 48.958L84.76 48.88L84.3232 48.7344L84.0476 48.646L83.4912 48.4536L83.2936 48.3808L82.5552 48.1052L82.446 48.0636L81.7336 47.7776L81.5152 47.6892L80.7768 47.372L80.7144 47.3408L80.6052 47.294L80.1424 47.0808L79.9396 46.9872L79.5756 46.8104L79.3572 46.7012L79.014 46.5296L78.7956 46.4152L78.4628 46.2384L78.234 46.1136C78.1196 46.0564 78.0104 45.994 77.9012 45.9316L77.688 45.812L77.3292 45.5988C77.2685 45.5672 77.2094 45.5325 77.1524 45.4948L76.6324 45.1724L76.1436 44.8604L76.0032 44.7668L75.66 44.538L75.5092 44.434L75.114 44.1532L75.0516 44.1064L74.6096 43.7788L74.49 43.6852L74.178 43.4408L74.0376 43.3264L73.7308 43.0716L73.6268 42.9884L73.2368 42.6452L73.1588 42.5724C73.0548 42.484 72.956 42.3904 72.8572 42.2968C72.8148 42.2614 72.7748 42.2231 72.7376 42.1824L72.4776 41.9328L72.3684 41.8236L72.0252 41.4752C71.9108 41.3608 71.8016 41.2412 71.6924 41.1216L71.5988 41.0124L71.37 40.7524C71.3388 40.716 71.3076 40.6744 71.2712 40.638L71.0372 40.3468L70.9748 40.2688C70.876 40.1492 70.7824 40.0244 70.694 39.9048L70.6472 39.8372C70.5692 39.7332 70.4912 39.6292 70.4184 39.52L70.3716 39.4524C70.2884 39.338 70.2104 39.2184 70.1324 39.0988L70.0804 39.0208L69.8724 38.688C69.8749 38.6742 69.8749 38.6601 69.8724 38.6464L69.6644 38.2824L69.6176 38.194C69.55 38.0744 69.4824 37.9496 69.42 37.8248L69.238 37.4556L69.1808 37.3204C69.1392 37.232 69.0976 37.1436 69.0612 37.0552L68.9988 36.9044C68.9624 36.8212 68.9312 36.738 68.9 36.6548L68.8376 36.4936L68.744 36.2336C68.7342 36.1964 68.722 36.16 68.7076 36.1244C68.666 35.9944 68.6244 35.8696 68.588 35.7396C68.5516 35.6148 68.5152 35.49 68.484 35.3652C68.484 35.3288 68.484 35.2924 68.458 35.2508C68.432 35.2092 68.4112 35.048 68.3852 34.944V34.8764C68.3852 34.7516 68.3384 34.6268 68.3176 34.502V34.4188L68.2708 34.0912C68.2729 34.0687 68.2729 34.0461 68.2708 34.0236C68.2708 33.904 68.2708 33.7792 68.2344 33.6544C68.2344 33.6284 68.2344 33.6024 68.2344 33.5764C68.2344 33.4516 68.2344 33.3268 68.2084 33.202V33.1708C68.2084 33.0564 68.2084 32.942 68.2084 32.8276C68.2059 32.793 68.2059 32.7582 68.2084 32.7236C68.2084 32.5936 68.2084 32.4688 68.2084 32.344L67.8704 40.8096C67.8704 40.9344 67.8704 41.0644 67.8704 41.1892V41.4232C67.8704 41.4908 67.8704 41.5636 67.8704 41.6364V41.6C67.8704 41.7248 67.8704 41.8496 67.8964 41.9744C67.8964 41.9744 67.8964 42.0316 67.8964 42.0576C67.8964 42.1668 67.8964 42.2812 67.9328 42.3956V42.4268C67.9328 42.4268 67.9328 42.4684 67.9328 42.4944L67.9796 42.8168V42.9C67.9796 43.0248 68.0264 43.1496 68.0524 43.2744V43.3472C68.0524 43.4044 68.0524 43.4616 68.0888 43.5188L68.12 43.68C68.1311 43.7158 68.1398 43.7522 68.146 43.7892C68.1824 43.914 68.2136 44.0388 68.25 44.1636C68.2916 44.2884 68.328 44.4184 68.3696 44.5432L68.4112 44.6524L68.458 44.7928L68.5048 44.9176C68.5048 44.9696 68.5412 45.0268 68.562 45.0788C68.5828 45.1308 68.6296 45.24 68.6608 45.3232L68.7232 45.4792L68.8428 45.7444C68.8428 45.786 68.8792 45.8276 68.9 45.8744C68.9208 45.9212 69.0196 46.124 69.082 46.2488C69.1444 46.3736 69.212 46.4932 69.2796 46.618L69.3264 46.7012C69.394 46.8208 69.4616 46.9456 69.5344 47.0652L69.5656 47.1068C69.628 47.2212 69.7008 47.3304 69.7684 47.4396L69.8204 47.5176C69.8984 47.6372 69.9764 47.7568 70.0596 47.8764L70.1064 47.944L70.3352 48.2612L70.382 48.3236L70.408 48.3548L70.6628 48.6928L70.7252 48.7708L70.9592 49.0568L71.0632 49.1764C71.136 49.2596 71.2088 49.348 71.2868 49.4312L71.3804 49.5404L71.7132 49.8992L72.0512 50.2476L72.1604 50.3516C72.2436 50.44 72.332 50.5232 72.4204 50.6064L72.54 50.7208L72.8416 50.9964L72.9196 51.0692C73.0444 51.1836 73.1796 51.2928 73.3096 51.4072L73.4136 51.4956C73.5176 51.5788 73.6164 51.6672 73.7256 51.7504L73.8608 51.8596L74.1728 52.104L74.2924 52.1976L74.7344 52.5304L74.7968 52.572L75.192 52.8528L75.3428 52.9568L75.5092 53.0712L75.686 53.1908L75.8264 53.2844L76.3152 53.5964L76.8352 53.9188L77.012 54.0228L77.3708 54.2308L77.584 54.3504L77.9168 54.5376L78.1456 54.6572L78.3432 54.7664L78.4784 54.834L78.6968 54.9484L79.04 55.12L79.2584 55.2292L79.6276 55.406L79.8252 55.4996L80.288 55.7128L80.3972 55.7648H80.444L81.1824 56.082L81.4008 56.1704L82.1132 56.4564L82.1964 56.4928L82.9348 56.7684L83.1376 56.8412L83.6888 57.0336L83.798 57.0752L83.9644 57.1272L84.4012 57.2676L84.6872 57.3612L85.1396 57.4964L85.332 57.5588H85.4204L85.8624 57.6888L86.1328 57.7668L86.6528 57.902L86.8348 57.9488L87.49 58.11H87.5472L88.2648 58.2764L88.504 58.3284L88.9616 58.4272L89.258 58.4844L89.6792 58.5728H89.7312L89.9912 58.6196L90.4072 58.6924L90.7296 58.7496L91.1352 58.8172H91.2236L91.4628 58.8536L91.8684 58.916L92.2012 58.9628L92.6068 59.02H92.7264H92.9396L93.3608 59.072L93.6936 59.1084L94.1148 59.1552H94.2864H94.4476L94.8896 59.1968L95.212 59.228L95.6644 59.2592H95.8828H95.9764C96.1497 59.2592 96.323 59.2696 96.4964 59.2904C96.5848 59.2904 96.6732 59.2904 96.7668 59.2904C96.9921 59.2904 97.2157 59.3008 97.4376 59.3216H97.5468H98.358H100.329H101.088H101.182L102.086 59.2852H102.336L103.054 59.2436H103.204H103.298H103.516L103.964 59.2072H104.198L104.66 59.1656H104.863L105.513 59.0928L106.231 58.9992H106.356L106.938 58.916L107.198 58.8744L107.645 58.8068L107.931 58.7548L108.347 58.682L108.524 58.6508L109.044 58.5468L109.309 58.4948L109.751 58.4012L110.042 58.3388L110.458 58.2452L110.76 58.1724L111.155 58.0788L111.462 58.0008L111.847 57.8968L112.154 57.8136L112.528 57.7096L112.84 57.616L113.209 57.5068L113.516 57.4132L113.875 57.2936L114.182 57.1948L114.54 57.07L114.837 56.966L115.196 56.836L115.487 56.7268L115.84 56.5916L116.126 56.4772L116.485 56.3316L116.761 56.2172L117.12 56.0612L117.38 55.9416L117.749 55.7752L117.993 55.6608L118.394 55.4632L118.591 55.3644L119.184 55.0628C125.278 52 128.383 47.6528 128.565 43.16L128.903 34.6892C128.721 39.1872 125.616 43.5448 119.6 46.7428Z" fill="#0083FF"/>
<path d="M120.396 21.8401C132.044 29.1565 131.695 40.3053 119.61 46.7377C107.526 53.1701 88.2908 52.4577 76.6428 45.1465C64.9948 37.8353 65.338 26.6865 77.4228 20.2541C89.5076 13.8217 108.742 14.5601 120.396 21.8401Z" fill="#1990F2"/>
<path d="M116.48 23.946C111.862 21.0444 105.648 19.3128 98.9976 19.0684C92.3468 18.824 86.0392 20.1084 81.25 22.6408C76.4608 25.1732 73.7516 28.7248 73.632 32.578C73.5124 36.4312 75.9616 40.1544 80.6 43.056C85.2384 45.9576 91.4316 47.6892 98.0876 47.9336C104.744 48.178 111.046 46.8936 115.835 44.356C120.624 41.8184 123.328 38.2772 123.453 34.424C123.578 30.5708 121.077 26.8476 116.48 23.946ZM114.691 43.68C105.446 48.6096 90.662 48.0636 81.744 42.4632C72.826 36.8628 73.0912 28.2984 82.342 23.374C91.5928 18.4496 106.371 18.9904 115.294 24.5908C124.218 30.1912 123.942 38.7296 114.691 43.68Z" fill="white"/>
<path d="M89.908 24.3101L113.084 26.9985L110.864 32.0217C110.458 31.9766 110.048 31.9402 109.632 31.9125C108.327 31.8277 107.018 31.8416 105.716 31.9541C103.61 32.1191 101.536 32.5651 99.5488 33.2801C95.9972 34.5905 93.6624 36.5613 92.6952 38.7037L84.006 37.7001L89.908 24.3101Z" fill="white"/>
<path d="M109.148 33.4048C109.507 33.4048 109.866 33.462 110.219 33.5036L107.182 40.3936L95.2588 39C96.018 37.2372 97.9784 35.6044 100.896 34.528C102.536 33.9346 104.248 33.5638 105.986 33.4256C107.038 33.3408 108.095 33.3338 109.148 33.4048Z" fill="white"/>
<path d="M58.5937 34.0392L48.5629 48.5992L45.7133 41.678C41.039 43.6286 36.9127 46.6929 33.6942 50.6039C30.4758 54.5148 28.2627 59.1536 27.2481 64.116L22.9789 63.2528C24.1383 57.5916 26.6636 52.2995 30.3349 47.837C34.0063 43.3744 38.7125 39.8767 44.0441 37.648L41.2309 30.8516L58.5937 34.0392Z" fill="#24F281"/>
<path d="M88.4727 90.8804L91.2859 97.6768L73.9283 94.4892L83.9539 79.9656L86.8035 86.84C91.477 84.8865 95.6029 81.8215 98.8227 77.9112C102.042 74.0008 104.259 69.3635 105.279 64.402L109.548 65.2548C108.393 70.9215 105.868 76.2193 102.194 80.686C98.5206 85.1527 93.8098 88.6526 88.4727 90.8804Z" fill="#24F281"/>
</svg>
