<svg width="107" height="73" viewBox="0 0 107 73" fill="none" xmlns="http://www.w3.org/2000/svg">
<path d="M76.5426 47.4575L76.1523 47.6497L76.0251 47.7165L75.7621 47.8418L75.6009 47.917L75.3549 48.0257L75.1853 48.1008L74.9477 48.2011L74.7696 48.2763L74.532 48.3682L74.3454 48.4434L74.1164 48.5353L73.9213 48.6021L73.6922 48.6857L73.4971 48.7525L73.2596 48.8361L73.056 48.9029L72.8184 48.9781L72.6149 49.0366L72.3773 49.1118L72.1737 49.1703L71.9277 49.2371L71.7241 49.2872L71.4696 49.3541L71.2745 49.4042L71.0115 49.471H70.8164L70.545 49.5295H70.3498L70.0614 49.588L69.8833 49.6298L69.5439 49.6883H69.4167L69.1452 49.7384H68.9586L68.6617 49.7885H68.492L68.1103 49.8387L67.5589 49.8971L67.1262 49.9389H66.9905H66.6936H66.5409H66.244H66.0998H65.9386H65.472H65.3024H64.7085H62.8592H62.3248H61.8158H61.6376H61.2983H61.0947H60.7978H60.5857H60.2973H60.0767H59.7968H59.5762H59.3048L59.3343 49.7213H59.0713H58.8508L58.5878 49.6795H58.3672L58.1042 49.6377H57.8922L57.6207 49.596L57.4171 49.5542L57.1372 49.5041L56.942 49.4623L56.6451 49.3954H56.4755L56.0004 49.2868L55.5678 49.1782H55.432L55.0927 49.0863L54.8003 49.0441L54.5119 48.9689L54.3252 48.9104L54.1597 48.7034L53.9053 48.4861L53.6168 48.3942L53.4387 48.3357L53.0739 48.2104L52.9467 48.1686C52.777 48.1102 52.6158 48.0517 52.4631 47.9848L51.9202 47.801L51.776 47.7425L51.2924 47.542L50.9192 47.4L50.7834 47.3415L50.5459 47.2245L50.4017 47.1577L50.1727 47.0407L49.9141 46.9702L49.7614 46.8866L49.5408 46.7696L49.4051 46.6944L49.1676 46.5608L49.0488 46.4939L48.7095 46.2851C48.8538 46.2333 48.4889 46.1514 48.3871 46.0762L48.2938 46.0177L48.0733 45.8673L47.9715 45.8005L47.7085 45.625L47.4116 45.4161L47.2165 45.2574L47.0129 45.0987L46.9195 45.0318L46.7159 44.8647L46.6481 44.8062L46.3936 44.589L46.3427 44.5389L46.1476 44.3634L46.0627 44.2882L46.227 44.0392C46.2065 44.0149 45.8188 44.2041 45.7941 44.184L45.5651 43.9584L45.353 43.7329L45.2851 43.6577C45.2342 43.6075 45.1918 43.549 45.1409 43.4906L45.073 43.4154L44.9203 43.2316L44.8779 43.1814L44.6913 42.9391L44.5386 42.6968L44.3859 42.4629C44.3357 42.3435 44.2904 42.2709 44.2502 42.1956C44.1993 42.1204 44.0166 42.1285 43.9742 42.0534L43.897 41.8458L43.7953 41.7764C43.7529 41.6929 43.5685 41.6008 43.5345 41.5172V41.4337L43.4582 41.2666C43.4477 41.2318 43.4335 41.1981 43.4158 41.1663C43.4158 41.1078 43.4158 41.0577 43.3564 41.0076C43.297 40.9574 43.3564 40.9324 43.314 40.899C43.2716 40.8655 43.314 40.7903 43.2546 40.7319V40.6567L43.1783 40.4144C43.1506 40.3351 43.1279 40.2541 43.1104 40.1721V40.1052L43.0595 39.9047L42.9652 39.3375L42.9734 38.9457L42.9666 38.8147C42.9666 38.681 43.0067 38.666 43.0067 38.5908C43.0023 38.5184 42.79 38.6129 42.7944 38.5405V38.4737C42.7944 38.3901 42.7944 38.3066 42.7944 38.223L42.7795 43.7229V44.2743C42.7795 44.3579 42.7795 44.4331 42.7795 44.5166V44.784V44.8508V45.0597V45.1182L42.8304 45.3521V45.5108C42.8344 45.5413 42.8344 45.5722 42.8304 45.6027V45.6779C42.8304 45.7531 42.8304 45.8367 42.8898 45.9119C42.9102 45.9941 42.9357 46.075 42.9662 46.1542V46.2294V46.3213C42.9694 46.3462 42.9694 46.3715 42.9662 46.3965C42.9766 46.434 42.9908 46.4704 43.0086 46.5051C43.0086 46.5552 43.0086 46.6053 43.068 46.6638L43.1104 46.7641L43.1867 46.9312C43.1992 46.9598 43.2133 46.9877 43.2291 47.0147C43.2636 47.0978 43.3033 47.1787 43.3479 47.257L43.4752 47.4993C43.5176 47.6246 43.56 47.7082 43.6109 47.7834C43.6109 47.8502 43.6957 47.9254 43.7466 47.9922L43.8993 48.2763L44.052 48.5269L44.2217 48.7859L44.2641 48.8361L44.4168 49.0199L44.4847 49.0951C44.5281 49.1545 44.5763 49.2104 44.6289 49.2622L44.6967 49.3374L44.9088 49.5629L45.1379 49.7885L45.2057 49.8554L45.3754 50.0225L45.4517 50.0893L45.6553 50.2731L45.9607 50.5405L46.0286 50.5906L46.2322 50.7577L46.3255 50.8329L46.5291 50.9916L46.6055 51.0501L46.8939 51.259L47.1569 51.4428L47.2502 51.5013L47.3605 51.5765L47.4792 51.6517L47.5725 51.7185L47.8949 51.919L48.2342 52.1279L48.353 52.1947L48.5905 52.3284L48.7262 52.4036L48.9468 52.5289L49.0995 52.6041L49.2268 52.671L49.3116 52.7211L49.4558 52.7963L49.6848 52.9049L49.8291 52.9717L50.0666 53.0887L50.2023 53.1472L50.5077 53.2892L51.0591 53.4897L51.2033 53.5482L51.6699 53.732L52.2043 53.9075L52.3401 53.9492L52.7049 54.0746H52.883L53.1714 54.1748L53.3581 54.2333L53.655 54.3169L53.7822 54.3586L54.13 54.4422L54.3082 54.4923L54.6475 54.5759L55.1904 54.6845L55.7079 54.7931H55.8691L56.166 54.8516L56.3611 54.8933L56.641 54.9435L56.8866 54.9953L57.1651 55.0428L57.3636 55.0776L57.6501 55.1088L57.9918 55.1372L58.1989 55.1446L58.3998 55.1668L58.6377 55.1853L58.9082 55.2076L59.1368 55.2075L59.5008 55.1984H59.7213H60.0013H60.2134H60.5103H60.7224H61.0193H61.1635H61.5622H61.7319H62.173L62.9954 55.2087L63.8218 55.1865L64.4015 55.1819L64.9062 55.1656L65.2681 55.1724L65.6469 55.1328L65.9586 55.0897L66.2649 55.0606H66.4176L66.6936 55.0354H66.8293L67.2535 54.9853L67.7201 54.9268L68.1866 54.8683H68.3563L68.6447 54.8265H68.8398L69.1113 54.7764L69.5694 54.7095H69.7475L70.036 54.6511H70.2311L70.4941 54.5842L70.6977 54.5424L70.9522 54.4756L71.1557 54.4255L71.4102 54.367L71.6138 54.3085L71.8599 54.2417L72.0634 54.1832L72.301 54.108L72.5046 54.0495L72.7421 53.9743L72.9457 53.9075L73.1747 53.8323L73.3783 53.7571L73.6074 53.6735L73.8025 53.6067L74.0315 53.5148L74.2182 53.448L74.4557 53.3477L74.6338 53.2725L74.8714 53.1722L75.041 53.0971L75.2871 52.9884L75.4482 52.9132L75.7112 52.7879L75.8385 52.7294L76.2287 52.5289C80.1649 50.4653 82.1669 47.6413 82.3196 44.7505L82.5402 39.2781C82.4808 42.5699 80.4363 45.3855 76.5426 47.4575Z" fill="#0083FF"/>
<path d="M77.0844 31.3141C84.7193 36.1155 84.5072 43.4365 76.5755 47.6611C68.6437 51.8858 56.0122 51.4192 48.3689 46.6177C40.7256 41.8162 40.9461 34.4953 48.8779 30.2706C56.8097 26.046 69.4411 26.5126 77.0844 31.3141Z" fill="#1990F2"/>
<path fill-rule="evenodd" clip-rule="evenodd" d="M51.172 31.7933C58.5707 28.3525 67.1705 28.668 74.2971 32.6416C77.3341 34.5588 78.9544 36.9765 78.8781 39.5129C78.8017 42.0494 77.0202 44.3399 73.8815 46.0365C66.4828 49.4772 57.883 49.1618 50.7563 45.1882C47.7194 43.288 46.0991 40.8533 46.1754 38.3168C46.2518 35.7804 48.0248 33.4899 51.172 31.7933ZM51.5113 44.781C57.3732 48.4627 67.0695 48.819 73.1434 45.5869C79.2174 42.3463 79.387 36.8238 73.5337 33.0997C67.6803 29.3756 57.984 29.0532 51.9101 32.2514C45.8361 35.4495 45.6495 41.0993 51.5113 44.781Z" fill="white"/>
<path d="M70.2396 39.0105L68.246 43.532L60.4246 42.6328C60.9166 41.4706 62.1975 40.4017 64.1232 39.6892C65.2009 39.3033 66.3247 39.0609 67.4656 38.9681C68.1627 38.9116 68.863 38.906 69.5609 38.9511L70.2396 39.0105Z" fill="white"/>
<path d="M56.8531 32.8131L72.0635 34.5776L70.5874 37.903L69.7984 37.8267C68.9342 37.7674 68.0669 37.7674 67.2026 37.8267C65.8219 37.9269 64.4609 38.2123 63.1561 38.675C60.8233 39.5233 59.2878 40.8297 58.66 42.2294L52.9594 41.5677L56.8531 32.8131Z" fill="white"/>
<path d="M74.5055 40.6671L74.1152 40.8593L73.988 40.9261L73.725 41.0514L73.5638 41.1266L73.3178 41.2352L73.1481 41.3104L72.9106 41.4107L72.7325 41.4859L72.4949 41.5778L72.3083 41.653L72.0793 41.7449L71.8842 41.8117L71.6551 41.8953L71.46 41.9621L71.2225 42.0457L71.0189 42.1125L70.7813 42.1877L70.5777 42.2462L70.3402 42.3214L70.1366 42.3799L69.8906 42.4467L69.687 42.4968L69.4325 42.5637L69.2374 42.6138L68.9744 42.6806H68.7793L68.5079 42.7391H68.3127L68.0243 42.7976L67.8462 42.8394L67.5068 42.8979H67.3796L67.1081 42.948H66.9215L66.6246 42.9981H66.4549L66.0732 43.0483L65.5218 43.1067L65.0891 43.1485H64.9534H64.6565H64.5038H64.2069H64.0627H63.9015H63.4349H63.2653H62.6714H60.8221H60.2877H59.7787H59.6005H59.2612H59.0576H58.7607H58.5486H58.2602H58.0396H57.7597H57.5391H57.2676L57.2972 42.9309H57.0342H56.8136L56.5507 42.8891H56.3301L56.0671 42.8473H55.855L55.5836 42.8056L55.38 42.7638L55.1 42.7137L54.9049 42.6719L54.608 42.605H54.4384L53.9633 42.4964L53.5307 42.3878H53.3949L53.0556 42.2959L52.7632 42.2537L52.4748 42.1785L52.2881 42.12L52.1226 41.913L51.8681 41.6957L51.5797 41.6038L51.4016 41.5453L51.0368 41.42L50.9095 41.3782C50.7399 41.3198 50.5787 41.2613 50.426 41.1944L49.8831 41.0106L49.7389 40.9521L49.2553 40.7516L48.8821 40.6096L48.7463 40.5511L48.5088 40.4341L48.3646 40.3673L48.1355 40.2503L47.877 40.1797L47.7243 40.0962L47.5037 39.9792L47.368 39.904L47.1305 39.7704L47.0117 39.7035L46.6724 39.4946C46.8167 39.4429 46.4518 39.361 46.35 39.2858L46.2567 39.2273L46.0361 39.0769L45.9343 39.0101L45.6714 38.8346L45.3745 38.6257L45.1793 38.467L44.9757 38.3083L44.8824 38.2414L44.6788 38.0743L44.611 38.0158L44.3565 37.7986L44.3056 37.7485L44.1105 37.573L44.0256 37.4978L44.1899 37.2488C44.1694 37.2245 43.7817 37.4137 43.757 37.3936L43.528 37.168L43.3159 36.9424L43.248 36.8673C43.1971 36.8171 43.1547 36.7586 43.1038 36.7002L43.0359 36.625L42.8832 36.4412L42.8408 36.391L42.6542 36.1487L42.5015 35.9064L42.3488 35.6725C42.2986 35.5531 42.2533 35.4805 42.2131 35.4052C42.1622 35.33 41.9795 35.3381 41.9371 35.2629L41.8599 35.0554L41.7582 34.986C41.7157 34.9025 41.5314 34.8104 41.4974 34.7268V34.6433L41.4211 34.4762C41.4106 34.4413 41.3964 34.4077 41.3787 34.3759C41.3787 34.3174 41.3787 34.2673 41.3193 34.2172C41.2599 34.167 41.3193 34.142 41.2769 34.1085C41.2345 34.0751 41.2769 33.9999 41.2175 33.9414V33.8663L41.1411 33.624C41.1135 33.5446 41.0908 33.4637 41.0733 33.3817V33.3148L41.0224 33.1143L40.9281 32.5471L40.9363 32.1553L40.9295 32.0243C40.9295 31.8906 40.9696 31.8755 40.9696 31.8004C40.9652 31.728 40.7529 31.8224 40.7573 31.7501V31.6833C40.7573 31.5997 40.7573 31.5162 40.7573 31.4326L40.7424 36.9325V37.4839C40.7424 37.5675 40.7424 37.6427 40.7424 37.7262V37.9936V38.0604V38.2693V38.3278L40.7933 38.5617V38.7204C40.7973 38.7509 40.7973 38.7818 40.7933 38.8123V38.8875C40.7933 38.9627 40.7933 39.0463 40.8527 39.1215C40.8731 39.2037 40.8986 39.2846 40.9291 39.3638V39.4389V39.5309C40.9323 39.5558 40.9323 39.5811 40.9291 39.606C40.9394 39.6436 40.9537 39.68 40.9715 39.7147C40.9715 39.7648 40.9715 39.8149 41.0309 39.8734L41.0733 39.9737L41.1496 40.1408C41.162 40.1694 41.1762 40.1973 41.192 40.2243C41.2265 40.3074 41.2662 40.3883 41.3108 40.4666L41.4381 40.7089C41.4805 40.8342 41.5229 40.9178 41.5738 40.993C41.5738 41.0598 41.6586 41.135 41.7095 41.2018L41.8622 41.4859L42.0149 41.7365L42.1846 41.9955L42.227 42.0457L42.3797 42.2295L42.4475 42.3047C42.491 42.3641 42.5392 42.42 42.5918 42.4718L42.6596 42.547L42.8717 42.7725L43.1008 42.9981L43.1686 43.065L43.3383 43.2321L43.4146 43.2989L43.6182 43.4827L43.9236 43.7501L43.9915 43.8002L44.1951 43.9673L44.2884 44.0425L44.492 44.2012L44.5683 44.2597L44.8568 44.4686L45.1197 44.6524L45.2131 44.7109L45.3233 44.7861L45.4421 44.8613L45.5354 44.9281L45.8578 45.1286L46.1971 45.3375L46.3159 45.4043L46.5534 45.538L46.6891 45.6132L46.9097 45.7385L47.0624 45.8137L47.1896 45.8806L47.2745 45.9307L47.4187 46.0059L47.6477 46.1145L47.7919 46.1813L48.0295 46.2983L48.1652 46.3568L48.4706 46.4988L49.022 46.6993L49.1662 46.7578L49.6328 46.9416L50.1672 47.1171L50.303 47.1588L50.6677 47.2842H50.8459L51.1343 47.3844L51.3209 47.4429L51.6179 47.5265L51.7451 47.5682L52.0929 47.6518L52.2711 47.7019L52.6104 47.7855L53.1533 47.8941L53.6708 48.0027H53.832L54.1289 48.0612L54.324 48.1029L54.6039 48.1531L54.8495 48.2048L55.1279 48.2524L55.3265 48.2872L55.6129 48.3184L55.9547 48.3468L56.1617 48.3542L56.3627 48.3764L56.6006 48.3949L56.8711 48.4172L57.0997 48.4171L57.4637 48.408H57.6842H57.9642H58.1763H58.4732H58.6852H58.9822H59.1264H59.5251H59.6947H60.1359L60.9583 48.4183L61.7847 48.3961L62.3644 48.3915L62.8691 48.3752L63.231 48.382L63.6098 48.3424L63.9215 48.2993L64.2278 48.2702H64.3805L64.6565 48.245H64.7922L65.2164 48.1948L65.683 48.1364L66.1495 48.0779H66.3192L66.6076 48.0361H66.8027L67.0742 47.986L67.5323 47.9191H67.7104L67.9989 47.8607H68.194L68.457 47.7938L68.6605 47.752L68.915 47.6852L69.1186 47.6351L69.3731 47.5766L69.5767 47.5181L69.8227 47.4513L70.0263 47.3928L70.2639 47.3176L70.4675 47.2591L70.705 47.1839L70.9086 47.1171L71.1376 47.0419L71.3412 46.9667L71.5703 46.8831L71.7654 46.8163L71.9944 46.7244L72.1811 46.6576L72.4186 46.5573L72.5967 46.4821L72.8343 46.3818L73.0039 46.3066L73.2499 46.198L73.4111 46.1228L73.6741 45.9975L73.8013 45.939L74.1916 45.7385C78.1278 43.6749 80.1298 40.8509 80.2825 37.9601L80.5031 32.4877C80.4437 35.7795 78.3992 38.5951 74.5055 40.6671Z" fill="#0083FF"/>
<path d="M75.0473 24.5237C82.6822 29.3251 82.4701 36.6461 74.5383 40.8707C66.6066 45.0954 53.9751 44.6288 46.3318 39.8273C38.6885 35.0258 38.909 27.7049 46.8408 23.4802C54.7726 19.2556 67.404 19.7222 75.0473 24.5237Z" fill="#1990F2"/>
<path fill-rule="evenodd" clip-rule="evenodd" d="M49.1349 25.0029C56.5336 21.5621 65.1334 21.8776 72.26 25.8512C75.297 27.7684 76.9173 30.1861 76.8409 32.7225C76.7646 35.259 74.9831 37.5495 71.8444 39.2461C64.4457 42.6868 55.8459 42.3714 48.7192 38.3978C45.6823 36.4976 44.062 34.0629 44.1383 31.5264C44.2147 28.9899 45.9877 26.6995 49.1349 25.0029ZM49.4742 37.9906C55.3361 41.6723 65.0324 42.0286 71.1063 38.7965C77.1803 35.5559 77.3499 30.0334 71.4965 26.3093C65.6432 22.5852 55.9469 22.2628 49.8729 25.4609C43.799 28.6591 43.6124 34.3089 49.4742 37.9906Z" fill="white"/>
<path d="M68.2025 32.2201L66.2089 36.7416L58.3875 35.8424C58.8795 34.6802 60.1604 33.6113 62.0861 32.8987C63.1638 32.5129 64.2876 32.2705 65.4285 32.1777C66.1256 32.1212 66.8259 32.1156 67.5238 32.1607L68.2025 32.2201Z" fill="white"/>
<path d="M54.816 26.0227L70.0263 27.7872L68.5503 31.1126L67.7613 31.0363C66.8971 30.977 66.0298 30.977 65.1655 31.0363C63.7848 31.1365 62.4238 31.4219 61.119 31.8846C58.7861 32.7329 57.2507 34.0393 56.6229 35.439L50.9222 34.7773L54.816 26.0227Z" fill="white"/>
<path d="M76.5426 33.8767L76.1523 34.0689L76.0251 34.1357L75.7621 34.261L75.6009 34.3362L75.3549 34.4448L75.1853 34.52L74.9477 34.6203L74.7696 34.6955L74.532 34.7874L74.3454 34.8626L74.1164 34.9545L73.9213 35.0213L73.6922 35.1049L73.4971 35.1717L73.2596 35.2553L73.056 35.3221L72.8184 35.3973L72.6149 35.4558L72.3773 35.531L72.1737 35.5895L71.9277 35.6563L71.7241 35.7064L71.4696 35.7733L71.2745 35.8234L71.0115 35.8902H70.8164L70.545 35.9487H70.3498L70.0614 36.0072L69.8833 36.049L69.5439 36.1075H69.4167L69.1452 36.1576H68.9586L68.6617 36.2077H68.492L68.1103 36.2578L67.5589 36.3163L67.1262 36.3581H66.9905H66.6936H66.5409H66.244H66.0998H65.9386H65.472H65.3024H64.7085H62.8592H62.3248H61.8158H61.6376H61.2983H61.0947H60.7978H60.5857H60.2973H60.0767H59.7968H59.5762H59.3048L59.3343 36.1405H59.0713H58.8508L58.5878 36.0987H58.3672L58.1042 36.0569H57.8922L57.6207 36.0152L57.4171 35.9734L57.1372 35.9233L56.942 35.8815L56.6451 35.8146H56.4755L56.0004 35.706L55.5678 35.5974H55.432L55.0927 35.5055L54.8003 35.4633L54.5119 35.3881L54.3252 35.3296L54.1597 35.1225L53.9053 34.9053L53.6168 34.8134L53.4387 34.7549L53.0739 34.6296L52.9467 34.5878C52.777 34.5294 52.6158 34.4709 52.4631 34.404L51.9202 34.2202L51.776 34.1617L51.2924 33.9612L50.9192 33.8192L50.7834 33.7607L50.5459 33.6437L50.4017 33.5769L50.1727 33.4599L49.9141 33.3893L49.7614 33.3058L49.5408 33.1888L49.4051 33.1136L49.1676 32.98L49.0488 32.9131L48.7095 32.7042C48.8538 32.6524 48.4889 32.5706 48.3871 32.4954L48.2938 32.4369L48.0733 32.2865L47.9715 32.2197L47.7085 32.0442L47.4116 31.8353L47.2165 31.6766L47.0129 31.5179L46.9195 31.451L46.7159 31.2839L46.6481 31.2254L46.3936 31.0082L46.3427 30.9581L46.1476 30.7826L46.0627 30.7074L46.227 30.4584C46.2065 30.4341 45.8188 30.6233 45.7941 30.6032L45.5651 30.3776L45.353 30.152L45.2851 30.0768C45.2342 30.0267 45.1918 29.9682 45.1409 29.9098L45.073 29.8346L44.9203 29.6508L44.8779 29.6006L44.6913 29.3583L44.5386 29.116L44.3859 28.8821C44.3357 28.7627 44.2904 28.6901 44.2502 28.6147C44.1993 28.5396 44.0166 28.5477 43.9742 28.4725L43.897 28.265L43.7953 28.1956C43.7529 28.1121 43.5685 28.02 43.5345 27.9364V27.8529L43.4582 27.6858C43.4477 27.6509 43.4335 27.6173 43.4158 27.5855C43.4158 27.527 43.4158 27.4769 43.3564 27.4268C43.297 27.3766 43.3564 27.3516 43.314 27.3181C43.2716 27.2847 43.314 27.2095 43.2546 27.151V27.0759L43.1783 26.8336C43.1506 26.7542 43.1279 26.6733 43.1104 26.5913V26.5244L43.0595 26.3239L42.9652 25.7567L42.9734 25.3649L42.9666 25.2339C42.9666 25.1002 43.0067 25.0851 43.0067 25.0099C43.0023 24.9376 42.79 25.032 42.7944 24.9597V24.8929C42.7944 24.8093 42.7944 24.7258 42.7944 24.6422L42.7795 30.1421V30.6935C42.7795 30.7771 42.7795 30.8522 42.7795 30.9358V31.2032V31.27V31.4789V31.5373L42.8304 31.7713V31.93C42.8344 31.9605 42.8344 31.9914 42.8304 32.0219V32.0971C42.8304 32.1723 42.8304 32.2559 42.8898 32.3311C42.9102 32.4133 42.9357 32.4942 42.9662 32.5734V32.6485V32.7404C42.9694 32.7654 42.9694 32.7907 42.9662 32.8156C42.9766 32.8532 42.9908 32.8896 43.0086 32.9243C43.0086 32.9744 43.0086 33.0245 43.068 33.083L43.1104 33.1833L43.1867 33.3504C43.1992 33.379 43.2133 33.4069 43.2291 33.4339C43.2636 33.517 43.3033 33.5979 43.3479 33.6762L43.4752 33.9185C43.5176 34.0438 43.56 34.1274 43.6109 34.2025C43.6109 34.2694 43.6957 34.3446 43.7466 34.4114L43.8993 34.6955L44.052 34.9461L44.2217 35.2051L44.2641 35.2553L44.4168 35.4391L44.4847 35.5143C44.5281 35.5737 44.5763 35.6296 44.6289 35.6814L44.6967 35.7566L44.9088 35.9821L45.1379 36.2077L45.2057 36.2746L45.3754 36.4417L45.4517 36.5085L45.6553 36.6923L45.9607 36.9597L46.0286 37.0098L46.2322 37.1769L46.3255 37.2521L46.5291 37.4108L46.6055 37.4693L46.8939 37.6782L47.1569 37.862L47.2502 37.9205L47.3605 37.9957L47.4792 38.0709L47.5725 38.1377L47.8949 38.3382L48.2342 38.5471L48.353 38.6139L48.5905 38.7476L48.7262 38.8228L48.9468 38.9481L49.0995 39.0233L49.2268 39.0901L49.3116 39.1403L49.4558 39.2155L49.6848 39.3241L49.8291 39.3909L50.0666 39.5079L50.2023 39.5664L50.5077 39.7084L51.0591 39.9089L51.2033 39.9674L51.6699 40.1512L52.2043 40.3267L52.3401 40.3684L52.7049 40.4938H52.883L53.1714 40.594L53.3581 40.6525L53.655 40.7361L53.7822 40.7778L54.13 40.8614L54.3082 40.9115L54.6475 40.9951L55.1904 41.1037L55.7079 41.2123H55.8691L56.166 41.2708L56.3611 41.3125L56.641 41.3627L56.8866 41.4144L57.1651 41.462L57.3636 41.4968L57.6501 41.528L57.9918 41.5564L58.1989 41.5638L58.3998 41.5859L58.6377 41.6045L58.9082 41.6268L59.1368 41.6267L59.5008 41.6175H59.7213H60.0013H60.2134H60.5103H60.7224H61.0193H61.1635H61.5622H61.7319H62.173L62.9954 41.6279L63.8218 41.6057L64.4015 41.6011L64.9062 41.5848L65.2681 41.5916L65.6469 41.552L65.9586 41.5089L66.2649 41.4798H66.4176L66.6936 41.4546H66.8293L67.2535 41.4044L67.7201 41.346L68.1866 41.2875H68.3563L68.6447 41.2457H68.8398L69.1113 41.1956L69.5694 41.1287H69.7475L70.036 41.0702H70.2311L70.4941 41.0034L70.6977 40.9616L70.9522 40.8948L71.1557 40.8447L71.4102 40.7862L71.6138 40.7277L71.8599 40.6609L72.0634 40.6024L72.301 40.5272L72.5046 40.4687L72.7421 40.3935L72.9457 40.3267L73.1747 40.2515L73.3783 40.1763L73.6074 40.0927L73.8025 40.0259L74.0315 39.934L74.2182 39.8671L74.4557 39.7669L74.6338 39.6917L74.8714 39.5914L75.041 39.5162L75.2871 39.4076L75.4482 39.3324L75.7112 39.2071L75.8385 39.1486L76.2287 38.9481C80.1649 36.8845 82.1669 34.0605 82.3196 31.1697L82.5402 25.6973C82.4808 28.9891 80.4363 31.8047 76.5426 33.8767Z" fill="#0083FF"/>
<path d="M77.0844 17.7333C84.7193 22.5347 84.5072 29.8557 76.5755 34.0803C68.6437 38.3049 56.0122 37.8384 48.3689 33.0369C40.7256 28.2354 40.9461 20.9144 48.8779 16.6898C56.8097 12.4652 69.4411 12.9318 77.0844 17.7333Z" fill="#1990F2"/>
<path fill-rule="evenodd" clip-rule="evenodd" d="M51.172 18.2124C58.5707 14.7717 67.1705 15.0872 74.2971 19.0608C77.3341 20.978 78.9544 23.3957 78.8781 25.9321C78.8017 28.4686 77.0202 30.7591 73.8815 32.4557C66.4828 35.8964 57.883 35.581 50.7563 31.6074C47.7194 29.7071 46.0991 27.2725 46.1754 24.736C46.2518 22.1995 48.0248 19.9091 51.172 18.2124ZM51.5113 31.2002C57.3732 34.8819 67.0695 35.2382 73.1434 32.0061C79.2174 28.7655 79.387 23.243 73.5337 19.5189C67.6803 15.7947 57.984 15.4724 51.9101 18.6705C45.8361 21.8687 45.6495 27.5185 51.5113 31.2002Z" fill="white"/>
<path d="M70.2396 25.4297L68.246 29.9512L60.4246 29.052C60.9166 27.8898 62.1975 26.8209 64.1232 26.1083C65.2009 25.7225 66.3247 25.4801 67.4656 25.3873C68.1627 25.3308 68.863 25.3251 69.5609 25.3703L70.2396 25.4297Z" fill="white"/>
<path d="M56.8531 19.2323L72.0635 20.9968L70.5874 24.3222L69.7984 24.2459C68.9342 24.1866 68.0669 24.1866 67.2026 24.2459C65.8219 24.3461 64.4609 24.6315 63.1561 25.0942C60.8233 25.9425 59.2878 27.2489 58.66 28.6486L52.9594 27.9869L56.8531 19.2323Z" fill="white"/>
<path d="M75.8635 26.4072L75.4733 26.5994L75.346 26.6662L75.083 26.7916L74.9219 26.8667L74.6758 26.9754L74.5062 27.0506L74.2686 27.1508L74.0905 27.226L73.853 27.3179L73.6663 27.3931L73.4373 27.485L73.2422 27.5518L73.0131 27.6354L72.818 27.7022L72.5805 27.7858L72.3769 27.8526L72.1394 27.9278L71.9358 27.9863L71.6982 28.0615L71.4947 28.12L71.2486 28.1868L71.045 28.2369L70.7905 28.3038L70.5954 28.3539L70.3325 28.4207H70.1373L69.8659 28.4792H69.6708L69.3823 28.5377L69.2042 28.5795L68.8649 28.638H68.7376L68.4662 28.6881H68.2795L67.9826 28.7382H67.813L67.4312 28.7884L66.8798 28.8468L66.4472 28.8886H66.3114H66.0145H65.8618H65.5649H65.4207H65.2595H64.7929H64.6233H64.0295H62.1801H61.6457H61.1367H60.9586H60.6192H60.4156H60.1187H59.9066H59.6182H59.3976H59.1177H58.8971H58.6257L58.6552 28.671H58.3922H58.1717L57.9087 28.6292H57.6881L57.4252 28.5874H57.2131L56.9416 28.5457L56.738 28.5039L56.4581 28.4538L56.263 28.412L55.9661 28.3452H55.7964L55.3213 28.2365L54.8887 28.1279H54.753L54.4136 28.036L54.1212 27.9938L53.8328 27.9186L53.6462 27.8601L53.4807 27.6531L53.2262 27.4358L52.9377 27.3439L52.7596 27.2855L52.3948 27.1601L52.2676 27.1184C52.0979 27.0599 51.9367 27.0014 51.784 26.9345L51.2411 26.7507L51.0969 26.6923L50.6134 26.4917L50.2401 26.3497L50.1044 26.2912L49.8668 26.1743L49.7226 26.1074L49.4936 25.9904L49.235 25.9199L49.0823 25.8363L48.8618 25.7193L48.726 25.6441L48.4885 25.5105L48.3697 25.4436L48.0304 25.2348C48.1747 25.183 47.8099 25.1011 47.7081 25.0259L47.6147 24.9674L47.3942 24.817L47.2924 24.7502L47.0294 24.5747L46.7325 24.3659L46.5374 24.2071L46.3338 24.0484L46.2405 23.9815L46.0369 23.8144L45.969 23.7559L45.7145 23.5387L45.6636 23.4886L45.4685 23.3131L45.3837 23.2379L45.5479 22.9889C45.5275 22.9646 45.1397 23.1538 45.115 23.1337L44.886 22.9081L44.6739 22.6826L44.606 22.6074C44.5551 22.5572 44.5127 22.4988 44.4618 22.4403L44.394 22.3651L44.2413 22.1813L44.1989 22.1311L44.0122 21.8888L43.8595 21.6466L43.7068 21.4126C43.6567 21.2932 43.6113 21.2206 43.5711 21.1453C43.5202 21.0701 43.3375 21.0783 43.2951 21.0031L43.218 20.7955L43.1162 20.7262C43.0738 20.6426 42.8894 20.5505 42.8555 20.4669V20.3834L42.7791 20.2163C42.7686 20.1815 42.7544 20.1479 42.7367 20.116C42.7367 20.0575 42.7367 20.0074 42.6773 19.9573C42.6179 19.9071 42.6773 19.8821 42.6349 19.8487C42.5925 19.8152 42.6349 19.74 42.5755 19.6816V19.6064L42.4992 19.3641C42.4715 19.2848 42.4489 19.2038 42.4313 19.1218V19.0549L42.3804 18.8544L42.2861 18.2872L42.2943 17.8955L42.2875 17.7644C42.2875 17.6307 42.3276 17.6157 42.3276 17.5405C42.3232 17.4681 42.1109 17.5626 42.1153 17.4902V17.4234C42.1153 17.3398 42.1153 17.2563 42.1153 17.1727L42.1005 22.6726V23.224C42.1005 23.3076 42.1005 23.3828 42.1005 23.4663V23.7337V23.8005V24.0094V24.0679L42.1514 24.3018V24.4605C42.1554 24.4911 42.1554 24.5219 42.1514 24.5524V24.6276C42.1514 24.7028 42.1514 24.7864 42.2107 24.8616C42.2311 24.9438 42.2566 25.0247 42.2871 25.1039V25.1791V25.271C42.2903 25.2959 42.2903 25.3212 42.2871 25.3462C42.2975 25.3837 42.3117 25.4201 42.3295 25.4548C42.3295 25.5049 42.3295 25.555 42.3889 25.6135L42.4313 25.7138L42.5077 25.8809C42.5201 25.9095 42.5342 25.9374 42.5501 25.9644C42.5845 26.0475 42.6242 26.1285 42.6688 26.2067L42.7961 26.449C42.8385 26.5743 42.8809 26.6579 42.9318 26.7331C42.9318 26.7999 43.0166 26.8751 43.0675 26.9419L43.2202 27.226L43.3729 27.4767L43.5426 27.7357L43.585 27.7858L43.7377 27.9696L43.8056 28.0448C43.849 28.1042 43.8972 28.1601 43.9498 28.2119L44.0177 28.2871L44.2297 28.5127L44.4588 28.7382L44.5267 28.8051L44.6963 28.9722L44.7727 29.039L44.9763 29.2228L45.2817 29.4902L45.3495 29.5403L45.5531 29.7074L45.6464 29.7826L45.85 29.9413L45.9264 29.9998L46.2148 30.2087L46.4778 30.3925L46.5711 30.451L46.6814 30.5262L46.8001 30.6014L46.8935 30.6682L47.2158 30.8687L47.5551 31.0776L47.6739 31.1444L47.9114 31.2781L48.0472 31.3533L48.2677 31.4786L48.4204 31.5538L48.5477 31.6207L48.6325 31.6708L48.7767 31.746L49.0058 31.8546L49.15 31.9214L49.3875 32.0384L49.5232 32.0969L49.8286 32.2389L50.38 32.4394L50.5243 32.4979L50.9908 32.6817L51.5253 32.8572L51.661 32.899L52.0258 33.0243H52.2039L52.4923 33.1245L52.679 33.183L52.9759 33.2666L53.1031 33.3083L53.4509 33.3919L53.6291 33.442L53.9684 33.5256L54.5113 33.6342L55.0288 33.7428H55.19L55.4869 33.8013L55.682 33.8431L55.962 33.8932L56.2075 33.945L56.486 33.9925L56.6846 34.0273L56.971 34.0585L57.3127 34.0869L57.5198 34.0943L57.7207 34.1165L57.9586 34.135L58.2291 34.1573L58.4577 34.1573L58.8217 34.1481H59.0423H59.3222H59.5343H59.8312H60.0433H60.3402H60.4844H60.8831H61.0528H61.4939L62.3163 34.1584L63.1427 34.1362L63.7225 34.1316L64.2271 34.1153L64.5891 34.1221L64.9678 34.0825L65.2795 34.0394L65.5858 34.0103H65.7385L66.0145 33.9851H66.1503L66.5744 33.935L67.041 33.8765L67.5076 33.818H67.6772L67.9657 33.7762H68.1608L68.4322 33.7261L68.8903 33.6592H69.0685L69.3569 33.6008H69.552L69.815 33.5339L70.0186 33.4922L70.2731 33.4253L70.4767 33.3752L70.7312 33.3167L70.9348 33.2582L71.1808 33.1914L71.3844 33.1329L71.6219 33.0577L71.8255 32.9992L72.063 32.924L72.2666 32.8572L72.4957 32.782L72.6993 32.7068L72.9283 32.6232L73.1234 32.5564L73.3525 32.4645L73.5391 32.3977L73.7766 32.2974L73.9548 32.2222L74.1923 32.122L74.362 32.0468L74.608 31.9381L74.7692 31.863L75.0321 31.7376L75.1594 31.6791L75.5496 31.4786C79.4858 29.415 81.4878 26.591 81.6405 23.7003L81.8611 18.2278C81.8017 21.5196 79.7573 24.3352 75.8635 26.4072Z" fill="#0083FF"/>
<path d="M76.4054 10.2638C84.0402 15.0652 83.8281 22.3862 75.8964 26.6108C67.9646 30.8355 55.3332 30.3689 47.6898 25.5674C40.0465 20.7659 40.2671 13.445 48.1988 9.22034C56.1306 4.99573 68.762 5.4623 76.4054 10.2638Z" fill="#1990F2"/>
<path fill-rule="evenodd" clip-rule="evenodd" d="M50.4929 10.743C57.8916 7.30222 66.4914 7.61769 73.6181 11.5913C76.655 13.5085 78.2753 15.9262 78.199 18.4627C78.1226 20.9991 76.3412 23.2896 73.2024 24.9862C65.8037 28.427 57.2039 28.1115 50.0773 24.1379C47.0403 22.2377 45.42 19.803 45.4964 17.2665C45.5727 14.7301 47.3457 12.4396 50.4929 10.743ZM50.8323 23.7307C56.6941 27.4124 66.3904 27.7687 72.4644 24.5366C78.5383 21.296 78.708 15.7735 72.8546 12.0494C67.0012 8.32526 57.3049 8.0029 51.231 11.2011C45.157 14.3992 44.9704 20.049 50.8323 23.7307Z" fill="white"/>
<path d="M69.5605 17.9602L67.567 22.4817L59.7455 21.5825C60.2375 20.4203 61.5185 19.3514 63.4441 18.6389C64.5218 18.253 65.6456 18.0106 66.7865 17.9178C67.4836 17.8613 68.1839 17.8557 68.8819 17.9008L69.5605 17.9602Z" fill="white"/>
<path d="M56.174 11.7628L71.3844 13.5273L69.9083 16.8527L69.1194 16.7764C68.2551 16.7171 67.3878 16.7171 66.5235 16.7764C65.1428 16.8767 63.7818 17.162 62.477 17.6247C60.1442 18.473 58.6087 19.7794 57.981 21.1791L52.2803 20.5174L56.174 11.7628Z" fill="white"/>
<path d="M73.8264 20.2959L73.4361 20.4881L73.3089 20.5549L73.0459 20.6802L72.8847 20.7554L72.6387 20.864L72.4691 20.9392L72.2315 21.0395L72.0534 21.1147L71.8159 21.2066L71.6292 21.2818L71.4002 21.3737L71.2051 21.4405L70.976 21.5241L70.7809 21.5909L70.5434 21.6745L70.3398 21.7413L70.1023 21.8165L69.8987 21.875L69.6611 21.9502L69.4575 22.0086L69.2115 22.0755L69.0079 22.1256L68.7534 22.1925L68.5583 22.2426L68.2953 22.3094H68.1002L67.8288 22.3679H67.6337L67.3452 22.4264L67.1671 22.4682L66.8278 22.5266H66.7005L66.4291 22.5768H66.2424L65.9455 22.6269H65.7758L65.3941 22.677L64.8427 22.7355L64.4101 22.7773H64.2743H63.9774H63.8247H63.5278H63.3836H63.2224H62.7558H62.5862H61.9924H60.143H59.6086H59.0996H58.9214H58.5821H58.3785H58.0816H57.8695H57.5811H57.3605H57.0806H56.86H56.5886L56.6181 22.5597H56.3551H56.1346L55.8716 22.5179H55.651L55.388 22.4761H55.176L54.9045 22.4343L54.7009 22.3926L54.421 22.3424L54.2259 22.3007L53.9289 22.2338H53.7593L53.2842 22.1252L52.8516 22.0166H52.7159L52.3765 21.9247L52.0841 21.8825L51.7957 21.8073L51.609 21.7488L51.4436 21.5417L51.1891 21.3245L50.9006 21.2326L50.7225 21.1741L50.3577 21.0488L50.2305 21.007C50.0608 20.9485 49.8996 20.8901 49.7469 20.8232L49.204 20.6394L49.0598 20.5809L48.5763 20.3804L48.203 20.2384L48.0673 20.1799L47.8297 20.0629L47.6855 19.9961L47.4565 19.8791L47.1979 19.8085L47.0452 19.725L46.8247 19.608L46.6889 19.5328L46.4514 19.3991L46.3326 19.3323L45.9933 19.1234C46.1376 19.0716 45.7727 18.9898 45.6709 18.9146L45.5776 18.8561L45.3571 18.7057L45.2553 18.6388L44.9923 18.4634L44.6954 18.2545L44.5003 18.0958L44.2967 17.937L44.2034 17.8702L43.9998 17.7031L43.9319 17.6446L43.6774 17.4274L43.6265 17.3773L43.4314 17.2018L43.3466 17.1266L43.5108 16.8776C43.4904 16.8532 43.1026 17.0425 43.0779 17.0224L42.8489 16.7968L42.6368 16.5712L42.5689 16.496C42.518 16.4459 42.4756 16.3874 42.4247 16.3289L42.3569 16.2537L42.2042 16.0699L42.1617 16.0198L41.9751 15.7775L41.8224 15.5352L41.6697 15.3013C41.6196 15.1818 41.5742 15.1093 41.534 15.0339C41.4831 14.9587 41.3004 14.9669 41.258 14.8917L41.1808 14.6842L41.0791 14.6148C41.0367 14.5313 40.8523 14.4391 40.8184 14.3556V14.272L40.742 14.1049C40.7315 14.0701 40.7173 14.0365 40.6996 14.0047C40.6996 13.9462 40.6996 13.8961 40.6402 13.8459C40.5808 13.7958 40.6402 13.7708 40.5978 13.7373C40.5554 13.7039 40.5978 13.6287 40.5384 13.5702V13.495L40.4621 13.2527C40.4344 13.1734 40.4118 13.0925 40.3942 13.0105V12.9436L40.3433 12.7431L40.249 12.1759L40.2572 11.7841L40.2504 11.6531C40.2504 11.5194 40.2905 11.5043 40.2905 11.4291C40.2861 11.3568 40.0738 11.4512 40.0782 11.3789V11.312C40.0782 11.2285 40.0782 11.145 40.0782 11.0614L40.0634 16.5613V17.1127C40.0634 17.1962 40.0634 17.2714 40.0634 17.355V17.6223V17.6892V17.8981V17.9565L40.1143 18.1905V18.3492C40.1182 18.3797 40.1182 18.4106 40.1143 18.4411V18.5163C40.1143 18.5915 40.1143 18.6751 40.1736 18.7502C40.194 18.8325 40.2195 18.9134 40.25 18.9925V19.0677V19.1596C40.2532 19.1846 40.2532 19.2099 40.25 19.2348C40.2604 19.2724 40.2746 19.3087 40.2924 19.3434C40.2924 19.3936 40.2924 19.4437 40.3518 19.5022L40.3942 19.6024L40.4705 19.7695C40.483 19.7982 40.4971 19.8261 40.513 19.8531C40.5474 19.9362 40.5871 20.0171 40.6317 20.0954L40.759 20.3377C40.8014 20.463 40.8438 20.5465 40.8947 20.6217C40.8947 20.6886 40.9795 20.7638 41.0304 20.8306L41.1831 21.1147L41.3358 21.3653L41.5055 21.6243L41.5479 21.6745L41.7006 21.8583L41.7685 21.9335C41.8119 21.9929 41.8601 22.0488 41.9127 22.1005L41.9806 22.1757L42.1926 22.4013L42.4217 22.6269L42.4895 22.6937L42.6592 22.8608L42.7356 22.9277L42.9391 23.1115L43.2445 23.3788L43.3124 23.429L43.516 23.5961L43.6093 23.6713L43.8129 23.83L43.8893 23.8885L44.1777 24.0974L44.4407 24.2812L44.534 24.3397L44.6443 24.4148L44.763 24.49L44.8563 24.5569L45.1787 24.7574L45.518 24.9663L45.6368 25.0331L45.8743 25.1668L46.0101 25.242L46.2306 25.3673L46.3833 25.4425L46.5106 25.5093L46.5954 25.5595L46.7396 25.6347L46.9687 25.7433L47.1129 25.8101L47.3504 25.9271L47.4861 25.9856L47.7915 26.1276L48.3429 26.3281L48.4871 26.3866L48.9537 26.5704L49.4882 26.7459L49.6239 26.7876L49.9887 26.913H50.1668L50.4552 27.0132L50.6419 27.0717L50.9388 27.1552L51.066 27.197L51.4138 27.2806L51.592 27.3307L51.9313 27.4142L52.4742 27.5229L52.9917 27.6315H53.1529L53.4498 27.69L53.6449 27.7317L53.9249 27.7819L54.1704 27.8336L54.4489 27.8811L54.6474 27.916L54.9339 27.9472L55.2756 27.9756L55.4827 27.983L55.6836 28.0051L55.9215 28.0236L56.192 28.046L56.4206 28.0459L56.7846 28.0367H57.0052H57.2851H57.4972H57.7941H58.0062H58.3031H58.4473H58.846H59.0157H59.4568L60.2792 28.0471L61.1056 28.0249L61.6854 28.0203L62.19 28.004L62.552 28.0108L62.9307 27.9712L63.2424 27.9281L63.5487 27.899H63.7014L63.9774 27.8738H64.1131L64.5373 27.8236L65.0039 27.7651L65.4705 27.7067H65.6401L65.9285 27.6649H66.1237L66.3951 27.6148L66.8532 27.5479H67.0314L67.3198 27.4894H67.5149L67.7779 27.4226L67.9815 27.3808L68.236 27.314L68.4396 27.2639L68.6941 27.2054L68.8977 27.1469L69.1437 27.08L69.3473 27.0216L69.5848 26.9464L69.7884 26.8879L70.0259 26.8127L70.2295 26.7459L70.4586 26.6707L70.6622 26.5955L70.8912 26.5119L71.0863 26.4451L71.3154 26.3532L71.502 26.2863L71.7395 26.1861L71.9177 26.1109L72.1552 26.0106L72.3249 25.9354L72.5709 25.8268L72.732 25.7516L72.995 25.6263L73.1223 25.5678L73.5125 25.3673C77.4487 23.3037 79.4507 20.4797 79.6034 17.5889L79.824 12.1165C79.7646 15.4083 77.7201 18.2239 73.8264 20.2959Z" fill="#0083FF"/>
<path d="M74.3683 4.15245C82.0031 8.95392 81.791 16.2749 73.8593 20.4995C65.9275 24.7241 53.2961 24.2576 45.6527 19.4561C38.0094 14.6546 38.23 7.33364 46.1617 3.10902C54.0935 -1.1156 66.7249 -0.649028 74.3683 4.15245Z" fill="#1990F2"/>
<path fill-rule="evenodd" clip-rule="evenodd" d="M48.4558 4.63164C55.8545 1.19089 64.4543 1.50637 71.581 5.47996C74.6179 7.39715 76.2382 9.81486 76.1619 12.3513C76.0855 14.8878 74.3041 17.1782 71.1653 18.8749C63.7666 22.3156 55.1668 22.0002 48.0402 18.0266C45.0032 16.1263 43.3829 13.6917 43.4592 11.1552C43.5356 8.61873 45.3086 6.32827 48.4558 4.63164ZM48.7952 17.6194C54.657 21.3011 64.3533 21.6574 70.4272 18.4253C76.5012 15.1847 76.6709 9.66216 70.8175 5.93805C64.9641 2.21393 55.2678 1.89157 49.1939 5.08973C43.1199 8.28789 42.9333 13.9377 48.7952 17.6194Z" fill="white"/>
<path d="M67.5234 11.8489L65.5299 16.3704L57.7084 15.4712C58.2004 14.309 59.4814 13.2401 61.407 12.5275C62.4847 12.1417 63.6085 11.8993 64.7494 11.8065C65.4465 11.75 66.1468 11.7443 66.8447 11.7895L67.5234 11.8489Z" fill="white"/>
<path d="M54.1369 5.65149L69.3473 7.41599L67.8712 10.7414L67.0823 10.665C66.218 10.6057 65.3507 10.6057 64.4864 10.665C63.1057 10.7653 61.7447 11.0507 60.4399 11.5134C58.1071 12.3617 56.5716 13.6681 55.9439 15.0678L50.2432 14.4061L54.1369 5.65149Z" fill="white"/>
<path d="M96.5317 63.0754L96.1415 63.2676L96.0142 63.3344L95.7512 63.4598L95.5901 63.535L95.3441 63.6436L95.1744 63.7188L94.9369 63.819L94.7587 63.8942L94.5212 63.9861L94.3346 64.0613L94.1055 64.1532L93.9104 64.2201L93.6814 64.3036L93.4862 64.3704L93.2487 64.454L93.0451 64.5208L92.8076 64.596L92.604 64.6545L92.3665 64.7297L92.1629 64.7882L91.9169 64.855L91.7133 64.9052L91.4588 64.972L91.2636 65.0221L91.0007 65.089H90.8056L90.5341 65.1474H90.339L90.0506 65.2059L89.8724 65.2477L89.5331 65.3062H89.4058L89.1344 65.3563H88.9477L88.6508 65.4064H88.4812L88.0994 65.4566L87.548 65.5151L87.1154 65.5568H86.9796H86.6827H86.53H86.2331H86.0889H85.9277H85.4612H85.2915H84.6977H82.8483H82.3139H81.8049H81.6268H81.2874H81.0838H80.7869H80.5749H80.2864H80.0659H79.7859H79.5654H79.2939L79.3234 65.3392H79.0605H78.8399L78.5769 65.2974H78.3563L78.0934 65.2557H77.8813L77.6098 65.2139L77.4062 65.1721L77.1263 65.122L76.9312 65.0802L76.6343 65.0134H76.4646L75.9895 64.9048L75.5569 64.7961H75.4212L75.0818 64.7042L74.7894 64.662L74.501 64.5868L74.3144 64.5283L74.1489 64.3213L73.8944 64.1041L73.606 64.0121L73.4278 63.9537L73.063 63.8283L72.9358 63.7866C72.7661 63.7281 72.6049 63.6696 72.4523 63.6028L71.9093 63.419L71.7651 63.3605L71.2816 63.16L70.9083 63.0179L70.7726 62.9594L70.5351 62.8425L70.3908 62.7756L70.1618 62.6587L69.9032 62.5881L69.7505 62.5045L69.53 62.3876L69.3942 62.3124L69.1567 62.1787L69.038 62.1118L68.6986 61.903C68.8429 61.8512 68.4781 61.7693 68.3763 61.6941L68.283 61.6356L68.0624 61.4852L67.9606 61.4184L67.6976 61.2429L67.4007 61.0341L67.2056 60.8753L67.002 60.7166L66.9087 60.6497L66.7051 60.4826L66.6372 60.4242L66.3827 60.2069L66.3318 60.1568L66.1367 59.9814L66.0519 59.9062L66.2161 59.6571C66.1957 59.6328 65.808 59.8221 65.7832 59.8019L65.5542 59.5764L65.3421 59.3508L65.2743 59.2756C65.2234 59.2254 65.1809 59.167 65.13 59.1085L65.0622 59.0333L64.9095 58.8495L64.8671 58.7994L64.6804 58.5571L64.5277 58.3148L64.375 58.0808C64.3249 57.9614 64.2795 57.8888 64.2393 57.8135C64.1884 57.7383 64.0057 57.7465 63.9633 57.6713L63.8862 57.4637L63.7844 57.3944C63.742 57.3108 63.5576 57.2187 63.5237 57.1351V57.0516L63.4473 56.8845C63.4369 56.8497 63.4226 56.8161 63.4049 56.7842C63.4049 56.7257 63.4049 56.6756 63.3455 56.6255C63.2862 56.5754 63.3455 56.5503 63.3031 56.5169C63.2607 56.4835 63.3031 56.4083 63.2437 56.3498V56.2746L63.1674 56.0323C63.1397 55.953 63.1171 55.8721 63.0995 55.79V55.7232L63.0486 55.5226L62.9544 54.9554L62.9625 54.5637L62.9557 54.4326C62.9557 54.2989 62.9958 54.2839 62.9958 54.2087C62.9914 54.1363 62.7791 54.2308 62.7835 54.1584V54.0916C62.7835 54.008 62.7835 53.9245 62.7835 53.8409L62.7687 59.3408V59.8922C62.7687 59.9758 62.7687 60.051 62.7687 60.1345V60.4019V60.4687V60.6776V60.7361L62.8196 60.97V61.1288C62.8236 61.1593 62.8236 61.1902 62.8196 61.2207V61.2959C62.8196 61.371 62.8196 61.4546 62.879 61.5298C62.8993 61.612 62.9248 61.6929 62.9553 61.7721V61.8473V61.9392C62.9585 61.9641 62.9585 61.9894 62.9553 62.0144C62.9657 62.0519 62.9799 62.0883 62.9977 62.123C62.9977 62.1731 62.9977 62.2232 63.0571 62.2817L63.0995 62.382L63.1759 62.5491C63.1883 62.5777 63.2025 62.6056 63.2183 62.6326C63.2527 62.7157 63.2924 62.7967 63.337 62.8749L63.4643 63.1172C63.5067 63.2425 63.5491 63.3261 63.6 63.4013C63.6 63.4681 63.6849 63.5433 63.7358 63.6102L63.8885 63.8942L64.0412 64.1449L64.2108 64.4039L64.2532 64.454L64.4059 64.6378L64.4738 64.713C64.5172 64.7724 64.5655 64.8283 64.618 64.8801L64.6859 64.9553L64.898 65.1809L65.127 65.4064L65.1949 65.4733L65.3645 65.6404L65.4409 65.7072L65.6445 65.891L65.9499 66.1584L66.0177 66.2085L66.2213 66.3756L66.3146 66.4508L66.5182 66.6095L66.5946 66.668L66.883 66.8769L67.146 67.0607L67.2393 67.1192L67.3496 67.1944L67.4684 67.2696L67.5617 67.3364L67.884 67.5369L68.2234 67.7458L68.3421 67.8126L68.5796 67.9463L68.7154 68.0215L68.9359 68.1468L69.0886 68.222L69.2159 68.2889L69.3007 68.339L69.4449 68.4142L69.674 68.5228L69.8182 68.5897L70.0557 68.7066L70.1915 68.7651L70.4968 68.9071L71.0483 69.1077L71.1925 69.1661L71.659 69.3499L72.1935 69.5254L72.3292 69.5672L72.694 69.6925H72.8721L73.1606 69.7928L73.3472 69.8512L73.6441 69.9348L73.7713 69.9766L74.1192 70.0601L74.2973 70.1102L74.6366 70.1938L75.1796 70.3024L75.697 70.411H75.8582L76.1551 70.4695L76.3502 70.5113L76.6302 70.5614L76.8757 70.6132L77.1542 70.6607L77.3528 70.6955L77.6392 70.7267L77.9809 70.7551L78.188 70.7626L78.389 70.7847L78.6268 70.8032L78.8973 70.8255L79.1669 70.8532L79.525 70.8857L79.7759 70.894L80.022 70.8999L80.244 70.908L80.5409 70.9188L80.7609 70.9168L80.9933 70.9059L81.2249 70.9087L81.596 70.9038L81.8717 70.9171L82.3489 70.9085L83.0518 70.9206L83.8624 70.8935L84.4044 70.8674L84.8861 70.8399L85.2985 70.8158L85.6865 70.7971L86.005 70.7774L86.2843 70.7464L86.4914 70.7349L86.7257 70.7086L86.9306 70.6957L87.3092 70.6491L87.722 70.5913L88.1216 70.551L88.3754 70.5265L88.5971 70.4882L88.829 70.4444L89.1004 70.3943L89.5585 70.3275H89.7367L90.0251 70.269H90.2202L90.4832 70.2021L90.6868 70.1604L90.9413 70.0935L91.1449 70.0434L91.3994 69.9849L91.603 69.9264L91.849 69.8596L92.0526 69.8011L92.2901 69.7259L92.4937 69.6674L92.7312 69.5922L92.9348 69.5254L93.1639 69.4502L93.3675 69.375L93.5965 69.2915L93.7916 69.2246L94.0207 69.1327L94.2073 69.0659L94.4448 68.9656L94.623 68.8904L94.8605 68.7902L95.0302 68.715L95.2762 68.6064L95.4374 68.5312L95.7003 68.4058L95.8276 68.3474L96.2178 68.1468C100.154 66.0832 102.156 63.2592 102.309 60.3685L102.529 54.896C102.47 58.1878 100.425 61.0034 96.5317 63.0754Z" fill="#0083FF"/>
<path d="M97.0736 46.932C104.708 51.7335 104.496 59.0544 96.5646 63.2791C88.6328 67.5037 76.0014 67.0371 68.358 62.2356C60.7147 57.4342 60.9353 50.1132 68.867 45.8886C76.7988 41.6639 89.4302 42.1305 97.0736 46.932Z" fill="#1990F2"/>
<path fill-rule="evenodd" clip-rule="evenodd" d="M71.1612 47.4112C78.5598 43.9704 87.1596 44.2859 94.2863 48.2595C97.3233 50.1767 98.9435 52.5944 98.8672 55.1309C98.7908 57.6673 97.0094 59.9578 93.8706 61.6544C86.472 65.0952 77.8721 64.7797 70.7455 60.8061C67.7085 58.9059 66.0882 56.4712 66.1646 53.9347C66.2409 51.3983 68.0139 49.1078 71.1612 47.4112ZM71.5005 60.3989C77.3624 64.0806 87.0586 64.4369 93.1326 61.2048C99.2065 57.9642 99.3762 52.4417 93.5228 48.7176C87.6694 44.9935 77.9731 44.6711 71.8992 47.8693C65.8252 51.0674 65.6386 56.7172 71.5005 60.3989Z" fill="white"/>
<path d="M90.2287 54.6284L88.2352 59.1499L80.4137 58.2507C80.9057 57.0885 82.1867 56.0197 84.1124 55.3071C85.1901 54.9212 86.3138 54.6788 87.4547 54.586C88.1518 54.5295 88.8521 54.5239 89.5501 54.569L90.2287 54.6284Z" fill="white"/>
<path d="M76.8423 48.431L92.0526 50.1955L90.5765 53.5209L89.7876 53.4446C88.9233 53.3853 88.056 53.3853 87.1917 53.4446C85.811 53.5449 84.45 53.8302 83.1453 54.2929C80.8124 55.1412 79.2769 56.4476 78.6492 57.8474L72.9485 57.1857L76.8423 48.431Z" fill="white"/>
<path d="M100.174 54.5688L99.7834 54.761L99.6562 54.8278L99.3932 54.9532L99.232 55.0284L98.986 55.137L98.8164 55.2122L98.5788 55.3124L98.4007 55.3876L98.1632 55.4795L97.9765 55.5547L97.7475 55.6466L97.5524 55.7135L97.3233 55.797L97.1282 55.8639L96.8907 55.9474L96.6871 56.0142L96.4496 56.0894L96.246 56.1479L96.0084 56.2231L95.8048 56.2816L95.5588 56.3484L95.3552 56.3986L95.1007 56.4654L94.9056 56.5155L94.6426 56.5824H94.4475L94.1761 56.6409H93.9809L93.6925 56.6993L93.5144 56.7411L93.175 56.7996H93.0478L92.7763 56.8497H92.5897L92.2928 56.8999H92.1231L91.7414 56.95L91.19 57.0085L90.7573 57.0502H90.6216H90.3247H90.172H89.8751H89.7309H89.5697H89.1031H88.9335H88.3396H86.4903H85.9559H85.4469H85.2687H84.9294H84.7258H84.4289H84.2168H83.9284H83.7078H83.4279H83.2073H82.9359L82.9654 56.8326H82.7024H82.4819L82.2189 56.7908H81.9983L81.7353 56.7491H81.5233L81.2518 56.7073L81.0482 56.6655L80.7683 56.6154L80.5731 56.5736L80.2762 56.5068H80.1066L79.6315 56.3982L79.1989 56.2896H79.0631L78.7238 56.1976L78.4314 56.1554L78.143 56.0802L77.9563 56.0217L77.7909 55.8147L77.5364 55.5975L77.2479 55.5056L77.0698 55.4471L76.705 55.3218L76.5778 55.28C76.4081 55.2215 76.2469 55.163 76.0942 55.0962L75.5513 54.9124L75.4071 54.8539L74.9235 54.6534L74.5503 54.5113L74.4146 54.4528L74.177 54.3359L74.0328 54.269L73.8038 54.1521L73.5452 54.0815L73.3925 53.9979L73.1719 53.881L73.0362 53.8058L72.7987 53.6721L72.6799 53.6053L72.3406 53.3964C72.4849 53.3446 72.12 53.2627 72.0182 53.1875L71.9249 53.129L71.7044 52.9786L71.6026 52.9118L71.3396 52.7363L71.0427 52.5275L70.8476 52.3687L70.644 52.21L70.5506 52.1432L70.3471 51.9761L70.2792 51.9176L70.0247 51.7003L69.9738 51.6502L69.7787 51.4748L69.6938 51.3996L69.8581 51.1505C69.8376 51.1262 69.4499 51.3155 69.4252 51.2953L69.1962 51.0698L68.9841 50.8442L68.9162 50.769C68.8653 50.7189 68.8229 50.6604 68.772 50.6019L68.7041 50.5267L68.5515 50.3429L68.509 50.2928L68.3224 50.0505L68.1697 49.8082L68.017 49.5742C67.9668 49.4548 67.9215 49.3822 67.8813 49.3069C67.8304 49.2317 67.6477 49.2399 67.6053 49.1647L67.5281 48.9571L67.4264 48.8878C67.384 48.8042 67.1996 48.7121 67.1656 48.6285V48.545L67.0893 48.3779C67.0788 48.3431 67.0646 48.3095 67.0469 48.2776C67.0469 48.2192 67.0469 48.169 66.9875 48.1189C66.9281 48.0688 66.9875 48.0437 66.9451 48.0103C66.9027 47.9769 66.9451 47.9017 66.8857 47.8432V47.768L66.8094 47.5257C66.7817 47.4464 66.759 47.3655 66.7415 47.2834V47.2166L66.6906 47.0161L66.5963 46.4488L66.6045 46.0571L66.5977 45.926C66.5977 45.7923 66.6378 45.7773 66.6378 45.7021C66.6334 45.6297 66.4211 45.7242 66.4255 45.6518V45.585C66.4255 45.5014 66.4255 45.4179 66.4255 45.3344L66.4106 50.8342V51.3856C66.4106 51.4692 66.4106 51.5444 66.4106 51.6279V51.8953V51.9621V52.171V52.2295L66.4615 52.4634V52.6222C66.4655 52.6527 66.4655 52.6836 66.4615 52.7141V52.7893C66.4615 52.8645 66.4615 52.948 66.5209 53.0232C66.5413 53.1054 66.5668 53.1864 66.5973 53.2655V53.3407V53.4326C66.6005 53.4576 66.6005 53.4828 66.5973 53.5078C66.6077 53.5453 66.6219 53.5817 66.6397 53.6164C66.6397 53.6665 66.6397 53.7167 66.6991 53.7751L66.7415 53.8754L66.8178 54.0425C66.8303 54.0712 66.8444 54.0991 66.8603 54.126C66.8947 54.2092 66.9344 54.2901 66.979 54.3683L67.1063 54.6106C67.1487 54.7359 67.1911 54.8195 67.242 54.8947C67.242 54.9615 67.3268 55.0367 67.3777 55.1036L67.5304 55.3876L67.6831 55.6383L67.8528 55.8973L67.8952 55.9474L68.0479 56.1312L68.1158 56.2064C68.1592 56.2658 68.2074 56.3217 68.26 56.3735L68.3278 56.4487L68.5399 56.6743L68.769 56.8999L68.8368 56.9667L69.0065 57.1338L69.0828 57.2006L69.2864 57.3844L69.5918 57.6518L69.6597 57.7019L69.8633 57.869L69.9566 57.9442L70.1602 58.103L70.2366 58.1614L70.525 58.3703L70.788 58.5541L70.8813 58.6126L70.9916 58.6878L71.1103 58.763L71.2036 58.8298L71.526 59.0303L71.8653 59.2392L71.9841 59.3061L72.2216 59.4397L72.3573 59.5149L72.5779 59.6403L72.7306 59.7154L72.8579 59.7823L72.9427 59.8324L73.0869 59.9076L73.3159 60.0162L73.4602 60.0831L73.6977 60.2L73.8334 60.2585L74.1388 60.4005L74.6902 60.6011L74.8344 60.6595L75.301 60.8434L75.8354 61.0188L75.9712 61.0606L76.336 61.1859H76.5141L76.8025 61.2862L76.9892 61.3446L77.2861 61.4282L77.4133 61.47L77.7611 61.5535L77.9393 61.6036L78.2786 61.6872L78.8215 61.7958L79.339 61.9044H79.5002L79.7971 61.9629L79.9922 62.0047L80.2721 62.0548L80.5177 62.1066L80.7962 62.1541L80.9947 62.189L81.2812 62.2201L81.6229 62.2486L81.83 62.256L82.0309 62.2781L82.2688 62.2966L82.5393 62.3189L82.7679 62.3189L83.1319 62.3097H83.3524H83.6324H83.8445H84.1414H84.3535H84.6504H84.7946H85.1933H85.363H85.8041L86.6265 62.3201L87.4529 62.2978L88.0326 62.2932L88.5373 62.2769L88.8992 62.2838L89.278 62.2442L89.5897 62.201L89.896 62.1719H90.0487L90.3247 62.1467H90.4604L90.8846 62.0966L91.3512 62.0381L91.8177 61.9796H91.9874L92.2758 61.9378H92.4709L92.7424 61.8877L93.2005 61.8209H93.3786L93.6671 61.7624H93.8622L94.1252 61.6955L94.3288 61.6538L94.5833 61.5869L94.7869 61.5368L95.0413 61.4783L95.2449 61.4198L95.491 61.353L95.6946 61.2945L95.9321 61.2193L96.1357 61.1608L96.3732 61.0856L96.5768 61.0188L96.8058 60.9436L97.0094 60.8684L97.2385 60.7849L97.4336 60.718L97.6626 60.6261L97.8493 60.5593L98.0868 60.459L98.265 60.3838L98.5025 60.2836L98.6721 60.2084L98.9182 60.0998L99.0793 60.0246L99.3423 59.8993L99.4696 59.8408L99.8598 59.6403C103.796 57.5766 105.798 54.7527 105.951 51.8619L106.171 46.3894C106.112 49.6813 104.067 52.4968 100.174 54.5688Z" fill="#0083FF"/>
<path d="M100.716 38.4254C108.35 43.2269 108.138 50.5478 100.207 54.7725C92.2748 58.9971 79.6434 58.5305 72 53.729C64.3567 48.9276 64.5772 41.6066 72.509 37.382C80.4408 33.1573 93.0722 33.6239 100.716 38.4254Z" fill="#1990F2"/>
<path fill-rule="evenodd" clip-rule="evenodd" d="M74.8031 38.9046C82.2018 35.4638 90.8016 35.7793 97.9282 39.7529C100.965 41.6701 102.586 44.0878 102.509 46.6243C102.433 49.1607 100.651 51.4512 97.5126 53.1478C90.1139 56.5886 81.5141 56.2731 74.3874 52.2995C71.3505 50.3993 69.7302 47.9646 69.8065 45.4281C69.8829 42.8917 71.6559 40.6012 74.8031 38.9046ZM75.1424 51.8923C81.0043 55.574 90.7006 55.9303 96.7745 52.6982C102.848 49.4577 103.018 43.9351 97.1648 40.211C91.3114 36.4869 81.6151 36.1645 75.5412 39.3627C69.4672 42.5608 69.2806 48.2106 75.1424 51.8923Z" fill="white"/>
<path d="M93.8707 46.1218L91.8771 50.6434L84.0557 49.7441C84.5477 48.5819 85.8286 47.5131 87.7543 46.8005C88.832 46.4146 89.9558 46.1722 91.0967 46.0794C91.7938 46.023 92.4941 46.0173 93.192 46.0624L93.8707 46.1218Z" fill="white"/>
<path d="M80.4842 39.9244L95.6946 41.6889L94.2185 45.0143L93.4295 44.938C92.5653 44.8787 91.698 44.8787 90.8337 44.938C89.453 45.0383 88.092 45.3236 86.7872 45.7863C84.4544 46.6346 82.9189 47.941 82.2911 49.3408L76.5905 48.6791L80.4842 39.9244Z" fill="white"/>
<path d="M43.8343 60.4675L43.4158 60.7046L43.2752 60.7803L42.9908 60.935L42.8175 61.0239L42.5592 61.1556L42.3696 61.2478L42.1178 61.3696L41.9217 61.4618L41.6699 62.8536L41.464 62.9425L41.2122 61.7779L41.003 61.8635L40.7512 61.9688L40.5387 63.3277C40.4537 63.3607 40.3687 63.3969 40.2804 63.4265L40.0646 62.2322L39.8063 62.3277L39.5873 62.4034L39.3225 62.4956L39.1034 62.568L38.8353 62.6569L38.6163 62.7261L38.3416 62.8084L38.1193 62.8742L37.8381 62.9565L37.6223 63.0158L37.3281 63.0948L37.1189 63.1475L36.7919 63.2265L36.599 63.2726L36.223 63.3615L36.089 63.3911L35.7882 63.4537L35.5855 63.4998L35.2585 63.5623L35.0722 63.5985L34.6537 63.6743L34.0521 63.7763L33.5813 63.8455L33.4342 63.8652L33.1072 63.9113L32.9405 63.9311L32.6135 63.9706L32.4599 63.9903L32.2833 64.0068L31.7635 64.0595H31.5869L30.933 64.1121L30.3217 64.1451H30.1255L29.6907 64.1615H29.4879H29.076H27.5524H27.1797H26.9509H26.6239H26.3852H26.0583L25.8164 64.1451L25.5123 64.1253L25.2704 64.1055L24.9663 64.0792L24.7244 64.0562L24.4334 64.0265L24.1882 64.0035L23.8939 63.9673L23.6552 63.9376L23.361 63.9014L23.1256 63.8685L22.8281 63.8257L22.5992 63.7895L22.2919 63.7401L22.0761 63.7039C21.9649 63.7039 21.857 63.6644 21.7492 63.6446L21.5595 63.6117L21.0364 63.5096L20.5166 63.4076L20.3629 63.3747L19.9902 63.2891L19.7908 63.2397L19.4638 63.1607L19.2578 63.108L18.9309 63.0191L18.7216 62.9598L18.3947 62.8676L18.1953 62.8084L17.7898 62.6833L17.6427 62.6372L17.1033 62.4561L16.505 62.2421L16.3415 62.1795C16.1617 62.1104 15.9786 62.0413 15.802 61.9688L15.6745 61.9194L15.3476 61.7779L15.2004 61.712L14.9291 61.5935L14.7721 61.5211L14.5171 61.4058L14.3569 61.3301L14.1117 61.2116L13.945 61.126L13.6998 61.0009L13.5428 60.9186L13.278 60.777L13.1472 60.7046L12.7582 60.4873L12.3985 60.27L12.2939 60.2074C12.2089 60.1548 12.1239 60.1021 12.0421 60.0461L11.931 59.977L11.6367 59.7827L11.264 59.5259L11.1725 59.4601L10.9436 59.2922L10.839 59.2132L10.6101 59.0387L10.5317 58.9761L10.2407 58.7391L9.95624 58.4954L9.86796 58.4164L9.67506 58.2419L9.59333 58.1662C9.50505 58.0839 9.42005 58.0049 9.33831 57.9226L9.08983 58.949L9.0179 58.8732L8.84789 58.6889L8.77269 58.6066L8.59614 58.4057L8.55037 58.3498C8.47517 58.2642 8.40325 58.1753 8.33459 58.0897C8.23977 57.9711 8.18419 57.8954 8.12861 57.8197L7.90956 57.5201L7.87032 57.4641C7.81801 57.3851 7.76243 57.3094 7.71339 57.2304C7.63819 57.1118 7.58261 57.0262 7.5303 56.9406L7.49434 56.8781C7.44203 56.7925 7.39298 56.7036 7.34394 56.6147C7.2949 56.5126 7.24913 56.4237 7.20336 56.3349L7.15758 56.2394C7.12489 56.1768 7.09546 56.1143 7.06604 56.0517L7.017 55.9398C6.98757 55.8805 6.96469 55.8245 6.93853 55.7653L6.88949 55.6501L6.81429 55.4624L6.78487 55.3801C6.75217 55.2912 6.71948 55.199 6.69005 55.1068C6.66063 55.0179 6.63447 54.9257 6.60832 54.8369C6.59875 54.81 6.5911 54.7825 6.58543 54.7545C6.56254 54.6821 6.54293 54.6097 6.52658 54.534C6.50369 54.3924 6.48408 54.3035 6.46446 54.2146C6.46567 54.1938 6.46567 54.1729 6.46446 54.152C6.46446 54.0763 6.43503 53.9973 6.42196 53.9183C6.42196 53.78 6.3958 53.6911 6.38272 53.6022C6.38272 53.5825 6.38272 53.5627 6.38272 53.543C6.38272 53.4541 6.36311 53.3619 6.35657 53.273C6.35657 53.1676 6.35657 53.0853 6.35657 53.003C6.35494 52.9767 6.35494 52.9503 6.35657 52.924C6.35657 52.8318 6.35657 52.7396 6.35657 52.6475V58.8107C6.35657 58.9029 6.35657 58.995 6.35657 59.0872C6.3582 59.1135 6.3582 59.1399 6.35657 59.1662C6.35657 59.1959 6.35657 59.2255 6.35657 59.2551V59.4132C6.35657 59.5251 6.37291 59.6173 6.38599 59.7095C6.38599 59.8478 6.40561 59.9301 6.41869 60.0124C6.42022 60.0189 6.41869 60.0815 6.41869 60.0815C6.41869 60.1605 6.44484 60.2395 6.46119 60.3186C6.46119 60.3383 6.46119 60.3581 6.46119 60.3778L6.52004 60.6478C6.52004 60.74 6.54293 60.7795 6.55273 60.8223C6.56254 60.8651 6.57235 60.8881 6.57889 60.9211C6.58802 60.9469 6.59566 60.9733 6.60178 61.0001C6.62793 61.089 6.65736 61.1811 6.68678 61.27L6.78487 61.5433L6.81429 61.6223L6.85352 61.7211C6.85352 61.7507 6.87641 61.7803 6.88949 61.81L6.93853 61.9252C6.96142 61.9845 6.98757 62.0437 7.01373 62.0997C7.02918 62.1379 7.04665 62.1753 7.06604 62.2116C7.09546 62.2742 7.12489 62.3367 7.15758 62.3993C7.17086 62.4321 7.18615 62.4639 7.20336 62.4948C7.24913 62.5837 7.2949 62.6726 7.34394 62.7615L7.49434 63.0248L7.5303 63.0841C7.58261 63.1697 7.63492 63.2553 7.6905 63.3409C7.76243 63.4528 7.81474 63.5319 7.87032 63.6076C7.88345 63.6255 7.89546 63.6442 7.90629 63.6636L8.08938 63.9171L8.29862 64.1903L8.3542 64.2562L8.5471 64.4932L8.59614 64.5492L8.77269 64.75L8.84789 64.8323L9.0179 65.0167L9.08983 65.0924L9.33504 65.3426C9.41678 65.4249 9.50178 65.5072 9.59006 65.5863L9.66852 65.662L9.86469 65.8365L9.95297 65.9155C10.0282 65.9813 10.1001 66.0472 10.1786 66.1097L10.5284 66.3962L10.6069 66.4587C10.6821 66.518 10.7573 66.5773 10.8357 66.6332L10.9371 66.7122L11.1692 66.8801L11.2607 66.946L11.5877 67.1732L11.9277 67.397L12.0356 67.4695L12.1598 67.5485L12.2906 67.6275L12.3952 67.6933L12.7549 67.9073L13.144 68.1279L13.2747 68.1971C13.3597 68.2465 13.448 68.2926 13.5363 68.3386L13.6965 68.4209L13.9384 68.5461L14.1084 68.6317L14.2523 68.7041L14.3537 68.7502L14.5139 68.8259L14.7656 68.9444L14.9258 69.0136L15.1972 69.1354L15.3443 69.1979L15.6712 69.3395L15.7857 69.3724L16.3284 69.5864L16.4886 69.6457L17.0117 69.8334L17.6296 70.0342L17.7768 70.0803L18.2083 70.2251L18.411 70.2844L18.738 70.3766L18.9472 70.4358L19.2742 70.5247L19.4115 70.561L19.8038 70.6564L20.0033 70.7058L20.376 70.7914L20.51 70.8243L21.0037 70.9231L21.5693 71.0252L21.759 71.0581L22.0859 71.1174L22.2984 71.1503L22.609 71.203L22.8346 71.2326L23.1354 71.2754L23.3708 71.3083L23.6651 71.3478L23.9037 71.3676L24.198 71.4038L24.4399 71.4301L24.7342 71.4598H24.9728L25.2802 71.4861L25.5221 71.5058L25.8262 71.5256H26.0648H26.3918H26.6272H26.9541H27.1143H27.5524H29.076H29.4879H29.6939L30.1288 71.5058H30.3217L30.8709 71.4729L31.5902 71.4202H31.7668L32.2866 71.3676H32.4599L32.6168 71.3478C32.7247 71.3478 32.8326 71.3248 32.9438 71.3083L33.1138 71.2886L33.4407 71.2425L33.5878 71.2227L34.0554 71.1536L34.5687 71.068L35.0787 70.9758L35.2618 70.9396L35.5887 70.877L35.7947 70.8342L36.0922 70.7684L36.2198 70.7387L36.5957 70.6531L36.7854 70.6038L37.1123 70.528L37.3216 70.4721L37.6158 70.393L37.8349 70.3338L38.116 70.2515L38.3351 70.1856L38.6097 70.1033L38.832 70.0342L39.1001 69.9486L39.3192 69.8729L39.584 69.784L39.8031 69.705L40.0614 69.6095L40.2771 69.5305L40.5354 69.4284L40.7479 69.3461L40.9997 69.2407L41.2089 69.1551L41.4607 69.0465L41.6634 68.9543L41.9151 68.8391L42.1113 68.7502L42.3663 68.6251L42.5527 68.5329L42.8142 68.4012L42.9875 68.3123L43.272 68.1576L43.4126 68.0818L43.831 67.8448C48.0813 65.3591 50.2032 62.1063 50.213 58.8469L50.2294 52.6837C50.2065 56.0056 48.0813 57.9818 43.8343 60.4675Z" fill="#0083FF"/>
<path d="M43.7329 43.6265C52.3381 48.6275 52.3839 56.7398 43.8343 61.7342C35.2847 66.7287 21.3797 66.7353 12.7745 61.7342C4.16929 56.7332 4.12679 48.6176 12.6731 43.6265C21.2195 38.6353 35.1277 38.6189 43.7329 43.6265Z" fill="#1990F2"/>
<path fill-rule="evenodd" clip-rule="evenodd" d="M28.1964 42.1812C33.0058 42.1812 37.534 43.2808 40.9473 45.2562C44.3639 47.2414 46.2634 49.8654 46.2634 52.6836C46.2634 55.5019 44.4227 58.1291 41.0323 60.1111C37.6419 62.0931 33.1268 63.1861 28.3174 63.1861C23.508 63.1861 18.9798 62.0964 15.5665 60.1111C12.1532 58.1258 10.27 55.5019 10.2504 52.6836C10.2308 49.8654 12.0911 47.2382 15.4815 45.2562C18.8719 43.2742 23.3871 42.1812 28.1964 42.1812ZM16.3839 59.6304C22.9718 63.4594 33.663 63.4594 40.2019 59.6304C46.7473 55.8015 46.7113 49.5724 40.1234 45.7401C33.5354 41.9079 22.8541 41.9112 16.3087 45.7401C9.76325 49.5691 9.79594 55.8015 16.3839 59.6304Z" fill="white"/>
<path d="M30.2896 50.1647C28.0744 49.4519 26.5411 48.2242 25.8811 46.8247L34.5707 45.002L37.2139 50.4781C34.9166 50.9699 32.5329 50.862 30.2896 50.1647Z" fill="white"/>
<path d="M22.8068 59.1949L17.678 48.5477L24.0109 47.2147C24.8454 48.9068 26.682 50.4075 29.3639 51.2734C32.0929 52.1116 34.9888 52.2395 37.7813 51.6453L39.7066 55.6397L22.8068 59.1949Z" fill="white"/>
<path d="M37.723 52.9166L37.3045 53.1536L37.1639 53.2294L36.8795 53.3841L36.7062 53.473L36.4479 53.6047L36.2583 53.6969L36.0065 53.8187L35.8104 53.9109L35.5586 54.0261L35.3526 54.115L35.1009 54.2269L34.8916 54.3125L34.6399 54.4179L34.4274 54.5002C34.3424 54.5331 34.2574 54.5693 34.1691 54.599L33.9533 54.6813L33.695 54.7768L33.476 54.8525L33.2111 54.9447L32.9921 55.0171L32.724 55.106L32.5049 55.1751L32.2303 55.2574L32.008 55.3233L31.7268 55.4056L31.511 55.4649L31.2168 55.5439L31.0075 55.5965L30.6806 55.6756L30.4877 55.7217L30.1117 55.8105L29.9776 55.8402L29.6769 55.9027L29.4742 54.6722L29.1472 54.7348L28.9608 54.771L28.5424 54.8467L27.9408 54.9488L27.47 55.0179L27.3229 55.0377L26.9959 55.0838L26.8292 55.1035L26.5022 55.143L26.3486 55.1628L26.172 55.1792L25.6522 55.2319H25.4756L24.8217 55.2846L24.2103 55.3175H24.0142L23.5793 55.334H23.3766H22.9647H21.4411H21.0684H20.8395H20.5126H20.2739H19.947L19.705 55.3175L19.401 55.2978L19.159 55.278L18.855 55.2517L18.613 55.2286L18.322 55.199L18.0768 55.176L17.7826 55.1397L17.5439 55.1101L17.2497 55.0739L17.0143 55.041L16.7167 54.9982L16.4879 54.962L16.1806 54.9126L15.9648 54.8764C15.8536 54.8764 15.7457 54.8368 15.6378 54.8171L15.4482 54.7842L14.9251 54.6821L14.4052 54.58L14.2516 54.5471L13.8789 54.4615L13.6794 54.4121L13.3525 54.3331L13.1465 54.2804L12.8196 54.1916L12.6103 54.1323L12.2834 54.0401L12.0839 53.9808L11.6785 53.8557L11.5314 53.8096L10.9919 53.6286L10.3936 53.4146L10.2301 53.352C10.0503 53.2829 9.86724 53.2137 9.69069 53.1413L9.56318 53.0919L9.23624 52.9503L9.08911 52.8845L8.81775 52.766L8.66081 52.6935L8.4058 52.5783L8.24559 52.5026L8.00038 52.3841L7.83364 52.2985L7.58843 52.1734L7.4315 52.0911L7.16667 51.9495L7.03589 51.8771L6.64683 51.6598L6.28719 51.4425L6.18257 51.3799C6.09756 51.3272 6.01256 51.2746 5.93082 51.2186L5.81966 51.1495L5.52541 50.9552L5.15269 50.6984L5.06114 50.6326L4.83228 50.4646L4.72766 50.3856L4.4988 50.2111L4.42033 50.1486L4.12935 49.9115L3.84491 49.6679L3.75663 49.5889L3.56373 49.4144L3.482 49.3387C3.39372 49.2564 3.30872 49.1774 3.22698 49.095L2.9785 48.8448L2.90657 48.7691L2.73656 48.5847L2.66137 48.5024L2.48481 48.3016C2.36385 48.16 2.29192 48.0711 2.22326 47.9855C2.12844 47.867 2.07286 47.7913 2.01728 47.7156L1.79823 47.416C1.70669 47.281 1.6511 47.2053 1.60206 47.1262C1.52687 47.0077 1.47128 46.9221 1.41897 46.8365L1.38301 46.774C1.3307 46.6884 1.28166 46.5995 1.23261 46.5106C1.18357 46.4085 1.1378 46.3196 1.09203 46.2307L1.04626 46.1353C1.01356 46.0727 0.984136 46.0101 0.954711 45.9476L0.905669 45.8357C0.876244 45.7764 0.853358 45.7204 0.827202 45.6612L0.77816 45.5459L0.702963 45.3583L0.673538 45.276C0.640843 45.1871 0.608149 45.0949 0.578724 45.0027C0.549299 44.9138 0.523143 44.8216 0.496987 44.7327C0.487423 44.7059 0.479774 44.6784 0.474101 44.6504C0.451215 44.578 0.431598 44.5056 0.415251 44.4298C0.392365 44.2883 0.372748 44.1994 0.353131 44.1105C0.354347 44.0896 0.354347 44.0688 0.353131 44.0479C0.353131 43.9722 0.323706 43.8932 0.310628 43.8142C0.310628 43.6759 0.284473 43.587 0.271395 43.4981C0.271395 43.35 0.251778 43.2578 0.245239 43.1689C0.245239 43.0635 0.245239 42.9812 0.245239 42.8989C0.243612 42.8726 0.243612 42.8462 0.245239 42.8199C0.245239 42.7277 0.245239 42.6355 0.245239 42.5433V49.9831C0.245239 50.0753 0.245239 50.1675 0.245239 50.2597C0.246867 50.286 0.246867 50.3124 0.245239 50.3387C0.245239 50.3683 0.245239 50.398 0.245239 50.4276V50.5856C0.245239 50.6976 0.261587 50.7898 0.274665 50.8819C0.274665 51.0202 0.294281 51.1025 0.307359 51.1848C0.308889 51.1913 0.307359 51.254 0.307359 51.254C0.307359 51.333 0.333515 51.412 0.349862 51.491C0.349862 51.5108 0.408712 51.8203 0.408712 51.8203C0.408712 51.9124 0.431598 51.952 0.441407 51.9948C0.451215 52.0376 0.461023 52.0606 0.467562 52.0935C0.476693 52.1194 0.484334 52.1458 0.490448 52.1725C0.516604 52.2614 0.546029 52.3536 0.575454 52.4425L0.673538 52.7158L0.702963 52.7948L0.742196 52.8936C0.742196 52.9232 0.765083 52.9528 0.77816 52.9824L0.827202 53.0977C0.850088 53.1569 0.876244 53.2162 0.9024 53.2722C0.917856 53.3104 0.935318 53.3478 0.954711 53.3841C0.984136 53.4467 1.01356 53.5092 1.04626 53.5718C1.05953 53.6045 1.07482 53.6364 1.09203 53.6672C1.1378 53.7561 1.18357 53.845 1.23261 53.9339L1.38301 54.1973L1.41897 54.2566C1.47128 54.3422 1.5236 54.4278 1.57918 54.5134C1.6511 54.6253 1.70342 54.7043 1.759 54.7801C1.77212 54.7979 1.97805 55.0895 1.97805 55.0895L2.18729 55.3628L2.24288 55.4286L2.43577 55.6657L2.66137 55.9225L2.73656 56.0048L2.90657 56.1892L2.9785 56.2649L3.22371 56.5151C3.30545 56.5974 3.39045 56.6797 3.47873 56.7587L3.5572 56.8345L3.75336 57.009L3.84164 57.088C3.91684 57.1538 3.98876 57.2197 4.06723 57.2822L4.41706 57.5686L4.49553 57.6312C4.57073 57.6905 4.64592 57.7497 4.72439 57.8057L4.82574 57.8847L5.05787 58.0526L5.14942 58.1185L5.47636 58.3456L5.81639 58.5695L5.92428 58.6419L6.04852 58.721L6.1793 58.8L6.28392 58.8658L6.64356 59.0798L7.03262 59.3004L7.1634 59.3695C7.24841 59.4189 7.33668 59.465 7.42496 59.5111L7.58516 59.5934L7.8271 59.7185L7.99711 59.8041L8.14097 59.8766L8.24232 59.9227L8.40252 59.9984L8.65427 60.1169L8.81448 60.186L9.08584 60.3079L9.23297 60.3704L9.55991 60.512L9.67434 60.5449L10.2171 60.7589L10.3773 60.8182L10.9004 61.0058L11.5183 61.2067L11.6654 61.2527L12.097 61.3976L12.2997 61.4569L12.6267 61.5491L12.8359 61.6083L13.1628 61.6972L13.3002 61.7334L13.6925 61.8289L13.8919 61.8783L14.2647 61.9639L14.3987 61.9968L14.8924 62.0956L15.458 62.1976L15.6476 62.2306L15.9746 62.2898L16.1871 62.3228L16.4977 62.3754L16.7233 62.4051L17.0241 62.4479L17.2595 62.4808L17.5537 62.5203L17.7924 62.54L18.0866 62.5763L18.3286 62.6026L18.6228 62.6322H18.8615L19.1688 62.6586L19.4108 62.6783L19.7148 62.6981H19.9535H20.2804H20.5159H20.8428H21.003H21.4411H22.9647H23.3766H23.5826L24.0174 62.6783H24.2103L24.7596 62.6454L25.4789 62.5927H25.6554L26.1753 62.54H26.3486L26.5055 62.5203C26.6134 62.5203 26.7213 62.4972 26.8324 62.4808L27.0024 62.461L27.3294 62.4149L27.4765 62.3952L27.944 62.326L28.4574 62.2404L28.9674 62.1483L29.1505 62.112L29.4774 62.0495L29.6834 62.0067L29.9809 61.9408L30.1084 61.9112L30.4844 61.8256L30.674 61.7762L31.001 61.7005L31.2102 61.6445L31.5045 61.5655L31.7235 61.5063L32.0047 61.4239L32.2238 61.3581L32.4984 61.2758L32.7207 61.2067L32.9888 61.1211L33.2079 61.0453L33.4727 60.9564L33.6917 60.8774L33.95 60.7819L34.1658 60.7029L34.4241 60.6009L34.6366 60.5186L34.8884 60.4132L35.0976 60.3276L35.3494 60.219L35.5521 60.1268L35.8038 60.0115L36 59.9227L36.255 59.7975L36.4414 59.7054L36.7029 59.5737L36.8762 59.4848L37.1606 59.33L37.3012 59.2543L37.7197 59.0173C41.97 56.5316 44.0919 53.2788 44.1017 50.0194L44.118 43.8561C44.0951 47.1781 41.97 50.4309 37.723 52.9166Z" fill="#0083FF"/>
<path d="M37.6216 34.799C46.2268 39.8 46.2726 47.9123 37.723 52.9067C29.1733 57.9012 15.2684 57.9077 6.66316 52.9067C-1.94204 47.9057 -1.98454 39.7901 6.56181 34.799C15.1082 29.8078 29.0164 29.7914 37.6216 34.799Z" fill="#1990F2"/>
<path fill-rule="evenodd" clip-rule="evenodd" d="M22.0851 33.3536C26.8945 33.3536 31.4227 34.4533 34.836 36.4287C38.2525 38.4139 40.1521 41.0379 40.1521 43.8561C40.1521 46.6744 38.3114 49.3016 34.921 51.2836C31.5306 53.2656 27.0154 54.3586 22.2061 54.3586C17.3967 54.3586 12.8685 53.2689 9.4552 51.2836C6.04189 49.2983 4.15869 46.6744 4.13907 43.8561C4.11945 41.0379 5.97977 38.4106 9.37019 36.4287C12.7606 34.4467 17.2757 33.3536 22.0851 33.3536ZM10.2726 50.8029C16.8605 54.6319 27.5516 54.6319 34.0905 50.8029C40.636 46.974 40.6 40.7449 34.0121 36.9126C27.4241 33.0804 16.7428 33.0837 10.1974 36.9126C3.65192 40.7416 3.68462 46.974 10.2726 50.8029Z" fill="white"/>
<path d="M24.1782 41.3372C21.9631 40.6244 20.4298 39.3967 19.7697 37.9972L28.4594 36.1745L31.1026 41.6506C28.8052 42.1424 26.4216 42.0345 24.1782 41.3372Z" fill="white"/>
<path d="M16.6955 50.3675L11.5666 39.7202L17.8995 38.3872C18.7341 40.0794 20.5707 41.5801 23.2525 42.4459C25.9816 43.2841 28.8775 43.4121 31.67 42.8178L33.5953 46.8123L16.6955 50.3675Z" fill="white"/>
<path d="M47.2296 45.4473L46.8111 45.6843L46.6705 45.76L46.3861 45.9148L46.2128 46.0037L45.9545 46.1354L45.7649 46.2275L45.5131 46.3494L45.3169 46.4415L45.0652 46.5568L44.8592 46.6457L44.6075 46.7576L44.3982 46.8432L44.1465 46.9486L43.934 47.0309C43.849 47.0638 43.764 47.1 43.6757 47.1296L43.4599 47.2119L43.2016 47.3074L42.9826 47.3831L42.7177 47.4753L42.4987 47.5478L42.2306 47.6366L42.0115 47.7058L41.7369 47.7881L41.5146 47.8539L41.2334 47.9362L41.0176 47.9955L40.7234 48.0745L40.5141 48.1272L40.1872 48.2062L39.9943 48.2523L39.6183 48.3412L39.4842 48.3708L39.1834 48.4334L38.9807 48.4795L38.6538 48.542L38.4674 48.5782L38.0489 48.654L37.9574 48.6704L37.4474 48.756L36.9766 48.8252L36.8294 48.8449L36.5025 48.891L36.3358 48.9108L36.0088 48.9503L35.8551 48.97L35.6786 48.9865L35.1588 49.0392H34.9822L34.3283 49.0919H34.2629L33.7169 49.1248H33.5208L33.0859 49.1412H32.8832H32.4713H30.9477H30.575H30.3461H30.0192H29.7805H29.4536L29.2116 49.1248L28.9076 49.105L28.6656 49.0853L28.3616 49.0589L28.1196 49.0359L27.8286 49.0063L27.5834 48.9832L27.2892 48.947L27.0505 48.9174L26.7563 48.8811L26.5209 48.8482L26.2233 48.8054L25.9945 48.7692L25.6871 48.7198L25.4714 48.6836C25.3602 48.6836 25.2523 48.6441 25.1444 48.6243L24.9548 48.5914L24.4317 48.4894H24.3892L23.9118 48.3873L23.7582 48.3544L23.3855 48.2688L23.186 48.2194L22.8591 48.1404L22.6531 48.0877L22.3261 47.9988L22.1169 47.9395L21.79 47.8474L21.5905 47.7881L21.1851 47.663L21.038 47.6169L20.4985 47.4358L20.4201 47.4095L19.9002 47.2218L19.7367 47.1593C19.5569 47.0901 19.3738 47.021 19.1973 46.9486L19.1515 46.9321L19.0698 46.8992L18.7428 46.7576L18.5957 46.6918L18.3243 46.5732L18.1674 46.5008L17.9124 46.3856L17.7522 46.3098L17.507 46.1913L17.3402 46.1057L17.095 45.9806L16.9381 45.8983L16.6733 45.7567L16.5425 45.6843L16.1534 45.467L15.7938 45.2497L15.6892 45.1872C15.6042 45.1345 15.5191 45.0818 15.4374 45.0258L15.3262 44.9567L15.032 44.7625L14.9862 44.7328L14.6593 44.5057L14.5677 44.4398L14.3389 44.2719L14.2343 44.1929L14.0054 44.0184L13.9269 43.9558L13.6359 43.7188L13.5771 43.6694L13.3515 43.4752L13.2632 43.3961L13.0703 43.2217L12.9886 43.1459C12.9003 43.0636 12.8153 42.9846 12.7336 42.9023L12.4851 42.6521L12.4132 42.5764L12.2432 42.392L12.168 42.3097L11.9914 42.1088L11.9456 42.0529C11.8704 41.9673 11.7985 41.8784 11.7299 41.7928L11.6972 41.75C11.635 41.6743 11.5795 41.5985 11.5239 41.5228L11.4846 41.4767L11.3048 41.2232L11.2656 41.1672C11.2133 41.0882 11.1577 41.0125 11.1087 40.9335L11.089 40.9006C11.0335 40.815 10.9779 40.7294 10.9256 40.6438L10.8896 40.5812C10.8373 40.4956 10.7882 40.4067 10.7392 40.3178V40.3014C10.6902 40.2158 10.6444 40.1269 10.5986 40.038L10.5528 39.9425C10.5202 39.8799 10.4907 39.8174 10.4613 39.7548L10.4123 39.6429C10.3828 39.5836 10.3599 39.5277 10.3338 39.4684L10.2848 39.3532L10.2096 39.1655L10.1801 39.0832C10.1474 38.9943 10.1147 38.9021 10.0853 38.8099C10.0559 38.7211 10.0297 38.6289 10.0036 38.54C9.99401 38.5131 9.98637 38.4856 9.98069 38.4577C9.95781 38.3852 9.93819 38.3128 9.92184 38.2371C9.91998 38.2196 9.91998 38.2019 9.92184 38.1844C9.89896 38.0955 9.87934 38.0066 9.85972 37.9177C9.86094 37.8969 9.86094 37.876 9.85972 37.8552C9.85972 37.7795 9.8303 37.7004 9.81722 37.6214C9.81722 37.6214 9.81722 37.5885 9.81722 37.572C9.81722 37.4831 9.79106 37.3943 9.77799 37.3054C9.77799 37.2856 9.77799 37.2658 9.77799 37.2461C9.77799 37.1572 9.75837 37.065 9.75183 36.9761V36.9531C9.75183 36.8708 9.75183 36.7885 9.75183 36.7062C9.7502 36.6798 9.7502 36.6535 9.75183 36.6271C9.75183 36.535 9.75183 36.4428 9.75183 36.3506V42.5138C9.75183 42.606 9.75183 42.6982 9.75183 42.7904C9.75346 42.8167 9.75346 42.8431 9.75183 42.8694C9.75183 42.899 9.75183 42.9286 9.75183 42.9583V43.1163V43.1393C9.75183 43.2282 9.76818 43.3204 9.78126 43.4126C9.77984 43.4312 9.77984 43.4499 9.78126 43.4686C9.78126 43.5509 9.80087 43.6332 9.81395 43.7155C9.81548 43.722 9.81548 43.7288 9.81395 43.7353V43.7846C9.81395 43.8637 9.84011 43.9427 9.85645 44.0217C9.85645 44.0414 9.85645 44.0612 9.85645 44.0809L9.9153 44.3509C9.91678 44.3673 9.91678 44.3839 9.9153 44.4003C9.9153 44.4431 9.93819 44.4826 9.948 44.5254C9.95781 44.5682 9.96762 44.5913 9.97415 44.6242C9.98328 44.6501 9.99093 44.6764 9.99704 44.7032C10.0232 44.7921 10.0526 44.8843 10.082 44.9732L10.1801 45.2464L10.2096 45.3254L10.2488 45.4242C10.2488 45.4538 10.2717 45.4835 10.2848 45.5131L10.3338 45.6283C10.3567 45.6876 10.3828 45.7469 10.409 45.8028C10.4244 45.841 10.4419 45.8784 10.4613 45.9148C10.4907 45.9773 10.5202 46.0399 10.5528 46.1024C10.5661 46.1352 10.5814 46.1671 10.5986 46.1979C10.6444 46.2868 10.6902 46.3757 10.7392 46.4646L10.8896 46.728L10.9256 46.7872C10.9779 46.8728 11.0302 46.9584 11.0858 47.044L11.1054 47.077C11.1577 47.156 11.21 47.235 11.2656 47.3107C11.2787 47.3286 11.2907 47.3473 11.3016 47.3667L11.4846 47.6202L11.5206 47.6663L11.6939 47.8934L11.7299 47.9362L11.7495 47.9593L11.9424 48.1963L11.9914 48.2523L12.168 48.4531L12.2432 48.5354L12.4132 48.7198L12.4851 48.7955L12.7303 49.0458C12.812 49.1281 12.897 49.2104 12.9853 49.2894L13.0638 49.3651L13.26 49.5396L13.3482 49.6186C13.4234 49.6845 13.4954 49.7503 13.5738 49.8129L13.6327 49.8623L13.9237 50.0993L14.0021 50.1619C14.0773 50.2211 14.1525 50.2804 14.231 50.3363L14.3323 50.4154L14.5645 50.5833L14.656 50.6491L14.983 50.8763L15.0287 50.9092L15.323 51.1002L15.4309 51.1726L15.5551 51.2516L15.6859 51.3306L15.7905 51.3965L16.1502 51.6105L16.5392 51.8311L16.67 51.9002C16.755 51.9496 16.8433 51.9957 16.9316 52.0418L17.0918 52.1241L17.3337 52.2492L17.5037 52.3348L17.6476 52.4072L17.7489 52.4533L17.9091 52.529L18.1609 52.6476L18.3211 52.7167L18.5924 52.8385L18.7396 52.9011L19.0665 53.0426L19.145 53.0756H19.1809L19.7237 53.2896L19.8839 53.3488L20.407 53.5365L20.4658 53.5562H20.4854L21.0249 53.7373L21.172 53.7834L21.6036 53.9283L21.6886 53.9546L21.8063 53.9875L22.1333 54.0797L22.3425 54.139L22.6694 54.2279L22.8068 54.2641L22.8721 54.2805L23.1991 54.3596L23.3985 54.4089L23.7712 54.4945L23.9053 54.5275H23.9249L24.399 54.6262H24.4415L24.9646 54.7283H24.9809L25.1542 54.7612L25.4812 54.8205L25.6937 54.8534L26.0043 54.9061H26.0435L26.2299 54.9357L26.5307 54.9785L26.7661 55.0114L27.0603 55.0509H27.1224L27.299 55.0707L27.5932 55.1069L27.8352 55.1333L28.1294 55.1629H28.2177H28.3681L28.6754 55.1892L28.9174 55.209L29.2214 55.2287H29.3457H29.4601H29.787H30.0224H30.3494H30.5096H30.5782H30.9477H32.4713H32.8832H33.0892L33.524 55.209H33.7169L34.2662 55.1761H34.3316L34.9855 55.1234H35.162L35.6819 55.0707H35.7865H35.8551L36.0121 55.0509C36.12 55.0509 36.2279 55.0279 36.339 55.0114L36.509 54.9917L36.836 54.9456L36.9831 54.9258L37.4506 54.8567L37.9639 54.7711L38.0522 54.7546L38.474 54.6789L38.6571 54.6427L38.984 54.5801L39.19 54.5373L39.4875 54.4715L39.615 54.4419L39.991 54.3563L40.1806 54.3069L40.5076 54.2312L40.7168 54.1752L41.0111 54.0962L41.2301 54.0369L41.5113 53.9546L41.7304 53.8888L42.005 53.8064L42.2273 53.7373L42.4954 53.6517L42.7145 53.576L42.9793 53.4871L43.1983 53.4081L43.4566 53.3126L43.6724 53.2336L43.9307 53.1315L44.1432 53.0492L44.395 52.9439L44.6042 52.8583L44.8559 52.7496L45.0587 52.6574L45.3104 52.5422L45.5066 52.4533L45.7616 52.3282L45.9479 52.236L46.2095 52.1043L46.3828 52.0154L46.6672 51.8607L46.8078 51.785L47.2263 51.5479C51.4766 49.0622 53.5985 45.8094 53.6083 42.55L53.6246 36.3868C53.6017 39.7087 51.4766 42.9616 47.2296 45.4473Z" fill="#0083FF"/>
<path d="M47.1282 27.3296C55.7334 32.3306 55.7792 40.4429 47.2296 45.4374C38.6799 50.4318 24.775 50.4384 16.1698 45.4374C7.56455 40.4363 7.52205 32.3208 16.0684 27.3296C24.6148 22.3385 38.523 22.322 47.1282 27.3296Z" fill="#1990F2"/>
<path fill-rule="evenodd" clip-rule="evenodd" d="M31.5917 25.8843C36.4011 25.8843 40.9292 26.9839 44.3426 28.9593C47.7591 30.9446 49.6587 33.5685 49.6587 36.3868C49.6587 39.205 47.818 41.8323 44.4276 43.8142C41.0371 45.7962 36.522 46.8893 31.7127 46.8893C26.9033 46.8893 22.3751 45.7995 18.9618 43.8142C15.5485 41.829 13.6653 39.205 13.6457 36.3868C13.626 33.5685 15.4864 30.9413 18.8768 28.9593C22.2672 26.9773 26.7823 25.8843 31.5917 25.8843ZM19.7792 43.3336C26.3671 47.1625 37.0582 47.1625 43.5971 43.3336C50.1426 39.5046 50.1066 33.2755 43.5187 29.4433C36.9307 25.611 26.2494 25.6143 19.704 29.4433C13.1585 33.2722 13.1912 39.5046 19.7792 43.3336Z" fill="white"/>
<path d="M33.6848 33.8678C31.4697 33.155 29.9364 31.9273 29.2763 30.5279L37.966 28.7052L40.6091 34.1813C38.3118 34.673 35.9282 34.5651 33.6848 33.8678Z" fill="white"/>
<path d="M26.2021 42.8981L21.0732 32.2509L27.4061 30.9179C28.2407 32.61 30.0773 34.1107 32.7591 34.9766C35.4881 35.8147 38.3841 35.9427 41.1766 35.3485L43.1018 39.3429L26.2021 42.8981Z" fill="white"/>
</svg>
