<svg xmlns="http://www.w3.org/2000/svg" xmlns:xlink="http://www.w3.org/1999/xlink" width="579" height="374" viewBox="0 0 579 374">
    <defs>
        <path id="a" d="M.485.278h7.318v4.573H.485z"/>
        <path id="c" d="M.485.278h7.318v4.573H.485z"/>
    </defs>
    <g fill="none" fill-rule="evenodd">
        <g style="mix-blend-mode:overlay">
        
            <path fill="#1F5ECC" d="M47.902 200.893l2.656 3.05v.004c-1.341 1.09-2.252 2.664-2.411 4.486-.16 1.821.464 3.53 1.595 4.836v.005l-3.146 2.542-7.078-8.138 8.384-6.785zM153.887 226.205l1.667 2.212v.003c-.864.81-1.458 1.97-1.575 3.306-.116 1.336.267 2.583.976 3.53v.004l-2.026 1.888-4.44-5.902 5.398-5.041zM177.593 99.961l1.667 2.212v.003c-.864.81-1.457 1.97-1.574 3.307-.117 1.335.266 2.582.976 3.53v.003l-2.026 1.889-4.441-5.903 5.398-5.04z"/>
            <path fill="#002261" d="M130.027 175.086l-2.159 1.726h-.003a4.827 4.827 0 0 0-3.206-1.603 4.826 4.826 0 0 0-3.435 1.021h-.004l-1.826-2.075 5.76-4.598 4.873 5.529z"/>
            <path fill="#1F5ECC" d="M148.784 5.215l2.899.25.002.004a5.056 5.056 0 0 0 1.106 3.64 4.769 4.769 0 0 0 3.288 1.752l.003.003-.264 2.983-7.73-.676.696-7.956zM200.052 365.487l-1.363.975h-.002a3.268 3.268 0 0 0-2.048-.935 3.267 3.267 0 0 0-2.179.565h-.002l-1.172-1.197 3.636-2.597 3.13 3.19zM184.472 42.603l2.363-1.982h.004a5.139 5.139 0 0 0 3.491 1.816 5.14 5.14 0 0 0 3.755-1.182h.003l1.983 2.362-6.306 5.28-5.293-6.294z"/>
            <path fill="#002261" d="M113.012 258.236l-9.437 7.676-7.961-9.198c2.397-1.97 5.605-3.038 9.005-2.74 3.4.297 6.374 1.906 8.393 4.262"/>
            <path fill="#1B67CA" d="M129.41 87.726l7.413 9.67-8.98 8.237c-1.902-2.456-2.925-5.752-2.618-9.251.306-3.5 1.885-6.568 4.185-8.656M7.937 184.364l-7.414-9.671 8.98-8.237c1.903 2.457 2.925 5.752 2.619 9.252-.306 3.5-1.885 6.567-4.185 8.656M191.54 271.603l-2.515-2.726 2.95-2.248c.645.692 1.001 1.614.916 2.586-.085.972-.596 1.818-1.351 2.388"/>
            <path fill="#002261" d="M85.398 173.096l-3.866-.338.348-3.98c.986.081 1.946.56 2.633 1.404.688.844.979 1.9.885 2.914"/>
            <path fill="#1B67CA" d="M139.473 340.23l-3.11-3.782 3.72-3.183a4.958 4.958 0 0 1 1.112 3.606 4.958 4.958 0 0 1-1.722 3.358M203.159 151.854l3.69-3.22 3.076 3.812a4.682 4.682 0 0 1-3.51 1.163 4.682 4.682 0 0 1-3.256-1.755"/>
            <path fill="#000" d="M63.481 140.102l-3.11-3.781 3.72-3.183a4.958 4.958 0 0 1 1.112 3.606 4.958 4.958 0 0 1-1.722 3.358"/>
            <g transform="rotate(-85 118.652 -120.54)">
                <mask id="b" fill="#fff">
                    <use xlink:href="#a"/>
                </mask>
                <path fill="#FB3448" d="M4.144.278L7.803 3.51c-.929.828-2.23 1.341-3.66 1.341-1.43 0-2.73-.513-3.658-1.34L4.144.277z" mask="url(#b)"/>
            </g>
        </g>
        <g style="mix-blend-mode:overlay">
            <path fill="#245FBE" d="M359.557 311.647l3.925.975.003.003c-.474 1.662-.316 3.475.598 5.058.914 1.583 2.405 2.626 4.08 3.047l.003.004-1.119 3.886-10.466-2.606 2.976-10.367zM460.893 271.591l2.635.856.001.003c-.243 1.159-.063 2.45.607 3.611.67 1.161 1.7 1.963 2.824 2.332l.002.003-.576 2.709-7.023-2.288 1.53-7.226zM407.902 154.581l2.634.856.002.002c-.243 1.159-.063 2.45.607 3.612.67 1.161 1.7 1.962 2.824 2.331l.002.003-.576 2.71-7.023-2.288 1.53-7.226z"/>
            <path fill="#2964C1" d="M412.027 243.403l-.777 2.651-.003.002a4.827 4.827 0 0 0-3.546.526 4.826 4.826 0 0 0-2.228 2.808l-.003.001-2.686-.652 2.08-7.07 7.163 1.734z"/>
            <path fill="#2964C1" d="M329.959 93.494l2.518-1.457h.004a5.056 5.056 0 0 0 2.993 2.348c1.307.37 2.621.17 3.7-.45h.003l1.495 2.596-6.72 3.88-3.993-6.917zM578.599 359.205l-.557 1.58-.002.002a3.268 3.268 0 0 0-2.214.409 3.267 3.267 0 0 0-1.46 1.712l-.003.001-1.646-.308 1.488-4.213 4.394.817zM380.637 103.65l.8-2.979.003-.002a5.139 5.139 0 0 0 3.901-.514 5.14 5.14 0 0 0 2.398-3.122l.003-.002 2.979.798-2.137 7.941-7.947-2.12z"/>
            <path fill="#002E8B" d="M445.783 321.275l-3.327 11.7-11.798-2.968c.834-2.988 2.85-5.703 5.806-7.41 2.955-1.706 6.314-2.094 9.32-1.322"/>
            <path fill="#2964C1" d="M361.415 172.195l11.62 3.67-2.632 11.898c-2.968-.921-5.695-3.034-7.452-6.076-1.756-3.043-2.222-6.462-1.536-9.492M317.34 321.03l-11.62-3.669 2.631-11.898c2.967.92 5.695 3.034 7.451 6.076 1.757 3.043 2.223 6.461 1.537 9.492M517.776 287.183l-3.624-.791 1.128-3.534c.925.197 1.746.748 2.234 1.593.487.846.554 1.832.262 2.732"/>
            <path fill="#2964C1" d="M374.329 267.37l-3.361 1.941-1.998-3.46a3.799 3.799 0 0 1 2.963-.36 4.026 4.026 0 0 1 2.396 1.88"/>
            <path fill="#2964C1" d="M514.488 373.262l-4.717-1.313 1.222-4.741a4.958 4.958 0 0 1 2.98 2.315 4.958 4.958 0 0 1 .515 3.739M458.609 182.426l1.176-4.754 4.706 1.358a4.682 4.682 0 0 1-2.209 2.966 4.682 4.682 0 0 1-3.673.43"/>
            <g transform="rotate(-120 212.938 -89.439)">
                <mask id="d" fill="#fff">
                    <use xlink:href="#c"/>
                </mask>
                <path fill="#FB3448" d="M4.144.278L7.803 3.51c-.929.828-2.23 1.341-3.66 1.341-1.43 0-2.73-.513-3.658-1.34L4.144.277z" mask="url(#d)"/>
            </g>
        </g>
    </g>
</svg>
