<?xml version="1.0" encoding="utf-8"?>
<!-- Generator: Adobe Illustrator 22.1.0, SVG Export Plug-In . SVG Version: 6.00 Build 0)  -->
<svg version="1.1" id="Ebene_1" xmlns="http://www.w3.org/2000/svg" xmlns:xlink="http://www.w3.org/1999/xlink" x="0px" y="0px"
	 viewBox="0 0 193.2 133" style="enable-background:new 0 0 193.2 133;" xml:space="preserve">
<style type="text/css">
	.st0{fill:#282D46;}
	.st1{fill:#FFFFFF;}
	.st2{fill:#4BDCFF;}
</style>
<g>
	<rect class="st0" width="63.5" height="37.9"/>
	<g>
		<path class="st1" d="M9.3,19.3L9.3,19.3c0-6.3,4.8-11.1,11.2-11.1c4.4,0,7.2,1.8,9,4.4L25.1,16c-1.2-1.5-2.6-2.5-4.7-2.5
			c-3,0-5.1,2.5-5.1,5.6v0.2c0,3.2,2.1,5.7,5.1,5.7c2.2,0,3.5-1,4.8-2.6l4.4,3.2c-2,2.8-4.7,4.8-9.4,4.8
			C14.2,30.4,9.3,25.7,9.3,19.3z"/>
		<path class="st1" d="M31.6,8.6h6.6L43,22.1l4.9-13.5h6.5l-8.6,21.5h-5.5L31.6,8.6z"/>
	</g>
</g>
<rect y="37.9" class="st2" width="193.2" height="95.1"/>
<g>
	<path class="st1" d="M31.6,70h8.6v23.5h15v7.5H31.6V70z"/>
	<path class="st1" d="M73.3,69.8h8.3L94.8,101h-9.2l-2.3-5.5h-12l-2.2,5.5h-9L73.3,69.8z M80.8,88.8L77.3,80l-3.5,8.8H80.8z"/>
	<path class="st1" d="M101.6,70h15.9c3.9,0,6.6,1,8.5,2.8c1.2,1.2,2,2.9,2,5v0.1c0,3.6-2,5.7-4.8,6.9c3.8,1.2,6.2,3.4,6.2,7.6v0.1
		c0,5.3-4.3,8.5-11.7,8.5h-16L101.6,70L101.6,70z M115.3,82.4c2.6,0,4.1-0.9,4.1-2.7v-0.1c0-1.7-1.3-2.7-3.9-2.7h-5.6v5.4
		L115.3,82.4L115.3,82.4z M116.6,94.1c2.6,0,4.1-1,4.1-2.8v-0.1c0-1.7-1.3-2.8-4.2-2.8h-6.6v5.7L116.6,94.1L116.6,94.1z"/>
	<path class="st1" d="M134.6,96.4l4.8-5.7c3.1,2.4,6.5,3.7,10.1,3.7c2.3,0,3.5-0.8,3.5-2.1v-0.1c0-1.3-1-2-5.2-3
		c-6.6-1.5-11.7-3.4-11.7-9.7v-0.1c0-5.8,4.6-9.9,12-9.9c5.3,0,9.4,1.4,12.8,4.1l-4.3,6.1c-2.8-2-5.9-3.1-8.7-3.1
		c-2.1,0-3.1,0.9-3.1,2v0.1c0,1.4,1.1,2,5.4,3c7.1,1.6,11.6,3.9,11.6,9.7v0.1c0,6.3-5,10.1-12.5,10.1
		C143.7,101.5,138.5,99.8,134.6,96.4z"/>
</g>
</svg>
