<svg xmlns="http://www.w3.org/2000/svg" width="90" height="86" viewBox="0 0 90 86">
    <g fill="none" fill-rule="nonzero">
        <path fill="#1890FF" d="M43.53 76.038c.011-1.109.403-2.25 1.176-3.425a12.702 12.702 0 0 1 2.883-3.091 15.994 15.994 0 0 1 3.824-2.182c1.25-.536 2.591-.825 3.95-.85a4.475 4.475 0 0 1 1.96.435c.608.294.912.735.912 1.324 0 .59-.337 1.227-1.013 1.915a9.4 9.4 0 0 1-2.424 1.75c-.941.485-1.764.728-2.47.728a2.174 2.174 0 0 1-1.004-.27.824.824 0 0 1-.522-.75c0-.182.144-.333.43-.464a10.485 10.485 0 0 0 2.299-1.182c.108-.118.182-.181.243-.181.06 0 .08.047.08.143 0 .167-.203.364-.61.59a2.28 2.28 0 0 0-.43.363c0 .024 0 .036.018.036.243 0 .973-.46 2.19-1.378 1.217-.919 1.826-1.509 1.826-1.77 0-.166-.16-.25-.486-.25a8.385 8.385 0 0 0-3.501.813 12.602 12.602 0 0 0-3.151 2.04 22.607 22.607 0 0 0-2.486 2.593 14.303 14.303 0 0 0-1.706 2.545c-.396.78-.594 1.387-.593 1.818 0 .262.126.393.378.393.44-.046.874-.142 1.293-.286.961-.317 1.9-.7 2.81-1.145a23.098 23.098 0 0 0 3.546-2.056.39.39 0 0 1 .17-.108c.03 0 .046.026.046.073a3.099 3.099 0 0 1-.314.607c-.284.46-.602.896-.953 1.306a13.994 13.994 0 0 1-1.444 1.493c-.583.51-1.24.93-1.95 1.243a5.128 5.128 0 0 1-2.101.518c-.64 0-1.143-.112-1.508-.34-.34-.203-.616-.5-.793-.854a4.394 4.394 0 0 1-.547-1.806l-.028-.338zM57.14 77.09a.895.895 0 0 0 .288-.106 48.86 48.86 0 0 0 5.89-3.81c.1.07.16.183.16.304a.456.456 0 0 1-.182.34c-.12.107-.29.262-.511.466-.221.203-.645.565-1.267 1.09a79.95 79.95 0 0 1-1.742 1.431c-1.413 1.134-2.454 1.8-3.123 2a2.606 2.606 0 0 1-.701.09c-.408 0-.61-.315-.61-.948 0-.214.131-.569.394-1.063.263-.495.396-.857.396-1.082 0-.024-.018-.037-.055-.037a.798.798 0 0 0-.27.162c-1.663 1.288-2.675 2.181-3.034 2.682a.33.33 0 0 1-.286.162.478.478 0 0 1-.504-.376c0-.364.506-1.27 1.519-2.719a62.298 62.298 0 0 1 3.567-4.585c1.365-1.604 2.478-2.733 3.339-3.39.252-.242.838-.363 1.76-.363.144.037.215.097.215.182a.363.363 0 0 1-.124.25c-3.45 3.315-5.64 5.61-6.572 6.885-.07.08-.13.167-.183.26a.726.726 0 0 0-.117.241l.019.019c.047 0 .424-.266 1.132-.797a34.07 34.07 0 0 1 1.579-1.136c.107-.107.336-.16.682-.16.3.034.45.13.45.285a.225.225 0 0 1-.037.126c-.886 1.252-1.418 2.05-1.597 2.396-.366.56-.539.931-.539 1.11-.007.065.016.092.064.092z"/>
        <path fill="#1890FF" d="M61.791 78.898c-.922 0-1.383-.56-1.383-1.68 0-.704.308-1.452.925-2.243.6-.779 1.34-1.44 2.182-1.951.837-.506 1.58-.76 2.227-.76.3.006.586.128.798.34.209.16.341.4.365.661 0 .396-.281.84-.844 1.333a8.136 8.136 0 0 1-1.769 1.198c-.617.303-1.024.456-1.22.457a.47.47 0 0 1-.44-.27.33.33 0 0 0-.198-.052c-.084 0-.223.158-.412.473-.161.227-.26.492-.289.769a.34.34 0 0 0 .215.363c.912 0 1.9-.265 2.963-.796 1.064-.53 2.537-1.464 4.418-2.798l.6-.43c.271-.181.43-.303.477-.34.1.07.16.183.163.304a.421.421 0 0 1-.163.322c-.734.713-1.51 1.38-2.325 2a23.283 23.283 0 0 1-3.274 2.11c-1.231.66-2.237.99-3.016.99zm3.825-5.722c-.312 0-.839.32-1.58.957-.743.637-1.114 1.028-1.114 1.17 0 .026.018.037.054.037.263 0 .787-.292 1.572-.876.785-.585 1.176-.982 1.172-1.191 0-.068-.033-.097-.104-.097z"/>
        <path fill="#1890FF" d="M73.373 73.373l-.108.182c0 .025.03.06.09.109.06.047.093.12.089.196 0 .084-.52.682-1.56 1.796l-2.748 2.942c.226.298.341.727.341 1.297 0 .569-.2 1.225-.602 1.976a9.818 9.818 0 0 1-1.4 2 11.848 11.848 0 0 1-1.607 1.484c-.548.405-.955.609-1.249.609-.294 0-.547-.162-.772-.484a2.07 2.07 0 0 1-.332-1.198c0-1.348 1.119-3.077 3.357-5.186l3.103-2.772c.065-.062.126-.128.183-.197l.117-.143c.03-.035.036-.053.018-.053-.104.063-.2.138-.287.224a13.539 13.539 0 0 1-1.858 1.324c-.467.28-.815.42-1.042.42-.491 0-.749-.33-.773-.984.014-.525.35-1.128 1.006-1.808a9.083 9.083 0 0 1 2.469-1.762 6.226 6.226 0 0 1 2.774-.741c.084 0 .23.089.44.269a.91.91 0 0 1 .35.5zm-8.53 11.105c.169 0 .595-.319 1.279-.956a16.837 16.837 0 0 0 1.993-2.262c.646-.872.97-1.552.97-2.04l-.019-.196c-.034-.119-.07-.182-.107-.182-.515.513-1.338 1.502-2.469 2.969-1.13 1.467-1.696 2.337-1.697 2.61-.004.04.014.057.05.057zm3.305-8.173c.286 0 1.046-.39 2.28-1.17 1.234-.781 1.85-1.255 1.85-1.422 0-.024-.024-.037-.072-.037-.515 0-1.326.385-2.433 1.155-1.108.77-1.661 1.254-1.661 1.454 0 .015.01.02.036.02zM76.964 76.985a48.86 48.86 0 0 0 5.889-3.809c.1.07.16.183.162.304a.458.458 0 0 1-.182.34c-.119.107-.29.262-.511.465-.221.204-.645.566-1.265 1.091a75.8 75.8 0 0 1-1.742 1.431c-1.413 1.134-2.455 1.8-3.125 2a2.606 2.606 0 0 1-.701.09c-.406 0-.61-.315-.61-.948.02-.205.078-.405.172-.589l.198-.45.044-.1a.66.66 0 0 1 .037-.063.118.118 0 0 0 .018-.062c0-.023-.036-.036-.108-.036-.07 0-.257.158-.593.475-.336.316-.613.569-.834.76a5.377 5.377 0 0 1-.754.545 1.464 1.464 0 0 1-.692.251c-.478 0-.718-.222-.718-.662.02-.338.112-.667.269-.967a10.364 10.364 0 0 1 1.886-2.646c.838-.882 1.437-1.33 1.796-1.341a.523.523 0 0 1 .365.143c.1.078.16.196.163.322 0 .118-.12.298-.366.546-.244.247-.547.545-.912.921a5.51 5.51 0 0 0-.773.939c-.107.15-.184.32-.224.5 0 .083.05.125.144.125a1.28 1.28 0 0 0 .52-.233 46.99 46.99 0 0 0 2.344-1.716c.88-.681 1.446-1.176 1.696-1.484.06-.214.241-.322.548-.322.573 0 .862.1.862.304 0 .084-.283.393-.845.93-1.687 1.61-2.53 2.606-2.53 2.986 0 .06.025.09.08.09a.87.87 0 0 0 .292-.13z"/>
        <path fill="#1890FF" d="M81.22 78.898c-.922 0-1.383-.56-1.383-1.68 0-.704.308-1.452.924-2.243.6-.779 1.34-1.44 2.181-1.951.839-.506 1.581-.76 2.228-.76.3.006.587.128.8.34.208.16.34.4.364.661 0 .396-.28.84-.843 1.333a8.093 8.093 0 0 1-1.77 1.198c-.615.303-1.022.456-1.22.457a.47.47 0 0 1-.44-.27.33.33 0 0 0-.198-.052c-.083 0-.22.158-.412.473-.16.227-.26.492-.287.769 0 .196.071.32.216.363.909 0 1.896-.265 2.963-.796 1.066-.53 2.538-1.464 4.416-2.798l.602-.43c.268-.181.427-.303.475-.34.1.07.16.183.162.304a.421.421 0 0 1-.162.322 25.7 25.7 0 0 1-2.324 2 23.497 23.497 0 0 1-3.277 2.102c-1.233.665-2.238.998-3.016.998zm3.833-5.722c-.31 0-.837.32-1.58.957-.742.637-1.113 1.028-1.113 1.17 0 .026.018.037.053.037.263 0 .787-.292 1.572-.876.785-.585 1.177-.984 1.175-1.199-.009-.06-.043-.089-.116-.089h.009z"/>
        <path fill="#FFF" d="M23.645 54.635v8.561l-4.097-.014v-8.35l-.031-1.167c0-1.681-1.026-2.949-2.587-3.074a2.795 2.795 0 0 0-1.018.102 2.607 2.607 0 0 0-1.375.83c-.123.15-.227.315-.31.49-.192.433-.301.898-.322 1.37-.01.132-.018.264-.022.397v9.398h-4.08v-8.85-.546c0-.131-.009-.264-.02-.393a3.84 3.84 0 0 0-.321-1.374 2.362 2.362 0 0 0-.312-.49 2.598 2.598 0 0 0-1.371-.83 2.813 2.813 0 0 0-1.023-.102c-1.559.123-2.583 1.39-2.585 3.074l-.032 1.168v8.347l-4.097.02v-8.567c0-.408 0-.819.03-1.23 0-.09 0-.181.014-.267.15-2.242 1.042-4.154 3.017-5.32a7.476 7.476 0 0 1 5.855-.743c1.223.38 2.02 1.109 2.853 2.045l.044.053.044-.053c.829-.938 1.627-1.665 2.852-2.05 1.907-.588 4.144-.272 5.852.745 1.97 1.17 2.866 3.081 3.016 5.323 0 .091.011.182.015.267.003.413.01.826.01 1.23zM76.856 51.356v6.624c0 1.718 1.245 1.747 3.613 1.624v3.718c-5.66.638-7.739-.98-7.739-5.347v-6.619h-2.784v-3.945h2.78v-1.94l4.13-4.116v6.056h3.613v3.945h-3.613zM37.201 47.395l-3.536 10.661-4.137-10.661h-4.49l6.531 15.354c-.763 2.158-1.97 3.073-4.173 3.044v3.805c4.08.22 6.755-1.778 8.407-6.345l5.798-15.86-4.4.002zM63.486 47.395h4.108v15.86h-4.108zM58.285 49.393c-1.5-1.618-3.345-2.444-5.477-2.444-2.227 0-3.954.76-5.16 2.313v-8.218h-.114l-3.994 3.98v18.238h4.107v-1.873c1.212 1.551 2.932 2.313 5.16 2.313a7.233 7.233 0 0 0 5.485-2.41c1.53-1.617 2.293-3.616 2.293-5.963s-.77-4.318-2.3-5.936zm-3.087 9.165c-.83.827-1.88 1.239-3.153 1.237-1.265 0-2.322-.41-3.153-1.237-.83-.857-1.245-1.935-1.245-3.234 0-1.304.413-2.382 1.241-3.208.831-.854 1.883-1.26 3.153-1.26s2.324.411 3.153 1.26c.86.828 1.267 1.904 1.267 3.208 0 1.303-.404 2.376-1.263 3.234z"/>
        <path fill="#1890FF" d="M62.501 42.443l3.027-3.019 3.011 3.019-3.026 3.02z"/>
        <path fill="#FFF" d="M59.825 19.49l-7.333 7.31h-.009a17.296 17.296 0 0 0-12.2-5.051A17.296 17.296 0 0 0 28.07 26.77l-.03.029h-.01l-7.341-7.31L40.261 0l19.564 19.49z"/>
        <path fill="#1890FF" d="M50.327 28.955L40.268 38.973 30.2 28.95a14.12 14.12 0 0 1 10.057-4.16c.672 0 1.343.047 2.008.14a14.094 14.094 0 0 1 8.062 4.024z"/>
    </g>
</svg>
