<svg xmlns="http://www.w3.org/2000/svg" width="167" height="50" viewBox="0 0 167 50">
    <defs>
        <linearGradient id="a" x1="-32.994%" x2="540.933%" y1="65.204%" y2="-38.387%">
            <stop offset="0%" stop-color="#3CBCF7"/>
            <stop offset="100%" stop-color="#1990F2"/>
        </linearGradient>
        <linearGradient id="b" x1="-102.297%" x2="330.244%" y1="84.597%" y2="-12.981%">
            <stop offset="0%" stop-color="#3CBCF7"/>
            <stop offset="100%" stop-color="#1990F2"/>
        </linearGradient>
        <linearGradient id="c" x1="-234.756%" x2="242.741%" y1="111.459%" y2="10.719%">
            <stop offset="0%" stop-color="#3CBCF7"/>
            <stop offset="100%" stop-color="#1990F2"/>
        </linearGradient>
        <linearGradient id="d" x1="-318.965%" x2="122.486%" y1="132.563%" y2="34.472%">
            <stop offset="0%" stop-color="#3CBCF7"/>
            <stop offset="100%" stop-color="#1990F2"/>
        </linearGradient>
    </defs>
    <g fill="none" fill-rule="nonzero">
        <path fill="#FFF" d="M20.9 14.552v27.48h-5.825v-1.848c-1.285 1.493-3.19 2.396-5.79 2.396-5.09 0-9.278-4.514-9.278-10.365 0-5.85 4.195-10.364 9.278-10.364 2.6 0 4.505.906 5.79 2.396v-9.695h5.824zm-5.825 17.663c0-2.944-1.945-4.788-4.625-4.788-2.68 0-4.608 1.844-4.608 4.788 0 2.945 1.941 4.788 4.621 4.788 2.68 0 4.612-1.843 4.612-4.788zM36.826 22.01v6.674c-2.405-.392-5.842.587-5.842 4.476v8.871h-5.81V22.403h5.824v3.493c.777-2.632 3.381-3.886 5.828-3.886zM82.782 32.215c0 5.851-4.196 10.365-9.278 10.365-2.601 0-4.505-.903-5.79-2.396v9.698h-5.831v-27.48h5.81v1.845c1.286-1.49 3.19-2.396 5.79-2.396 5.103 0 9.299 4.517 9.299 10.364zm-5.842 0c.031-2.944-1.927-4.784-4.608-4.784-2.68 0-4.639 1.84-4.639 4.784 0 2.945 1.945 4.788 4.626 4.788 2.68 0 4.652-1.843 4.652-4.788h-.03z"/>
        <path fill="url(#a)" d="M99.874 36.535v5.496H84.335v-3.927L91.678 27.9h-6.955v-5.496H99.5v3.923l-7.343 10.209z"/>
        <path fill="url(#b)" d="M101.23 32.215c-.02-4.218 2.478-8.032 6.329-9.66a10.23 10.23 0 0 1 11.251 2.224c2.96 2.975 3.85 7.46 2.258 11.358-1.592 3.9-5.354 6.443-9.528 6.443a10.13 10.13 0 0 1-7.308-2.996 10.347 10.347 0 0 1-3.001-7.369zm14.777 0c0-2.778-1.945-4.632-4.467-4.632-2.523 0-4.468 1.844-4.468 4.632 0 2.788 1.945 4.632 4.468 4.632 2.522 0 4.456-1.844 4.456-4.632h.01z"/>
        <path fill="url(#c)" d="M143.771 29.98V42.03h-5.841v-11.19c0-2.431-1.516-3.57-3.382-3.57-2.137 0-3.611 1.253-3.611 4.041v10.72h-5.842v-19.63h5.842v1.845c1.048-1.452 2.99-2.396 5.556-2.396 3.935 0 7.278 2.826 7.278 8.128z"/>
        <path fill="url(#d)" d="M157.636 37.32a5.044 5.044 0 0 0 3.732-1.494l4.66 2.709c-1.904 2.67-4.777 4.045-8.467 4.045-6.646 0-10.763-4.514-10.763-10.365 0-5.85 4.196-10.364 10.333-10.364 5.673 0 9.869 4.437 9.869 10.364.003.792-.075 1.582-.234 2.358h-13.79c.74 2.038 2.526 2.746 4.66 2.746zm3.577-7.146c-.622-2.275-2.37-3.101-4.123-3.101-2.213 0-3.69 1.1-4.233 3.1h8.356z"/>
        <path fill="#FFF" d="M42.716 32.215A5.63 5.63 0 0 1 46.14 27a5.528 5.528 0 0 1 6.077 1.207 5.672 5.672 0 0 1 1.217 6.137 5.57 5.57 0 0 1-5.148 3.479 5.468 5.468 0 0 1-3.953-1.62 5.586 5.586 0 0 1-1.617-3.988zM35.32 13.392c0-7.235 5.805-13.1 12.966-13.1 7.16 0 12.965 5.865 12.965 13.1H35.32z"/>
        <path fill="#FFF" d="M48.286 33.375l-12.93-20.059 1.047-.688 11.883 18.428 11.882-18.428 1.052.688z"/>
        <path fill="#FFF" d="M47.798 7.389h1v24.83h-1z"/>
    </g>
</svg>
