<svg xmlns="http://www.w3.org/2000/svg" width="97" height="36" viewBox="0 0 97 36">
    <g fill="none" fill-rule="nonzero">
        <path fill="#FFF" d="M8.154 7.817v6.854h13.252v7.817H8.154v13.044H0V0h21.66v7.817zM24.956 22.675c0-7.52 6.08-13.324 13.654-13.324 7.575 0 13.657 5.803 13.657 13.324S46.187 36 38.61 36c-7.576 0-13.654-5.799-13.654-13.325zm19.58 0c0-3.593-2.575-5.954-5.926-5.954-3.35 0-5.925 2.371-5.925 5.954 0 3.584 2.577 5.955 5.925 5.955 3.349 0 5.926-2.362 5.926-5.955zM72.515 9.818v8.727c-3.213-.514-7.774.77-7.774 5.848V36h-7.765V10.33h7.775v4.57c1.036-3.435 4.51-5.082 7.764-5.082zM83.345 22.842V35.532H75.81V0h7.534v14.538z"/>
        <path fill="#24F281" d="M87.61 22.91h-8.503l8.863-12.624H97z"/>
        <path fill="#1890FF" d="M88.364 35.532H97L87.49 22.91h-8.383z"/>
    </g>
</svg>
