<svg xmlns="http://www.w3.org/2000/svg" width="90" height="79" viewBox="0 0 90 79">
    <g fill="#FFF" fill-rule="nonzero">
        <path d="M23.752 55.05v8.626l-4.12-.014v-8.41l-.034-1.178c0-1.693-1.032-2.971-2.6-3.097a2.82 2.82 0 0 0-1.027.102 2.626 2.626 0 0 0-1.382.837c-.125.15-.23.317-.312.494a3.793 3.793 0 0 0-.324 1.38 9.588 9.588 0 0 0-.022.4v9.472H9.827v-8.919-.548c0-.134-.011-.267-.022-.397a3.832 3.832 0 0 0-.323-1.384 2.347 2.347 0 0 0-.313-.494 2.631 2.631 0 0 0-1.38-.837 2.831 2.831 0 0 0-1.029-.103c-1.569.125-2.6 1.403-2.6 3.098l-.034 1.177v8.41L0 63.683V55.05c0-.411 0-.824.027-1.24 0-.09 0-.182.017-.268.148-2.26 1.048-4.187 3.032-5.365a7.51 7.51 0 0 1 5.89-.75c1.23.383 2.034 1.118 2.87 2.061l.045.053.044-.053c.836-.943 1.65-1.678 2.873-2.06 1.919-.594 4.17-.274 5.89.75 1.98 1.179 2.882 3.108 3.035 5.364 0 .09.009.183.012.269.01.416.017.832.017 1.24zM77.285 51.743v6.673c0 1.732 1.253 1.763 3.634 1.646v3.748c-5.682.644-7.784-.987-7.784-5.386v-6.681h-2.796V47.77h2.797v-1.953l4.149-4.149v6.102h3.634v3.973h-3.634zM37.393 47.753l-3.556 10.744-4.163-10.744h-4.52l6.571 15.472c-.768 2.176-1.981 3.099-4.199 3.068v3.84c4.106.22 6.795-1.792 8.46-6.4l5.832-15.982-4.425.002zM63.838 47.753h4.133v15.982h-4.133zM58.604 49.766c-1.506-1.63-3.363-2.463-5.519-2.463-2.241 0-3.977.768-5.19 2.332v-8.281h-.114l-4.02 4.01v18.378h4.131v-1.887c1.221 1.564 2.952 2.332 5.192 2.332a7.274 7.274 0 0 0 5.52-2.428c1.538-1.631 2.306-3.644 2.306-6.01 0-2.366-.766-4.352-2.306-5.983zM55.5 59.003c-.833.831-1.89 1.247-3.17 1.247-1.284 0-2.338-.415-3.174-1.247-.833-.863-1.25-1.95-1.25-3.26 0-1.313.416-2.4 1.25-3.23.836-.864 1.894-1.271 3.173-1.271 1.28 0 2.337.413 3.171 1.27.866.834 1.283 1.918 1.283 3.231s-.417 2.399-1.283 3.26zM62.847 42.763l3.046-3.038 3.034 3.042-3.045 3.038zM60.155 19.635l-7.38 7.364c-6.775-6.77-17.77-6.783-24.562-.027l-.027.027h-.013l-7.385-7.364L40.471 0l19.684 19.635z"/>
        <path d="M50.59 29.172L40.47 39.266 30.34 29.17a14.189 14.189 0 0 1 10.12-4.193 14.7 14.7 0 0 1 2.016.141c3.078.426 5.93 1.85 8.115 4.054zM54.194 77.918h-2.443v-6.2l-2.764 4.525h-.275l-2.764-4.525v6.2h-2.444V67.255h2.444l2.9 4.737 2.903-4.737h2.443zM55.575 74.11a4.037 4.037 0 0 1 2.487-3.74 4.055 4.055 0 0 1 4.416.864 4.03 4.03 0 0 1 .885 4.4 4.047 4.047 0 0 1-3.74 2.498 4.01 4.01 0 0 1-2.87-1.165 3.99 3.99 0 0 1-1.178-2.858zm5.805 0c0-1.081-.765-1.798-1.756-1.798-.992 0-1.756.717-1.756 1.797s.762 1.8 1.756 1.8c.993 0 1.756-.717 1.756-1.8zM73.19 74.11c0 2.27-1.65 4.022-3.65 4.022-1.023 0-1.772-.352-2.275-.93v.716h-2.293V67.255h2.299v3.762c.502-.58 1.252-.93 2.275-.93 1.994 0 3.644 1.753 3.644 4.022zm-2.29 0c0-1.142-.764-1.86-1.818-1.86s-1.811.718-1.811 1.86c0 1.14.762 1.859 1.816 1.859s1.813-.717 1.813-1.86zM74.264 68.26c0-.757.615-1.371 1.374-1.371.76 0 1.375.614 1.375 1.371 0 .758-.615 1.371-1.375 1.371a1.386 1.386 0 0 1-1.374-1.37zm.229 2.04h2.291v7.618h-2.291V70.3zM78.465 66.797h2.293v11.12h-2.293zM86.32 76.09a2.003 2.003 0 0 0 1.466-.579l1.833 1.052c-.75 1.035-1.88 1.569-3.33 1.569-2.613 0-4.231-1.752-4.231-4.023 0-2.27 1.65-4.022 4.062-4.022 2.23 0 3.88 1.722 3.88 4.022 0 .307-.03.614-.092.914h-5.422c.29.792.992 1.066 1.833 1.066zm1.403-2.773c-.243-.883-.93-1.203-1.618-1.203-.87 0-1.452.426-1.664 1.203h3.282z"/>
    </g>
</svg>
