<svg xmlns="http://www.w3.org/2000/svg" width="90" height="75" viewBox="0 0 90 75">
    <g fill="none" fill-rule="nonzero">
        <path fill="#24F281" d="M43.542 62.784c1.071 0 1.931.415 2.52 1.209l-.623.362a2.307 2.307 0 0 0-1.9-.866c-1.205 0-1.752.756-1.752 1.458 0 1.122 1.017 1.522 2.245 1.897 1.605.488 2.58.886 2.58 2.308 0 1.66-1.473 2.25-2.854 2.25-1.332 0-2.34-.485-2.907-1.38l.691-.404c.531.714 1.296 1.076 2.284 1.076.339 0 2.027-.073 2.027-1.515 0-1.228-1.226-1.568-2.52-1.927-1.66-.466-2.306-1.096-2.306-2.25 0-1.45 1.26-2.223 2.52-2.223l-.005.005zm.005-.73c-1.663 0-3.24 1.087-3.24 2.948 0 1.86 1.403 2.545 2.832 2.947 1.429.402 1.994.636 1.994 1.23 0 .375-.26.79-1.307.79-1.08 0-1.675-.543-2.02-1.342l-1.893 1.12c.54 1.423 1.827 2.392 3.849 2.392 2.09 0 3.574-1.106 3.574-2.974 0-2.047-1.636-2.56-3.092-3.002-1.5-.456-1.733-.76-1.733-1.203 0-.388.343-.734 1.031-.734.878 0 1.334.43 1.663 1.122l1.856-1.087c-.702-1.424-1.939-2.187-3.519-2.187l.005-.02zM51.518 65.553c.659 0 1.164.199 1.505.594l.3.348a2.378 2.378 0 0 0-1.393-.428c-1.364 0-2.354 1.015-2.354 2.413 0 1.399.99 2.413 2.354 2.413.5.008.988-.143 1.397-.431l-.303.351c-.342.395-.85.595-1.506.595-1.44 0-2.565-1.287-2.565-2.928s1.127-2.927 2.565-2.927zm3.391.193v5.468h-.623v-1.86l-.28.325a2.702 2.702 0 0 0 0-2.391l.277.323v-1.865h.626zm-3.395-.918c-1.8 0-3.285 1.59-3.285 3.652 0 2.062 1.485 3.652 3.285 3.652.922 0 1.595-.319 2.049-.844v.65h2.062v-6.916h-2.059v.65c-.453-.525-1.127-.844-2.048-.844h-.004zm.412 5.34c-.946 0-1.634-.65-1.634-1.688 0-1.038.688-1.688 1.634-1.688.947 0 1.637.652 1.637 1.688s-.688 1.688-1.637 1.688zM62.779 65.746l-2.011 5.468h-.499l.515-1.58 1.26-3.888h.735zm-4.644 0l1.26 3.888.545 1.58h-.499l-2.021-5.468h.72-.005zm5.668-.724h-2.274L60.1 69.408l-1.42-4.386h-2.291l2.543 6.916h2.34l2.543-6.916h-.012zM65.603 62.647a.52.52 0 0 1 .518.521.52.52 0 0 1-.518.522.52.52 0 0 1-.519-.522.533.533 0 0 1 .519-.521zm.311 3.1v5.467h-.623v-5.468h.623zm-.311-3.825c-.501 0-.953.303-1.146.768a1.252 1.252 0 0 0 .268 1.36c.354.356.887.463 1.35.27.462-.193.764-.647.764-1.152a1.264 1.264 0 0 0-1.236-1.246zm1.031 3.1h-2.063v6.916h2.063v-6.916zM72.18 65.553c.9 0 1.85.561 1.85 2.139v3.522h-.626v-3.218c0-1.186-.77-1.983-1.915-1.983a2.24 2.24 0 0 0-.72.11l.018-.025c.25-.346.754-.544 1.382-.544l.011-.001zm-2.696.195v2.154l.012-.018c0 .09-.012.181-.012.279v3.05h-.623v-5.467h.623v.002zm2.696-.92c-.9 0-1.595.331-1.966.844v-.65h-2.068v6.916h2.063v-3.777c0-.982.522-1.424 1.28-1.424.659 0 1.195.4 1.195 1.26v3.941h2.061v-4.246c0-1.868-1.183-2.864-2.57-2.864h.005zM79.2 65.553c.635 0 1.107.204 1.44.628l.09.114a2.527 2.527 0 0 0-1.193-.282c-1.381 0-2.384.98-2.384 2.33 0 1.349 1.003 2.33 2.384 2.33.415.004.824-.094 1.193-.285l-.09.114c-.338.424-.812.628-1.44.628-1.492 0-2.662-1.224-2.662-2.788 0-1.563 1.17-2.79 2.662-2.79zm3.294.193v5.846c0 1.904-1.501 2.582-2.909 2.582-.686 0-1.557-.141-2.189-.734l.499-.29c.437.435 1.019.647 1.759.647 1.402 0 2.273-.844 2.273-2.205v-2.69l-.088.11a2.59 2.59 0 0 0 0-1.34l.088.11v-2.036h.567zm-3.294-.918c-1.951 0-3.382 1.605-3.382 3.514 0 1.91 1.43 3.513 3.382 3.513.9 0 1.553-.331 2.007-.906v.636c0 .984-.59 1.48-1.553 1.48-.9 0-1.305-.386-1.566-.871l-1.76 1.023c.633 1.136 1.828 1.674 3.257 1.674 1.829 0 3.629-.982 3.629-3.306v-6.563h-2.003v.704c-.454-.567-1.113-.905-2.007-.905l-.004.007zm.344 5.12c-.976 0-1.663-.653-1.663-1.606 0-.953.687-1.605 1.663-1.605.975 0 1.663.649 1.663 1.605 0 .957-.686 1.605-1.663 1.605zM87.14 71.77c-1.149 0-1.98-.386-2.466-1.147l1.143-.654c.291.444.795.7 1.323.672 1.022 0 1.103-.605 1.103-.791 0-.544-.615-.725-1.26-.906-1.199-.337-2.115-.687-2.115-1.848 0-1.41 1.26-1.908 2.34-1.908a2.648 2.648 0 0 1 2.16.991l-1.118.607a1.28 1.28 0 0 0-1.038-.496c-.693 0-.938.404-.938.75 0 .56.608.724 1.26.891 1.206.32 2.13.665 2.13 1.931-.024 1.408-1.315 1.908-2.524 1.908z"/>
        <path fill="#24F281" d="M87.196 65.553c.57-.013 1.126.18 1.567.543l-.46.25a1.64 1.64 0 0 0-1.107-.41c-.9 0-1.298.577-1.298 1.113 0 .839.844 1.063 1.52 1.243 1.288.34 1.862.648 1.862 1.58.025.451-.19.882-.563 1.133a2.796 2.796 0 0 1-1.577.41c-.855 0-1.492-.223-1.926-.678l.513-.293c.372.379.884.584 1.413.567 1.391 0 1.461-.96 1.461-1.154 0-.824-.846-1.062-1.528-1.254-1.281-.362-1.852-.661-1.852-1.498 0-1.47 1.645-1.545 1.98-1.545l-.005-.007zm.005-.718c-1.43 0-2.7.761-2.7 2.27 0 2.391 3.38 1.993 3.38 2.752 0 .277-.246.43-.741.43a1.13 1.13 0 0 1-1.168-.818l-1.786 1.024c.54 1.121 1.58 1.646 2.954 1.646 1.485 0 2.86-.677 2.86-2.268 0-2.56-3.382-2.034-3.382-2.822 0-.25.22-.388.578-.388.4-.001.762.238.92.609l1.76-.955a3.005 3.005 0 0 0-2.68-1.48h.005z"/>
        <path fill="#FFF" d="M21.825 50.862v7.971l-3.78-.012v-7.776l-.029-1.087c0-1.565-.945-2.744-2.383-2.86a2.578 2.578 0 0 0-.94.092c-.49.119-.93.39-1.26.774-.114.14-.21.293-.288.456a3.555 3.555 0 0 0-.295 1.277c0 .122-.016.245-.02.363v8.752H9.076V50.57v-.511c0-.122-.01-.245-.02-.363-.02-.44-.12-.874-.295-1.279a2.317 2.317 0 0 0-.288-.456 2.424 2.424 0 0 0-1.26-.774 2.583 2.583 0 0 0-.942-.092c-1.44.114-2.381 1.295-2.383 2.86l-.029 1.087v7.774l-3.78.018v-7.97c0-.381 0-.764.027-1.146 0-.085.01-.165.013-.248.14-2.089.961-3.87 2.78-4.96a6.821 6.821 0 0 1 5.4-.69c1.126.351 1.862 1.03 2.629 1.902l.041.05.04-.05c.767-.872 1.503-1.55 2.63-1.902a6.825 6.825 0 0 1 5.4.69c1.816 1.087 2.64 2.871 2.779 4.958 0 .084.009.165.012.248-.01.386-.005.769-.005 1.145zM70.846 47.81v6.16c0 1.6 1.149 1.63 3.328 1.512v3.467c-5.22.594-7.13-.906-7.13-4.978v-6.16h-2.559v-3.675h2.561v-1.812l3.8-3.831v5.637h3.328v3.674l-3.328.006zM34.317 44.12l-3.258 9.927-3.812-9.927h-4.14l6.017 14.295c-.704 2.01-1.814 2.862-3.845 2.835v3.543c3.759.205 6.221-1.655 7.74-5.907l5.34-14.766h-4.042zM58.532 44.12h3.785v14.766h-3.785zM53.74 45.98c-1.38-1.505-3.079-2.275-5.054-2.275-2.052 0-3.641.708-4.753 2.154v-7.65h-.105l-3.688 3.704v16.98h3.78V57.15c1.116 1.449 2.7 2.154 4.752 2.154a6.628 6.628 0 0 0 5.067-2.238c1.41-1.505 2.113-3.366 2.113-5.552 0-2.187-.702-4.026-2.111-5.533zm-2.843 8.534a4.237 4.237 0 0 1-5.809 0c-.764-.797-1.146-1.8-1.145-3.012 0-1.212.38-2.218 1.145-2.984.765-.797 1.734-1.174 2.905-1.174 1.172 0 2.139.382 2.904 1.174.792.77 1.166 1.772 1.166 2.984s-.374 2.214-1.166 3.012z"/>
        <path fill="#24F281" d="M57.613 39.496l2.788-2.781 2.803 2.81-2.788 2.781z"/>
        <path fill="#FFF" d="M55.161 18.141l-6.757 6.805a15.854 15.854 0 0 0-11.245-4.705 15.853 15.853 0 0 0-11.255 4.68l-.027.025h-.011l-6.763-6.805L37.136 0 55.16 18.141z"/>
        <path fill="#24F281" d="M46.41 26.953l-9.269 9.326-9.275-9.33a12.94 12.94 0 0 1 9.266-3.873c.62 0 1.24.044 1.854.13a12.94 12.94 0 0 1 7.423 3.747zM41.738 68.895l-1.63.895s1.517 2.322 3.87 2.089c4.023-.397 3.069-3.685 3.069-3.685L45 68.366s1.377 2.346-2.209 1.706c-.896-.159-1.053-1.177-1.053-1.177zM48.5 68.072l.343 2.218 1.134 1.167 1.382.481 1.48-.382.727-.67.234.793 1.604.026.049-4.216-1.79.15-.183 1.88-.691.65-1.356.17-.788-.446-.65-1.89zM57.449 67.32l1.676 4.457h1.935l1.81-4.911-1.832.163-.938 2.899c-.57-1.875-.923-2.75-.923-2.75l-1.728.143zM66.461 71.777h-1.764V66.73l1.764-.165zM68.301 66.411v5.227h1.726v-4.16l.843-.83.9-.083.941.498.214 1.57v3.005h1.647l-.176-5.073-.317-.637zM77.99 72.486l-1.44.86a3.37 3.37 0 0 0 3.08 1.379c2.113-.162 2.999-1.51 2.999-1.51l.403-1.184-.07-6.85-1.516.207-.041 3.608-.337.57-1.031.543-1.418-.169-.859-1.308-.016-.608.63-1.12.693-.292.774-.098 1.047.363 1.064 1.378-.516-2.01-.936-.852-3.28.27-1.08 1.516v1.948l.752 1.811 1.655.662 1.44-.086 1.206-.697.31.822-.31.767-.836.724-1.144.113-1.223-.757z"/>
    </g>
</svg>
