<svg xmlns="http://www.w3.org/2000/svg" width="90" height="76" viewBox="0 0 90 76">
    <g fill="none" fill-rule="nonzero">
        <path fill="#FFF" d="M22.02 51.396v8.046l-3.803-.013v-7.84l-.03-1.094c0-1.58-.955-2.772-2.405-2.888a2.61 2.61 0 0 0-.95.094c-.493.12-.936.394-1.267.782-.115.14-.212.295-.29.46a3.637 3.637 0 0 0-.298 1.288c0 .124-.017.248-.02.374v8.834H9.154v-8.32-.514c0-.124 0-.248-.018-.365a3.646 3.646 0 0 0-.299-1.292 2.21 2.21 0 0 0-.299-.468 2.413 2.413 0 0 0-1.267-.782 2.615 2.615 0 0 0-.951-.095c-1.449.117-2.403 1.309-2.405 2.889l-.029 1.093v7.848l-3.803.018v-8.055c0-.383 0-.77.027-1.154 0-.086.01-.168.015-.251.121-2.1.962-3.899 2.787-4.998a6.89 6.89 0 0 1 5.445-.705c1.137.355 1.88 1.042 2.653 1.92l.042.052.041-.051c.774-.879 1.516-1.566 2.655-1.921a6.893 6.893 0 0 1 5.447.705c1.831 1.094 2.666 2.898 2.805 5.005 0 .084 0 .166.013.251.002.389.007.782.007 1.147zM71.51 48.323v6.224c0 1.616 1.158 1.64 3.358 1.527v3.494c-5.26.6-7.196-.911-7.196-5.025v-6.22h-2.584v-3.709h2.586v-1.823l3.835-3.869v5.692h3.36v3.709h-3.36zM34.631 44.598l-3.289 10.024-3.848-10.024h-4.177l6.075 14.432c-.71 2.029-1.83 2.889-3.882 2.862v3.577c3.802.206 6.282-1.67 7.819-5.965l5.393-14.908-4.091.002zM59.078 44.598h3.821v14.908h-3.821zM54.24 46.475c-1.394-1.522-3.11-2.298-5.102-2.298-2.072 0-3.678.716-4.799 2.174v-7.713h-.105l-3.716 3.742V59.51h3.82v-1.76c1.127 1.458 2.726 2.174 4.798 2.174a6.69 6.69 0 0 0 5.103-2.263c1.423-1.52 2.133-3.4 2.133-5.607 0-2.207-.71-4.058-2.131-5.58zm-2.87 8.615a4.279 4.279 0 0 1-5.865 0c-.771-.806-1.156-1.82-1.155-3.042 0-1.225.384-2.238 1.155-3.013.772-.805 1.75-1.184 2.932-1.184 1.183 0 2.16.384 2.934 1.184.773.8 1.177 1.788 1.177 3.013 0 1.225-.379 2.236-1.177 3.044v-.002z"/>
        <path fill="#2DB84B" d="M58.148 39.93l2.816-2.81 2.83 2.838-2.815 2.81z"/>
        <path fill="#FFF" d="M55.673 18.37l-6.821 6.87c-6.263-6.317-16.429-6.33-22.707-.027l-.027.027h-.013l-6.825-6.87L37.485.054l18.188 18.314z"/>
        <path fill="#2DB84B" d="M46.838 27.265l-9.353 9.417-9.366-9.419a13.067 13.067 0 0 1 9.357-3.91 13.16 13.16 0 0 1 9.364 3.912h-.002zM48.265 69.654c0 1.879-1.52 3.098-3.4 3.098H40.44V62.158h4.124c1.834 0 3.324 1.197 3.324 3.029a2.661 2.661 0 0 1-.918 2.076 2.738 2.738 0 0 1 1.295 2.39zm-5.416-5.223v1.877h1.715c.515 0 .932-.42.932-.939a.936.936 0 0 0-.932-.938h-1.715zm3.008 5.042a.962.962 0 0 0-.272-.73.95.95 0 0 0-.72-.285h-2.016v2.03h2.015a.95.95 0 0 0 .72-.285.962.962 0 0 0 .273-.73zM56.667 65.187v7.573H54.41v-.711c-.405.56-1.159.922-2.151.922-1.52 0-2.814-1.094-2.814-3.135v-4.65h2.258v4.318c0 .94.587 1.376 1.307 1.376.83 0 1.4-.482 1.4-1.558v-4.135h2.258zM66.046 62.158V72.76H63.79v-.711c-.498.574-1.235.922-2.242.922-1.972 0-3.599-1.74-3.599-3.997 0-2.256 1.63-3.999 3.599-3.999 1.007 0 1.744.349 2.242.924v-3.741h2.256zm-2.256 6.816c0-1.135-.754-1.848-1.791-1.848-1.038 0-1.791.713-1.791 1.848 0 1.136.753 1.846 1.79 1.846 1.038 0 1.792-.71 1.792-1.846zM75.424 65.187v7.193c0 2.552-1.97 3.62-3.97 3.62-1.567 0-2.875-.59-3.568-1.832l1.926-1.12c.287.53.725.953 1.715.953 1.054 0 1.7-.547 1.7-1.62v-.697c-.495.622-1.218.984-2.196.984-2.137 0-3.703-1.757-3.703-3.845 0-2.089 1.566-3.848 3.703-3.848.978 0 1.7.365 2.197.985v-.773h2.196zm-2.196 3.636c0-1.046-.752-1.759-1.82-1.759-1.069 0-1.822.713-1.822 1.759 0 1.046.753 1.757 1.822 1.757 1.068 0 1.82-.713 1.82-1.757zM80.906 70.942a1.956 1.956 0 0 0 1.449-.575l1.81 1.044c-.737 1.03-1.85 1.56-3.28 1.56-2.572 0-4.166-1.74-4.166-3.997 0-2.256 1.63-3.999 4.002-3.999 2.197 0 3.823 1.712 3.823 4 .001.305-.03.61-.09.91H79.11c.276.784.967 1.057 1.795 1.057zm1.385-2.757c-.24-.877-.918-1.196-1.595-1.196-.859 0-1.43.425-1.64 1.196h3.235zM88.45 67.368v2.681c0 .651.556.711 1.55.651v2.06c-2.95.302-3.803-.591-3.803-2.71v-2.682h-1.204v-2.187h1.204v-1.438l2.253-.683v2.12H90v2.187l-1.55.001z"/>
    </g>
</svg>
