<svg xmlns="http://www.w3.org/2000/svg" width="88" height="89" viewBox="0 0 88 89">
    <g fill="none" fill-rule="nonzero">
        <path fill="#FFF" d="M25.829 59.889v9.385l-4.476-.016v-9.152l-.035-1.28c0-1.846-1.122-3.232-2.827-3.369a3.03 3.03 0 0 0-1.11.11 2.837 2.837 0 0 0-1.5.911c-.14.163-.258.344-.352.537-.21.475-.33.984-.353 1.502-.009.145-.018.29-.022.435v10.304h-4.453v-9.704-.6c0-.144-.012-.29-.025-.432a4.193 4.193 0 0 0-.35-1.505 2.585 2.585 0 0 0-.343-.537 2.851 2.851 0 0 0-1.5-.91 3.043 3.043 0 0 0-1.108-.111c-1.707.135-2.825 1.525-2.827 3.37l-.035 1.28v9.15l-4.478.023v-9.391c0-.447 0-.898.03-1.347 0-.1.01-.195.016-.293.165-2.458 1.141-4.554 3.297-5.837 1.867-1.108 4.305-1.46 6.398-.814 1.337.415 2.219 1.215 3.119 2.241l.05.058.048-.058c.908-1.026 1.782-1.826 3.119-2.241 2.085-.646 4.531-.3 6.4.814 2.152 1.283 3.132 3.38 3.296 5.837 0 .098.011.196.015.293-.002.453.006.903.006 1.347zM83.992 56.295v7.26c0 1.886 1.362 1.917 3.949 1.78v4.078c-6.184.698-8.458-1.077-8.458-5.863v-7.255h-3.038V51.97h3.04v-2.125l4.507-4.513v6.638h3.949v4.326h-3.95zM40.65 51.95l-3.86 11.69-4.522-11.69H27.36l7.14 16.833c-.835 2.367-2.154 3.37-4.563 3.338v4.172c4.46.241 7.38-1.948 9.19-6.956l6.338-17.386H40.65zM69.381 51.951h4.491v17.386h-4.491zM63.696 54.142c-1.638-1.774-3.654-2.679-5.997-2.679-2.435 0-4.32.835-5.638 2.535v-9.007h-.126l-4.367 4.362v19.993h4.49v-2.053c1.326 1.7 3.205 2.535 5.64 2.535a7.893 7.893 0 0 0 5.997-2.64c1.673-1.775 2.507-3.965 2.507-6.539s-.834-4.734-2.506-6.507zM60.323 64.19c-.909.907-2.058 1.36-3.447 1.36-1.384 0-2.538-.45-3.446-1.356-.907-.938-1.36-2.12-1.358-3.546 0-1.429.45-2.61 1.358-3.508.908-.938 2.056-1.381 3.446-1.381 1.39 0 2.539.45 3.447 1.381.939.907 1.384 2.087 1.384 3.508 0 1.422-.445 2.602-1.384 3.542z"/>
        <path fill="#24F281" d="M68.302 46.52l3.31-3.3 3.3 3.307-3.31 3.301z"/>
        <path fill="#FFF" d="M65.38 21.362l-8.015 8.012h-.01c-7.361-7.369-19.31-7.382-26.688-.03l-.032.03h-.012l-8.024-8.012L44 0l21.38 21.362z"/>
        <path fill="#24F281" d="M54.996 31.737L44 42.718 32.993 31.733A15.42 15.42 0 0 1 44 27.173c.736 0 1.471.051 2.2.153a15.396 15.396 0 0 1 8.796 4.411zM74.27 80.922c0 4.952-3.454 7.96-7.995 7.96-5.098 0-8.759-3.749-8.759-8.402a8.396 8.396 0 0 1 2.48-6.002 8.417 8.417 0 0 1 6.024-2.443c3.104 0 5.731 1.527 7.09 3.702l-3.143 1.806c-.673-1.066-2.131-1.899-3.963-1.899-2.735 0-4.774 2.013-4.774 4.86 0 2.755 1.947 4.768 5.1 4.768 2.153 0 3.567-.95 4.146-2.5h-4.34v-3.24h8.135l-.002 1.39zM75.66 82.772a6.134 6.134 0 0 1 3.774-5.684 6.147 6.147 0 0 1 6.701 1.314 6.129 6.129 0 0 1 1.342 6.688 6.142 6.142 0 0 1-5.676 3.792 6.077 6.077 0 0 1-4.354-1.768 6.062 6.062 0 0 1-1.787-4.342zm8.805 0c0-1.644-1.159-2.731-2.664-2.731-1.505 0-2.666 1.087-2.666 2.73 0 1.644 1.16 2.732 2.666 2.732 1.507 0 2.664-1.088 2.664-2.731z"/>
    </g>
</svg>
