<svg xmlns="http://www.w3.org/2000/svg" width="115" height="73" viewBox="0 0 115 73">
    <g fill="#FFF" fill-rule="nonzero">
        <path d="M23.923 72.924h-5.465V58.991l-6.186 10.167h-.61L5.474 58.991v13.933H0V48.968h5.47l6.494 10.644 6.494-10.646h5.47zM39.46 63.737v9.187h-5.457v-9.187l-8.027-14.754h6.221l4.54 9.243 4.557-9.258h6.222zM70.745 60.951c0 6.78-5.024 11.983-11.618 11.983h-9.584V48.968h9.584c6.592 0 11.618 5.206 11.618 11.983zm-5.266 0c0-4.107-2.597-6.709-6.355-6.709h-4.1V67.66h4.1c3.76 0 6.355-2.602 6.355-6.709zM86.976 69.168h-8.884l-1.198 3.756h-5.982l8.135-23.961h6.976l8.13 23.961h-5.981l-1.196-3.756zm-1.654-5.125l-2.804-8.798-2.787 8.798h5.59zM108.778 72.924l-4.035-6.913-4.035 6.913h-6.214l7.14-12.289-6.81-11.672h6.217l3.692 6.333 3.71-6.333h6.23l-6.81 11.672L115 72.925zM41.546 8.899L52.86 20.23 41.546 31.56a16 16 0 0 1-4.69-11.3A16 16 0 0 1 41.52 8.95l.027-.03v-.021zM45.997 35.901l11.314-11.329 11.31 11.33c-6.225 6.25-16.33 6.264-22.573.03l-.028-.03h-.023zM73.241 31.542L62.291 20.09 73.249 8.645c2.903 3.025 4.537 7.132 4.542 11.416.005 4.284-1.619 8.394-4.515 11.427l-.027.028-.007.026zM68.596 4.731L57.283 16.063 45.973 4.73A15.948 15.948 0 0 1 57.252.034a15.948 15.948 0 0 1 11.293 4.67l.028.027h.022z"/>
        <path d="M47 59h11v5H47z"/>
    </g>
</svg>
