<svg xmlns="http://www.w3.org/2000/svg" width="105" height="84" viewBox="0 0 105 84">
    <defs>
        <linearGradient id="a" x1="-7.979%" x2="108.015%" y1="37.793%" y2="62.26%">
            <stop offset="0%" stop-color="#E32400"/>
            <stop offset="100%" stop-color="#EB3349"/>
        </linearGradient>
        <linearGradient id="b" x1="18.397%" x2="88.729%" y1="69.387%" y2="4.822%">
            <stop offset="0%" stop-color="#E32400"/>
            <stop offset="100%" stop-color="#EB3349"/>
        </linearGradient>
        <linearGradient id="c" x1="-.362%" x2="499.334%" y1="54.242%" y2="12.123%">
            <stop offset="0%" stop-color="#E32400"/>
            <stop offset="100%" stop-color="#EB3349"/>
        </linearGradient>
        <linearGradient id="d" x1="-147.693%" x2="528.18%" y1="61.257%" y2="18.312%">
            <stop offset="0%" stop-color="#E32400"/>
            <stop offset="100%" stop-color="#EB3349"/>
        </linearGradient>
        <linearGradient id="e" x1="-413.48%" x2="679.023%" y1="71.455%" y2="23.74%">
            <stop offset="0%" stop-color="#E32400"/>
            <stop offset="100%" stop-color="#EB3349"/>
        </linearGradient>
        <linearGradient id="f" x1="-989.551%" x2="1031.007%" y1="72.21%" y2="29.863%">
            <stop offset="0%" stop-color="#E32400"/>
            <stop offset="100%" stop-color="#EB3349"/>
        </linearGradient>
        <linearGradient id="g" x1="-381.345%" x2="305.612%" y1="86.498%" y2="28.595%">
            <stop offset="0%" stop-color="#E32400"/>
            <stop offset="100%" stop-color="#EB3349"/>
        </linearGradient>
        <linearGradient id="h" x1="-547.624%" x2="209.871%" y1="98.43%" y2="38.779%">
            <stop offset="0%" stop-color="#E32400"/>
            <stop offset="100%" stop-color="#EB3349"/>
        </linearGradient>
        <linearGradient id="i" x1="-830.883%" x2="116.049%" y1="104.989%" y2="45.801%">
            <stop offset="0%" stop-color="#E32400"/>
            <stop offset="100%" stop-color="#EB3349"/>
        </linearGradient>
    </defs>
    <g fill="none" fill-rule="nonzero">
        <path fill="#FFF" d="M24.304 56.325v8.826l-4.209-.013V56.53l-.031-1.204c0-1.734-1.052-3.04-2.656-3.169a2.845 2.845 0 0 0-1.052.103c-.548.13-1.042.43-1.41.857a2.525 2.525 0 0 0-.32.505c-.192.447-.3.927-.317 1.414 0 .134-.017.271-.021.408v9.69H10.1V56.01v-.566c0-.135-.01-.272-.02-.406a4.013 4.013 0 0 0-.331-1.416 2.525 2.525 0 0 0-.32-.505 2.69 2.69 0 0 0-1.41-.857 2.84 2.84 0 0 0-1.052-.103c-1.601.126-2.653 1.433-2.655 3.169l-.034 1.204v8.608l-4.209.019v-8.838c0-.42 0-.842.03-1.262 0-.095.01-.183.015-.276.153-2.315 1.07-4.284 3.097-5.49a7.64 7.64 0 0 1 6.01-.766c1.262.39 2.076 1.143 2.929 2.104l.046.055.046-.055c.842-.965 1.684-1.719 2.931-2.104a7.645 7.645 0 0 1 6.01.766c2.022 1.208 2.946 3.177 3.097 5.49 0 .093.011.183.015.276 0 .427.009.85.009 1.268zM78.937 52.944v6.83c0 1.772 1.282 1.801 3.71 1.673v3.834c-5.808.659-7.943-1.01-7.943-5.511v-6.826H71.85v-4.067h2.85v-2l4.233-4.244v6.244h3.71v4.067h-3.706zM38.225 48.86l-3.63 10.992-4.25-10.992h-4.61l6.708 15.83c-.785 2.226-2.022 3.17-4.287 3.14v3.924c4.19.227 6.934-1.833 8.628-6.542l5.952-16.354-4.51.002zM65.216 48.86h4.219v16.352h-4.219zM59.875 50.922c-1.54-1.669-3.434-2.525-5.635-2.525-2.287 0-4.059.783-5.296 2.384v-8.467h-.126l-4.104 4.1V65.23h4.22V63.3c1.245 1.601 3.01 2.384 5.296 2.384a7.413 7.413 0 0 0 5.635-2.483c1.57-1.669 2.354-3.729 2.354-6.149s-.776-4.463-2.344-6.13zm-3.17 9.448a4.747 4.747 0 0 1-6.475 0 4.6 4.6 0 0 1-1.276-3.335c0-1.343.421-2.456 1.276-3.306.854-.85 1.931-1.3 3.238-1.3a4.316 4.316 0 0 1 3.236 1.3c.884.852 1.3 1.963 1.3 3.306 0 1.342-.416 2.451-1.3 3.335z"/>
        <path fill="url(#a)" d="M65.109 41.557h4.389v4.396h-4.389z" transform="rotate(-44.93 67.304 43.755)"/>
        <path fill="#FFF" d="M61.456 20.089l-7.531 7.537a17.724 17.724 0 0 0-25.068-.03l-.03.03h-.012l-7.537-7.537L41.367 0l20.089 20.089z"/>
        <path fill="url(#b)" d="M51.703 29.848l-10.33 10.328-10.338-10.332c2.73-2.756 6.45-4.3 10.33-4.288.69 0 1.38.048 2.064.145a14.441 14.441 0 0 1 8.274 4.147z"/>
        <path fill="url(#c)" d="M44.723 73.938a6.075 6.075 0 1 1 6.075 6.075 6.022 6.022 0 0 1-6.075-6.075zm9.469 0c0-2.086-1.503-3.472-3.405-3.472s-3.404 1.386-3.404 3.472c0 2.085 1.502 3.472 3.404 3.472s3.415-1.387 3.415-3.472h-.01z"/>
        <path fill="url(#d)" d="M67.27 75.606c0 2.487-1.804 4.407-3.999 4.407-1.117 0-1.935-.386-2.485-1.019v4.122h-2.5V71.434h2.505v.785c.549-.632 1.367-1.019 2.485-1.019 2.19 0 3.993 1.92 3.993 4.406zm-2.505 0c0-1.252-.841-2.034-1.986-2.034s-1.984.782-1.984 2.034c0 1.252.841 2.037 1.984 2.037s1.986-.785 1.986-2.037z"/>
        <path fill="url(#e)" d="M71.69 73.837v2.946c0 .717.619.784 1.72.717v2.27c-3.27.333-4.222-.65-4.222-2.987v-2.946h-1.336v-2.403h1.336V69.86l2.502-.751v2.335h1.72v2.393h-1.72z"/>
        <path fill="url(#f)" d="M74.577 69.199a1.502 1.502 0 1 1 1.503 1.5 1.517 1.517 0 0 1-1.503-1.5zm.25 2.235h2.505v8.345h-2.504v-8.345z"/>
        <path fill="url(#g)" d="M78.75 75.606a4.419 4.419 0 1 1 4.419 4.407 4.373 4.373 0 0 1-4.419-4.407zm6.34 0c0-1.184-.842-1.97-1.92-1.97-1.076 0-1.918.786-1.918 1.97 0 1.185.842 1.97 1.919 1.97s1.919-.785 1.919-1.97z"/>
        <path fill="url(#h)" d="M97.023 74.655v5.124h-2.504v-4.756c0-1.035-.65-1.519-1.452-1.519-.917 0-1.55.535-1.55 1.72v4.555h-2.509v-8.345h2.504v.785c.45-.617 1.284-1.019 2.386-1.019 1.69 0 3.125 1.202 3.125 3.455z"/>
        <path fill="url(#i)" d="M98.443 77.793l1.64-.95a1.74 1.74 0 0 0 1.744 1.152c.903 0 1.128-.356 1.128-.678 0-.51-.474-.711-1.722-1.052-1.247-.341-2.445-.939-2.445-2.525 0-1.587 1.353-2.525 2.79-2.525a3.222 3.222 0 0 1 3.039 1.875l-1.603.938c-.284-.593-.676-.961-1.435-.961-.596 0-.893.296-.893.63 0 .38.21.632 1.499 1.032 1.262.38 2.67.82 2.67 2.578 0 1.6-1.282 2.552-3.087 2.552-1.747-.013-2.87-.844-3.325-2.066z"/>
    </g>
</svg>
