<svg xmlns="http://www.w3.org/2000/svg" width="100" height="88" viewBox="0 0 100 88">
    <defs>
        <linearGradient id="a" x1="-7.989%" x2="108.021%" y1="37.743%" y2="62.23%">
            <stop offset="0%" stop-color="#00B09B"/>
            <stop offset="100%" stop-color="#96C93D"/>
        </linearGradient>
        <linearGradient id="b" x1="18.405%" x2="88.731%" y1="69.381%" y2="4.823%">
            <stop offset="0%" stop-color="#00B09B"/>
            <stop offset="100%" stop-color="#96C93D"/>
        </linearGradient>
        <linearGradient id="c" x1="-29.808%" x2="589.78%" y1="59.674%" y2="-72.405%">
            <stop offset="0%" stop-color="#00B09B"/>
            <stop offset="100%" stop-color="#96C93D"/>
        </linearGradient>
        <linearGradient id="d" x1="-110.045%" x2="477.175%" y1="102.125%" y2="-72.927%">
            <stop offset="0%" stop-color="#00B09B"/>
            <stop offset="100%" stop-color="#96C93D"/>
        </linearGradient>
        <linearGradient id="e" x1="-213.84%" x2="382.336%" y1="100.268%" y2="-31.689%">
            <stop offset="0%" stop-color="#00B09B"/>
            <stop offset="100%" stop-color="#96C93D"/>
        </linearGradient>
        <linearGradient id="f" x1="-566.452%" x2="487.047%" y1="152.732%" y2="-28.531%">
            <stop offset="0%" stop-color="#00B09B"/>
            <stop offset="100%" stop-color="#96C93D"/>
        </linearGradient>
        <linearGradient id="g" x1="-374.378%" x2="220.838%" y1="174.401%" y2=".297%">
            <stop offset="0%" stop-color="#00B09B"/>
            <stop offset="100%" stop-color="#96C93D"/>
        </linearGradient>
        <linearGradient id="h" x1="-1733.87%" x2="373.13%" y1="157.214%" y2="30.59%">
            <stop offset="0%" stop-color="#00B09B"/>
            <stop offset="100%" stop-color="#96C93D"/>
        </linearGradient>
        <linearGradient id="i" x1="-1893.725%" x2="213.274%" y1="166.799%" y2="40.192%">
            <stop offset="0%" stop-color="#00B09B"/>
            <stop offset="100%" stop-color="#96C93D"/>
        </linearGradient>
    </defs>
    <g fill="none" fill-rule="nonzero">
        <path fill="#FFF" d="M25.481 59.418v9.286h-4.384v-9.072l-.036-1.272c0-1.824-1.097-3.2-2.767-3.336a2.97 2.97 0 0 0-1.092.11 2.784 2.784 0 0 0-1.47.902 2.478 2.478 0 0 0-.333.532 4.163 4.163 0 0 0-.346 1.484c-.011.143-.017.287-.021.425v10.199h-4.37V59.07v-.593c0-.145 0-.287-.021-.425a4.229 4.229 0 0 0-.345-1.484 2.629 2.629 0 0 0-.334-.532 2.777 2.777 0 0 0-1.47-.901 2.986 2.986 0 0 0-1.095-.11c-1.67.133-2.767 1.51-2.769 3.335l-.033 1.272v9.072l-4.387.02v-9.306c0-.441 0-.886.03-1.334 0-.097.01-.193.016-.29.16-2.432 1.118-4.506 3.23-5.776a7.902 7.902 0 0 1 6.266-.806c1.31.409 2.168 1.202 3.065 2.224l.048.057.047-.057c.89-1.016 1.745-1.809 3.056-2.218a7.919 7.919 0 0 1 6.27.806c2.1 1.272 3.067 3.344 3.228 5.776 0 .098.01.195.015.29-.004.435.002.89.002 1.328zM82.452 55.86v7.188c0 1.864 1.334 1.898 3.867 1.762v4.03c-6.056.69-8.283-1.06-8.283-5.802V55.86h-2.977v-4.281h2.977v-2.104l4.411-4.468v6.574h3.868v4.281l-3.863-.002zM39.998 51.562L36.216 63.13l-4.43-11.57h-4.811l6.993 16.661c-.819 2.333-2.1 3.336-4.47 3.304v4.13c4.37.238 7.231-1.929 9.002-6.885l6.208-17.211-4.71.002zM68.141 51.562h4.399v17.21h-4.399zM62.574 53.729c-1.606-1.756-3.582-2.65-5.883-2.65-2.384 0-4.233.824-5.523 2.51V44.67h-.118l-4.275 4.313v19.79h4.397V66.74c1.299 1.696 3.141 2.51 5.525 2.51a7.695 7.695 0 0 0 5.883-2.614c1.636-1.756 2.456-3.923 2.456-6.472 0-2.548-.826-4.68-2.462-6.435zm-3.307 9.947a4.914 4.914 0 0 1-6.75 0c-.89-.929-1.333-2.1-1.33-3.512 0-1.414.441-2.584 1.33-3.477.888-.929 2.012-1.37 3.376-1.37 1.363 0 2.485.447 3.374 1.37.922.897 1.357 2.063 1.357 3.477 0 1.415-.435 2.581-1.357 3.512z"/>
        <path fill="url(#a)" d="M68.033 43.876h4.578v4.627h-4.578z" transform="rotate(-44.93 70.322 46.19)"/>
        <path fill="#FFF" d="M64.223 21.281l-7.853 7.933a18.367 18.367 0 0 0-26.141-.032l-.032.032h-.012l-7.86-7.933L43.278.138 64.223 21.28z"/>
        <path fill="url(#b)" d="M54.05 31.55L43.277 42.423 32.5 31.55a15.024 15.024 0 0 1 10.777-4.515c.72 0 1.44.05 2.154.153a15.002 15.002 0 0 1 8.62 4.364z"/>
        <path fill="url(#c)" d="M55.542 76.263a4.246 4.246 0 0 1-1.257 3.011 4.166 4.166 0 0 1-3.008 1.207h-1.83v3.868h-2.785v-12.3h4.622a4.166 4.166 0 0 1 3.002 1.208 4.246 4.246 0 0 1 1.256 3.006zm-2.786 0c0-.897-.63-1.582-1.47-1.582h-1.83v3.164h1.83c.844 0 1.47-.685 1.47-1.582z"/>
        <path fill="url(#d)" d="M65.26 75.56v8.789h-2.613v-.827c-.573.667-1.426 1.073-2.594 1.073-2.282 0-4.162-2.021-4.162-4.64 0-2.619 1.88-4.642 4.162-4.642 1.168 0 2.02.405 2.594 1.073v-.827h2.614zm-2.613 4.395c0-1.319-.87-2.146-2.071-2.146-1.202 0-2.072.827-2.072 2.146s.87 2.144 2.072 2.144c1.201 0 2.071-.827 2.071-2.144z"/>
        <path fill="url(#e)" d="M75.447 75.56l-2.968 8.523c-.975 2.795-2.521 3.904-4.962 3.78v-2.46c1.218 0 1.794-.387 2.176-1.46l-3.475-8.384h2.872l1.933 5.38 1.637-5.38h2.787z"/>
        <path fill="url(#f)" d="M81.628 75.385v2.988c-1.08-.176-2.611.263-2.611 2.004v3.972h-2.612v-8.79h2.612v1.565c.349-1.177 1.515-1.739 2.611-1.739z"/>
        <path fill="url(#g)" d="M82.143 79.955a4.666 4.666 0 0 1 2.835-4.328 4.59 4.59 0 0 1 5.046.995 4.697 4.697 0 0 1 1.013 5.087 4.622 4.622 0 0 1-4.272 2.886 4.543 4.543 0 0 1-3.276-1.34 4.63 4.63 0 0 1-1.346-3.3zm6.618 0c0-1.25-.872-2.074-2.005-2.074-1.132 0-2.002.825-2.002 2.074 0 1.249.872 2.074 2.002 2.074s2.013-.827 2.013-2.074h-.008z"/>
        <path fill="url(#h)" d="M92.857 71.517h2.611V84.35h-2.61z"/>
        <path fill="url(#i)" d="M97.389 71.517H100V84.35h-2.611z"/>
    </g>
</svg>
