<svg xmlns="http://www.w3.org/2000/svg" width="89" height="86" viewBox="0 0 89 86">
    <defs>
        <linearGradient id="a" x1="-7.966%" x2="108.028%" y1="37.777%" y2="62.235%">
            <stop offset="0%" stop-color="#E32400"/>
            <stop offset="23%" stop-color="#EC4000"/>
            <stop offset="55%" stop-color="#F65F00"/>
            <stop offset="82%" stop-color="#FD7200"/>
            <stop offset="100%" stop-color="#FF7900"/>
        </linearGradient>
        <linearGradient id="b" x1="18.399%" x2="88.727%" y1="69.408%" y2="4.822%">
            <stop offset="0%" stop-color="#E32400"/>
            <stop offset="23%" stop-color="#EC4000"/>
            <stop offset="55%" stop-color="#F65F00"/>
            <stop offset="82%" stop-color="#FD7200"/>
            <stop offset="100%" stop-color="#FF7900"/>
        </linearGradient>
        <linearGradient id="c" x1="-2.703%" x2="410.046%" y1="57.969%" y2="-35.166%">
            <stop offset="0%" stop-color="#E32400"/>
            <stop offset="23%" stop-color="#EC4000"/>
            <stop offset="55%" stop-color="#F65F00"/>
            <stop offset="82%" stop-color="#FD7200"/>
            <stop offset="100%" stop-color="#FF7900"/>
        </linearGradient>
        <linearGradient id="d" x1="-159.033%" x2="558.6%" y1="83.731%" y2="-44.134%">
            <stop offset="0%" stop-color="#E32400"/>
            <stop offset="23%" stop-color="#EC4000"/>
            <stop offset="55%" stop-color="#F65F00"/>
            <stop offset="82%" stop-color="#FD7200"/>
            <stop offset="100%" stop-color="#FF7900"/>
        </linearGradient>
        <linearGradient id="e" x1="-165.481%" x2="282.2%" y1="109.722%" y2="-17.155%">
            <stop offset="0%" stop-color="#E32400"/>
            <stop offset="23%" stop-color="#EC4000"/>
            <stop offset="55%" stop-color="#F65F00"/>
            <stop offset="82%" stop-color="#FD7200"/>
            <stop offset="100%" stop-color="#FF7900"/>
        </linearGradient>
        <linearGradient id="f" x1="-306.954%" x2="200.566%" y1="137.375%" y2="13.881%">
            <stop offset="0%" stop-color="#E32400"/>
            <stop offset="23%" stop-color="#EC4000"/>
            <stop offset="55%" stop-color="#F65F00"/>
            <stop offset="82%" stop-color="#FD7200"/>
            <stop offset="100%" stop-color="#FF7900"/>
        </linearGradient>
        <linearGradient id="g" x1="-516.452%" x2="128.708%" y1="144.091%" y2="42.756%">
            <stop offset="0%" stop-color="#E32400"/>
            <stop offset="23%" stop-color="#EC4000"/>
            <stop offset="55%" stop-color="#F65F00"/>
            <stop offset="82%" stop-color="#FD7200"/>
            <stop offset="100%" stop-color="#FF7900"/>
        </linearGradient>
    </defs>
    <g fill="none" fill-rule="nonzero">
        <path fill="#FFF" d="M26.131 60.416v9.448l-4.527-.024v-9.207l-.035-1.284c0-1.854-1.134-3.251-2.86-3.388a3.13 3.13 0 0 0-1.129.11 2.89 2.89 0 0 0-1.518.916 2.512 2.512 0 0 0-.343.541 4.151 4.151 0 0 0-.358 1.517c-.011.145-.019.29-.024.438v10.364h-4.511v-9.76-.604a4.82 4.82 0 0 0-.024-.435 4.246 4.246 0 0 0-.355-1.514 2.594 2.594 0 0 0-.345-.541 2.9 2.9 0 0 0-1.518-.917 3.126 3.126 0 0 0-1.128-.11c-1.726.136-2.858 1.533-2.86 3.389l-.037 1.283v9.207l-4.53.019v-9.448c0-.45 0-.904.032-1.355 0-.1.011-.196.017-.295.164-2.474 1.152-4.584 3.334-5.868 1.89-1.12 4.356-1.467 6.474-.82 1.352.419 2.236 1.224 3.154 2.254l.05.059.05-.059c.923-1.03 1.802-1.833 3.155-2.253 2.11-.651 4.585-.301 6.474.82 2.179 1.283 3.17 3.397 3.336 5.867 0 .1.012.196.015.295.004.455.011.9.011 1.355zM84.975 56.8v7.304c0 1.896 1.379 1.927 3.995 1.79v4.102c-6.255.702-8.556-1.082-8.556-5.898V56.8H77.34v-4.357h3.075v-2.132l4.559-4.54v6.672h3.995v4.352l-3.995.005zM41.125 52.43l-3.91 11.758-4.575-11.757h-4.967l7.225 16.932c-.843 2.384-2.177 3.39-4.616 3.357v4.198c4.513.242 7.47-1.962 9.299-7l6.411-17.49-4.867.003zM70.196 52.431h4.542v17.49h-4.542zM64.442 54.633c-1.662-1.784-3.693-2.694-6.07-2.694-2.46 0-4.37.838-5.703 2.55v-9.061h-.128l-4.418 4.388v20.112h4.544v-2.065c1.34 1.71 3.242 2.55 5.706 2.55 2.356 0 4.403-.872 6.067-2.655 1.691-1.786 2.535-3.988 2.535-6.577 0-2.59-.842-4.762-2.533-6.548zm-3.414 10.109c-.917.912-2.08 1.367-3.486 1.364-1.402 0-2.57-.453-3.488-1.364-.919-.944-1.377-2.133-1.374-3.568 0-1.436.456-2.626 1.374-3.536.923-.942 2.08-1.39 3.488-1.39 1.407 0 2.568.453 3.486 1.39.95.917 1.4 2.1 1.4 3.536 0 1.435-.447 2.622-1.398 3.568h-.002z"/>
        <path fill="url(#a)" d="M70.08 44.622h4.729v4.702H70.08z" transform="rotate(-44.93 72.445 46.973)"/>
        <path fill="#FFF" d="M66.146 21.66l-8.11 8.059h-.009a19.162 19.162 0 0 0-13.496-5.571 19.162 19.162 0 0 0-13.51 5.54l-.032.03h-.013l-8.124-8.058L44.509.17l21.637 21.49z"/>
        <path fill="url(#b)" d="M55.642 32.09L44.517 43.138 33.382 32.09A15.635 15.635 0 0 1 44.5 27.505c.741 0 1.482.052 2.216.154a15.613 15.613 0 0 1 8.926 4.43z"/>
        <path fill="url(#c)" d="M57.61 75.548h-3.335v10.04h-2.963v-10.04h-3.333v-2.835h9.631z"/>
        <path fill="url(#d)" d="M63.255 76.206v3.127c-1.149-.184-2.77.275-2.77 2.096v4.155h-2.77V76.39h2.77v1.637c.362-1.232 1.603-1.82 2.77-1.82z"/>
        <path fill="url(#e)" d="M73.305 76.39v9.194h-2.77v-.868c-.498.68-1.425 1.123-2.648 1.123-1.87 0-3.462-1.324-3.462-3.807V76.39h2.77v5.24c0 1.14.722 1.674 1.612 1.674 1.017 0 1.72-.588 1.72-1.894v-5.02h2.778z"/>
        <path fill="url(#f)" d="M82.436 82.826c0 2.114-1.847 3.016-3.852 3.016-1.846 0-3.259-.698-3.981-2.19l2.4-1.36c.24.699.76 1.086 1.574 1.086.666 0 .999-.202.999-.57 0-1.01-4.554-.479-4.554-3.659 0-2.004 1.703-3.016 3.629-3.016 1.499 0 2.832.662 3.611 1.967l-2.37 1.27c-.26-.48-.63-.81-1.241-.81-.482 0-.778.184-.778.514.008 1.058 4.563.35 4.563 3.752z"/>
        <path fill="url(#g)" d="M87.063 79.032v3.255c0 .79.685.865 1.907.79v2.501c-3.628.367-4.684-.717-4.684-3.3v-3.246h-1.477V76.39h1.477v-1.746l2.77-.829v2.567h1.907v2.65h-1.9z"/>
    </g>
</svg>
