<svg xmlns="http://www.w3.org/2000/svg" width="300" height="206" viewBox="0 0 300 206">
    <defs>
        <linearGradient id="a" x1="-7.94%" x2="108.016%" y1="37.763%" y2="62.231%">
            <stop offset="0%" stop-color="#1990F2"/>
            <stop offset="100%" stop-color="#3CBCF7"/>
        </linearGradient>
        <linearGradient id="b" x1="18.401%" x2="88.73%" y1="69.392%" y2="4.832%">
            <stop offset="0%" stop-color="#1990F2"/>
            <stop offset="100%" stop-color="#3CBCF7"/>
        </linearGradient>
        <linearGradient id="c" x1="8.24%" x2="617.954%" y1="52.98%" y2="-19.962%">
            <stop offset="0%" stop-color="#1990F2"/>
            <stop offset="100%" stop-color="#3CBCF7"/>
        </linearGradient>
        <linearGradient id="d" x1="-106.3%" x2="668.683%" y1="69.793%" y2="-26.912%">
            <stop offset="0%" stop-color="#1990F2"/>
            <stop offset="100%" stop-color="#3CBCF7"/>
        </linearGradient>
        <linearGradient id="e" x1="-239.208%" x2="599.079%" y1="85.608%" y2="-13.704%">
            <stop offset="0%" stop-color="#1990F2"/>
            <stop offset="100%" stop-color="#3CBCF7"/>
        </linearGradient>
        <linearGradient id="f" x1="-507.43%" x2="700.133%" y1="88.599%" y2="9.274%">
            <stop offset="0%" stop-color="#1990F2"/>
            <stop offset="100%" stop-color="#3CBCF7"/>
        </linearGradient>
        <linearGradient id="g" x1="-437.7%" x2="401.876%" y1="106.338%" y2="6.997%">
            <stop offset="0%" stop-color="#1990F2"/>
            <stop offset="100%" stop-color="#3CBCF7"/>
        </linearGradient>
        <linearGradient id="h" x1="-891.034%" x2="446.693%" y1="119.538%" y2="19.422%">
            <stop offset="0%" stop-color="#1990F2"/>
            <stop offset="100%" stop-color="#3CBCF7"/>
        </linearGradient>
        <linearGradient id="i" x1="-578.139%" x2="196.848%" y1="128.643%" y2="31.937%">
            <stop offset="0%" stop-color="#1990F2"/>
            <stop offset="100%" stop-color="#3CBCF7"/>
        </linearGradient>
        <linearGradient id="j" x1="-837.875%" x2="113.449%" y1="140.439%" y2="43.727%">
            <stop offset="0%" stop-color="#1990F2"/>
            <stop offset="100%" stop-color="#3CBCF7"/>
        </linearGradient>
    </defs>
    <g fill="none" fill-rule="nonzero">
        <path fill="#FFF" d="M61.527 143.123V165.5l-10.648-.04V143.64l-.088-3.05c0-4.395-2.69-7.708-6.726-8.03a7.205 7.205 0 0 0-2.65.262 6.833 6.833 0 0 0-3.572 2.168 5.911 5.911 0 0 0-.807 1.285 10.105 10.105 0 0 0-.84 3.582c0 .343-.041.673-.055 1.03v24.565h-10.58v-23.131-1.434c0-.343 0-.673-.054-1.023a9.99 9.99 0 0 0-.834-3.589 6.107 6.107 0 0 0-.814-1.285 6.813 6.813 0 0 0-3.565-2.168 7.225 7.225 0 0 0-2.657-.263c-4.036.317-6.727 3.636-6.727 8.032l-.08 3.05v21.818l-10.655.054v-22.391c0-1.064 0-2.134.074-3.211 0-.236 0-.465.04-.674.384-5.856 2.69-10.852 7.837-13.908a19.331 19.331 0 0 1 15.222-1.945c3.181.99 5.26 2.901 7.399 5.345l.12.141.115-.141c2.16-2.444 4.238-4.356 7.4-5.345a19.358 19.358 0 0 1 15.228 1.945c5.119 3.056 7.446 8.079 7.843 13.908 0 .236 0 .465.034.674.02 1.084.04 2.134.04 3.21zM199.897 134.56v17.308c0 4.49 3.242 4.564 9.417 4.241v9.714c-14.718 1.67-20.126-2.558-20.126-13.969V134.56h-7.244v-10.314h7.23v-5.09l10.723-10.77v15.827h9.417v10.313l-9.417.034zM96.78 124.2l-9.188 27.863-10.762-27.864H65.152l16.985 40.13c-2.018 5.641-5.12 8.031-10.857 7.957v9.943c10.615.58 17.563-4.645 21.868-16.58l15.074-41.45H96.78zM165.141 124.199h10.682v41.449h-10.682zM151.614 129.423a18.78 18.78 0 0 0-14.266-6.388c-5.792 0-10.285 2.02-13.42 6.058v-21.475h-.296L113.24 118.02v47.663h10.688v-4.894c3.148 4.039 7.621 6.059 13.413 6.059a18.746 18.746 0 0 0 14.267-6.295c3.982-4.228 5.966-9.425 5.966-15.585s-1.984-11.316-5.96-15.544zm-8.024 23.953a12.02 12.02 0 0 1-16.4 0 11.645 11.645 0 0 1-3.228-8.456 11.355 11.355 0 0 1 3.229-8.374 11.838 11.838 0 0 1 16.399 0c2.233 2.16 3.289 4.968 3.289 8.374a11.45 11.45 0 0 1-3.29 8.456z"/>
        <path fill="url(#a)" d="M164.873 105.691h11.119v11.142h-11.119z" transform="rotate(-44.93 170.432 111.261)"/>
        <path fill="#FFF" d="M155.617 51.278l-19.07 19.105a44.867 44.867 0 0 0-31.73-13.2 44.867 44.867 0 0 0-31.76 13.126l-.075.074h-.034L53.865 51.278 104.758.357l50.859 50.92z"/>
        <path fill="url(#b)" d="M130.917 76.011l-26.16 26.181-26.185-26.187a36.624 36.624 0 0 1 26.159-10.873 36.913 36.913 0 0 1 26.186 10.88z"/>
        <path fill="url(#c)" d="M113.24 173.013h7.99l7.07 23.562 7.077-23.562h7.984l-10.4 31.97h-9.315z"/>
        <path fill="url(#d)" d="M154.709 199.517a5.923 5.923 0 0 0 4.378-1.737l5.483 3.158c-2.24 3.103-5.617 4.712-9.956 4.712-7.802 0-12.639-5.251-12.639-12.057s4.93-12.057 12.108-12.057c6.66 0 11.59 5.163 11.59 12.057.006.92-.087 1.839-.276 2.74h-16.144c.868 2.363 2.967 3.184 5.456 3.184zm4.217-8.327a4.71 4.71 0 0 0-4.836-3.609c-2.603 0-4.339 1.28-4.971 3.609h9.807z"/>
        <path fill="url(#e)" d="M191.516 190.98v14.017h-6.848v-13.013c0-2.834-1.782-4.16-3.968-4.16-2.51 0-4.245 1.46-4.245 4.712v12.468h-6.847v-22.842h6.847v2.147c1.231-1.69 3.511-2.787 6.525-2.787 4.607 0 8.536 3.292 8.536 9.459z"/>
        <path fill="url(#f)" d="M204.888 188.74v8.078c0 1.965 1.688 2.147 4.708 1.965v6.207c-8.946.916-11.549-1.777-11.549-8.172v-8.079h-3.652v-6.577h3.652v-4.342l6.848-2.054v6.396h4.708v6.577h-4.715z"/>
        <path fill="url(#g)" d="M235.513 182.162v22.835H228.7v-2.14c-1.231 1.689-3.518 2.78-6.525 2.78-4.614 0-8.536-3.286-8.536-9.425v-14.05h6.848v13.02c0 2.827 1.775 4.153 3.968 4.153 2.51 0 4.245-1.46 4.245-4.712v-12.461h6.813z"/>
        <path fill="url(#h)" d="M254.26 181.704v7.769c-2.832-.458-6.847.673-6.847 5.204v10.32h-6.882v-22.835h6.848v4.04c.908-3.037 3.969-4.498 6.881-4.498z"/>
        <path fill="url(#i)" d="M268.325 199.517a5.923 5.923 0 0 0 4.379-1.737l5.482 3.158c-2.24 3.103-5.616 4.712-9.948 4.712-7.81 0-12.646-5.251-12.646-12.057s4.93-12.057 12.108-12.057c6.659 0 11.59 5.163 11.59 12.057.004.92-.086 1.838-.27 2.74h-16.17c.867 2.363 2.966 3.184 5.475 3.184zm4.197-8.327a4.71 4.71 0 0 0-4.836-3.609c-2.603 0-4.332 1.28-4.97 3.609h9.806z"/>
        <path fill="url(#j)" d="M300 198.15c0 5.251-4.56 7.486-9.491 7.486-4.567 0-8.031-1.73-9.814-5.432l5.933-3.366a3.747 3.747 0 0 0 3.881 2.693c1.641 0 2.462-.499 2.462-1.414 0-2.511-11.227-1.185-11.227-9.088 0-4.982 4.198-7.493 8.947-7.493a9.98 9.98 0 0 1 8.899 4.887l-5.846 3.15a3.31 3.31 0 0 0-3.053-2.019c-1.191 0-1.917.451-1.917 1.28 0 2.598 11.226.868 11.226 9.316z"/>
    </g>
</svg>
