<svg xmlns="http://www.w3.org/2000/svg" width="87" height="84" viewBox="0 0 87 84">
    <defs>
        <linearGradient id="a" x1="-.099%" x2="100.104%" y1=".083%" y2="99.888%">
            <stop offset="0%" stop-color="#3CBCF7"/>
            <stop offset="100%" stop-color="#1990F2"/>
        </linearGradient>
        <linearGradient id="b" x1="18.427%" x2="88.737%" y1="69.391%" y2="4.83%">
            <stop offset="0%" stop-color="#3CBCF7"/>
            <stop offset="100%" stop-color="#1990F2"/>
        </linearGradient>
        <linearGradient id="c" x1="5.652%" x2="185.535%" y1="66.83%" y2="-20.949%">
            <stop offset="0%" stop-color="#3CBCF7"/>
            <stop offset="100%" stop-color="#1990F2"/>
        </linearGradient>
        <linearGradient id="d" x1="-486.641%" x2="489.434%" y1="98.11%" y2="13.272%">
            <stop offset="0%" stop-color="#3CBCF7"/>
            <stop offset="100%" stop-color="#1990F2"/>
        </linearGradient>
        <linearGradient id="e" x1="-751.576%" x2="420.255%" y1="107.569%" y2="23.411%">
            <stop offset="0%" stop-color="#3CBCF7"/>
            <stop offset="100%" stop-color="#1990F2"/>
        </linearGradient>
        <linearGradient id="f" x1="-906.103%" x2="265.728%" y1="118.668%" y2="34.51%">
            <stop offset="0%" stop-color="#3CBCF7"/>
            <stop offset="100%" stop-color="#1990F2"/>
        </linearGradient>
    </defs>
    <g fill="none" fill-rule="nonzero">
        <path fill="#FFF" d="M25.645 59.108v9.263l-4.43-.016v-9.033l-.036-1.265c0-1.818-1.107-3.183-2.79-3.326a3.09 3.09 0 0 0-1.102.11 2.816 2.816 0 0 0-1.483.9c-.134.162-.247.34-.335.53-.21.468-.33.97-.355 1.482-.01.143-.017.285-.021.43v10.17h-4.394c0-3.191.003-6.384.009-9.578 0-.194 0-.392-.01-.592 0-.143-.01-.285-.022-.426a4.128 4.128 0 0 0-.355-1.486 2.54 2.54 0 0 0-.336-.53 2.836 2.836 0 0 0-1.48-.9 3.1 3.1 0 0 0-1.104-.11c-1.685.134-2.79 1.507-2.792 3.326l-.034 1.265v9.033l-4.43.021v-9.268c0-.442 0-.885.03-1.33 0-.1.011-.193.018-.29.161-2.426 1.125-4.495 3.255-5.762 1.845-1.098 4.253-1.44 6.32-.803 1.32.409 2.183 1.2 3.082 2.213l.05.056.045-.056c.899-1.014 1.762-1.804 3.084-2.213 2.058-.638 4.474-.295 6.32.803 2.126 1.268 3.095 3.336 3.257 5.762 0 .097.01.193.016.29.016.447.023.891.023 1.33zM83.102 55.558v7.168c0 1.86 1.346 1.892 3.898 1.758v4.023c-6.108.69-8.354-1.061-8.354-5.785v-7.164h-3.002v-4.274h3.002v-2.092l4.456-4.45v6.542H87v4.27l-3.898.004zM40.284 51.272l-3.817 11.537L32 51.272h-4.85l7.054 16.623c-.824 2.336-2.126 3.326-4.508 3.295v4.11c4.407.238 7.293-1.925 9.08-6.867l6.26-17.163-4.751.002zM68.668 51.272h4.435v17.163h-4.435zM63.051 53.435c-1.618-1.753-3.611-2.653-5.925-2.653-2.405 0-4.269.824-5.571 2.504V44.4h-.122l-4.315 4.306v19.732h4.43v-2.023c1.31 1.68 3.165 2.504 5.57 2.504 2.304 0 4.301-.858 5.924-2.607 1.652-1.75 2.48-3.913 2.48-6.454 0-2.542-.82-4.673-2.47-6.423zm-3.338 9.917c-.897.895-2.031 1.341-3.404 1.339-1.368 0-2.509-.444-3.406-1.34-.894-.926-1.34-2.092-1.34-3.499 0-1.415.446-2.578 1.34-3.47.897-.926 2.033-1.365 3.406-1.365 1.373 0 2.518.446 3.404 1.366.928.894 1.368 2.058 1.368 3.47 0 1.41-.434 2.572-1.368 3.499z"/>
        <path fill="url(#a)" d="M68.558 43.61h4.616v4.614h-4.616z" transform="rotate(-44.93 70.865 45.917)"/>
        <path fill="#FFF" d="M64.715 21.076l-7.92 7.91a18.659 18.659 0 0 0-13.175-5.464 18.659 18.659 0 0 0-13.188 5.434c-.01 0-.02.02-.03.03h-.014l-7.926-7.91L43.59 0l21.126 21.076z"/>
        <path fill="url(#b)" d="M54.457 31.317L43.59 42.157 32.716 31.315a15.234 15.234 0 0 1 10.873-4.502c.726 0 1.452.05 2.172.152a15.21 15.21 0 0 1 8.696 4.352z"/>
        <path fill="url(#c)" d="M46.976 71.7h2.958l2.126 8.611 2.376-8.61h2.29l2.377 8.61 2.127-8.61h2.957L60.795 84h-3.208l-2.003-7.25L53.577 84h-3.204z"/>
        <path fill="url(#d)" d="M64.73 72.859c-.002-.64.384-1.218.977-1.464a1.588 1.588 0 0 1 1.729.342 1.58 1.58 0 0 1-1.121 2.703 1.593 1.593 0 0 1-1.586-1.581zm.263 2.354h2.642V84h-2.642v-8.787z"/>
        <path fill="url(#e)" d="M69.573 71.174h2.642V84h-2.642z"/>
        <path fill="url(#f)" d="M74.154 71.174h2.642V84h-2.642z"/>
    </g>
</svg>
